<ttFont>
    <TTGlyph name="A" xMin="4" yMin="0" xMax="1457" yMax="1308">
      <contour>
        <pt x="921" y="1308" on="1"/>
        <pt x="1008" y="1072" on="0"/>
        <pt x="1080" y="878" on="1"/>
        <pt x="1111" y="795" on="0"/>
        <pt x="1171" y="632" on="0"/>
        <pt x="1222" y="495" on="0"/>
        <pt x="1258" y="398" on="0"/>
        <pt x="1264" y="382" on="1"/>
        <pt x="1289" y="313" on="0"/>
        <pt x="1317" y="233" on="0"/>
        <pt x="1352" y="191" on="0"/>
        <pt x="1406" y="178" on="0"/>
        <pt x="1457" y="177" on="1"/>
        <pt x="1457" y="0" on="1"/>
        <pt x="1398" y="0" on="0"/>
        <pt x="1287" y="2" on="0"/>
        <pt x="1214" y="2" on="1"/>
        <pt x="1128" y="2" on="0"/>
        <pt x="963" y="1" on="0"/>
        <pt x="867" y="0" on="1"/>
        <pt x="867" y="165" on="1"/>
        <pt x="871" y="165" on="0"/>
        <pt x="886" y="165" on="0"/>
        <pt x="902" y="165" on="0"/>
        <pt x="916" y="166" on="0"/>
        <pt x="919" y="166" on="1"/>
        <pt x="967" y="168" on="0"/>
        <pt x="1003" y="184" on="0"/>
        <pt x="1003" y="204" on="1"/>
        <pt x="1003" y="216" on="0"/>
        <pt x="993" y="251" on="0"/>
        <pt x="985" y="274" on="1"/>
        <pt x="921" y="463" on="1"/>
        <pt x="460" y="463" on="1"/>
        <pt x="457" y="452" on="0"/>
        <pt x="435" y="389" on="0"/>
        <pt x="410" y="317" on="0"/>
        <pt x="390" y="255" on="0"/>
        <pt x="388" y="247" on="1"/>
        <pt x="383" y="233" on="0"/>
        <pt x="378" y="210" on="0"/>
        <pt x="378" y="203" on="1"/>
        <pt x="378" y="181" on="0"/>
        <pt x="405" y="166" on="0"/>
        <pt x="437" y="165" on="1"/>
        <pt x="440" y="165" on="0"/>
        <pt x="460" y="164" on="0"/>
        <pt x="484" y="164" on="0"/>
        <pt x="505" y="164" on="0"/>
        <pt x="509" y="164" on="1"/>
        <pt x="509" y="0" on="1"/>
        <pt x="448" y="0" on="0"/>
        <pt x="324" y="2" on="0"/>
        <pt x="252" y="2" on="1"/>
        <pt x="217" y="2" on="0"/>
        <pt x="156" y="2" on="0"/>
        <pt x="98" y="1" on="0"/>
        <pt x="38" y="0" on="0"/>
        <pt x="4" y="0" on="1"/>
        <pt x="4" y="178" on="1"/>
        <pt x="40" y="182" on="0"/>
        <pt x="85" y="188" on="0"/>
        <pt x="115" y="205" on="0"/>
        <pt x="137" y="238" on="0"/>
        <pt x="149" y="268" on="1"/>
        <pt x="157" y="287" on="0"/>
        <pt x="191" y="373" on="0"/>
        <pt x="236" y="489" on="0"/>
        <pt x="290" y="626" on="0"/>
        <pt x="346" y="768" on="0"/>
        <pt x="400" y="906" on="0"/>
        <pt x="446" y="1023" on="0"/>
        <pt x="480" y="1110" on="0"/>
        <pt x="488" y="1130" on="1"/>
        <pt x="534" y="1308" on="1"/>
      </contour>
      <contour>
        <pt x="506" y="593" on="1"/>
        <pt x="875" y="593" on="1"/>
        <pt x="696" y="1119" on="1"/>
        <pt x="694" y="1120" on="1"/>
      </contour>
    </TTGlyph>
    <TTGlyph name="AE" xMin="-61" yMin="0" xMax="1912" yMax="1308">
      <contour>
        <pt x="598" y="1117" on="1"/>
        <pt x="714" y="1308" on="1"/>
        <pt x="1908" y="1308" on="1"/>
        <pt x="1908" y="942" on="1"/>
        <pt x="1712" y="942" on="1"/>
        <pt x="1712" y="987" on="1"/>
        <pt x="1712" y="1033" on="0"/>
        <pt x="1704" y="1084" on="0"/>
        <pt x="1689" y="1108" on="0"/>
        <pt x="1666" y="1112" on="0"/>
        <pt x="1651" y="1112" on="1"/>
        <pt x="1234" y="1112" on="1"/>
        <pt x="1234" y="749" on="1"/>
        <pt x="1484" y="749" on="1"/>
        <pt x="1493" y="749" on="0"/>
        <pt x="1510" y="752" on="0"/>
        <pt x="1523" y="767" on="0"/>
        <pt x="1531" y="801" on="0"/>
        <pt x="1531" y="832" on="1"/>
        <pt x="1613" y="832" on="1"/>
        <pt x="1613" y="501" on="1"/>
        <pt x="1531" y="501" on="1"/>
        <pt x="1531" y="532" on="0"/>
        <pt x="1524" y="565" on="0"/>
        <pt x="1512" y="580" on="0"/>
        <pt x="1495" y="583" on="0"/>
        <pt x="1485" y="583" on="1"/>
        <pt x="1234" y="583" on="1"/>
        <pt x="1234" y="197" on="1"/>
        <pt x="1661" y="197" on="1"/>
        <pt x="1679" y="197" on="0"/>
        <pt x="1701" y="205" on="0"/>
        <pt x="1713" y="242" on="0"/>
        <pt x="1718" y="318" on="0"/>
        <pt x="1718" y="386" on="1"/>
        <pt x="1912" y="386" on="1"/>
        <pt x="1912" y="0" on="1"/>
        <pt x="747" y="0" on="1"/>
        <pt x="747" y="178" on="1"/>
        <pt x="791" y="178" on="1"/>
        <pt x="833" y="178" on="0"/>
        <pt x="880" y="187" on="0"/>
        <pt x="902" y="202" on="0"/>
        <pt x="906" y="222" on="0"/>
        <pt x="906" y="233" on="1"/>
        <pt x="906" y="508" on="1"/>
        <pt x="472" y="508" on="1"/>
        <pt x="359" y="314" on="1"/>
        <pt x="335" y="273" on="0"/>
        <pt x="309" y="222" on="0"/>
        <pt x="309" y="207" on="1"/>
        <pt x="309" y="189" on="0"/>
        <pt x="352" y="178" on="0"/>
        <pt x="400" y="178" on="1"/>
        <pt x="457" y="178" on="1"/>
        <pt x="457" y="0" on="1"/>
        <pt x="392" y="1" on="0"/>
        <pt x="279" y="2" on="0"/>
        <pt x="213" y="2" on="1"/>
        <pt x="174" y="2" on="0"/>
        <pt x="106" y="2" on="0"/>
        <pt x="42" y="1" on="0"/>
        <pt x="-24" y="0" on="0"/>
        <pt x="-61" y="0" on="1"/>
        <pt x="-61" y="178" on="1"/>
        <pt x="-21" y="178" on="0"/>
        <pt x="30" y="195" on="0"/>
        <pt x="69" y="232" on="0"/>
        <pt x="106" y="294" on="0"/>
        <pt x="133" y="339" on="1"/>
      </contour>
      <contour>
        <pt x="559" y="673" on="1"/>
        <pt x="902" y="673" on="1"/>
        <pt x="902" y="1130" on="1"/>
        <pt x="826" y="1130" on="1"/>
      </contour>
    </TTGlyph>
    <TTGlyph name="Aacute" xMin="4" yMin="0" xMax="1457" yMax="1805">
      <component glyphName="A" x="0" y="0" flags="0x1204"/>
      <component glyphName="acute" x="230" y="400" flags="0x1004"/>
    </TTGlyph>
    <TTGlyph name="Acircumflex" xMin="4" yMin="0" xMax="1457" yMax="1790">
      <component glyphName="A" x="0" y="0" flags="0x1204"/>
      <component glyphName="circumflex" x="301" y="400" flags="0x1004"/>
    </TTGlyph>
    <TTGlyph name="Adieresis" xMin="4" yMin="0" xMax="1457" yMax="1759">
      <component glyphName="A" x="0" y="0" flags="0x1204"/>
      <component glyphName="dieresis" x="300" y="400" flags="0x1004"/>
    </TTGlyph>
    <TTGlyph name="Agrave" xMin="4" yMin="0" xMax="1457" yMax="1808">
      <component glyphName="A" x="0" y="0" flags="0x1204"/>
      <component glyphName="grave" x="373" y="400" flags="0x1004"/>
    </TTGlyph>
    <TTGlyph name="Aring" xMin="4" yMin="0" xMax="1457" yMax="1880">
      <component glyphName="A" x="0" y="0" flags="0x1204"/>
      <component glyphName="ring" x="300" y="400" flags="0x1004"/>
    </TTGlyph>
    <TTGlyph name="Atilde" xMin="4" yMin="0" xMax="1457" yMax="1759">
      <component glyphName="A" x="0" y="0" flags="0x1204"/>
      <component glyphName="tilde" x="301" y="400" flags="0x1004"/>
    </TTGlyph>
    <TTGlyph name="B" xMin="73" yMin="0" xMax="1337" yMax="1308">
      <contour>
        <pt x="711" y="1308" on="1"/>
        <pt x="877" y="1308" on="0"/>
        <pt x="1098" y="1264" on="0"/>
        <pt x="1230" y="1179" on="0"/>
        <pt x="1285" y="1055" on="0"/>
        <pt x="1285" y="975" on="1"/>
        <pt x="1285" y="925" on="0"/>
        <pt x="1253" y="832" on="0"/>
        <pt x="1191" y="756" on="0"/>
        <pt x="1100" y="701" on="0"/>
        <pt x="1041" y="689" on="1"/>
        <pt x="1181" y="660" on="0"/>
        <pt x="1337" y="492" on="0"/>
        <pt x="1337" y="362" on="1"/>
        <pt x="1337" y="283" on="0"/>
        <pt x="1282" y="150" on="0"/>
        <pt x="1153" y="54" on="0"/>
        <pt x="939" y="0" on="0"/>
        <pt x="781" y="0" on="1"/>
        <pt x="73" y="0" on="1"/>
        <pt x="73" y="178" on="1"/>
        <pt x="125" y="178" on="1"/>
        <pt x="159" y="178" on="0"/>
        <pt x="197" y="191" on="0"/>
        <pt x="216" y="215" on="0"/>
        <pt x="220" y="251" on="0"/>
        <pt x="220" y="274" on="1"/>
        <pt x="220" y="1011" on="1"/>
        <pt x="220" y="1030" on="0"/>
        <pt x="217" y="1071" on="0"/>
        <pt x="200" y="1106" on="0"/>
        <pt x="164" y="1129" on="0"/>
        <pt x="131" y="1129" on="1"/>
        <pt x="128" y="1129" on="0"/>
        <pt x="112" y="1130" on="0"/>
        <pt x="95" y="1130" on="0"/>
        <pt x="78" y="1130" on="0"/>
        <pt x="73" y="1130" on="1"/>
        <pt x="73" y="1308" on="1"/>
      </contour>
      <contour>
        <pt x="546" y="745" on="1"/>
        <pt x="706" y="745" on="1"/>
        <pt x="955" y="745" on="0"/>
        <pt x="955" y="938" on="1"/>
        <pt x="955" y="983" on="0"/>
        <pt x="926" y="1052" on="0"/>
        <pt x="864" y="1100" on="0"/>
        <pt x="766" y="1125" on="0"/>
        <pt x="696" y="1125" on="1"/>
        <pt x="546" y="1125" on="1"/>
      </contour>
      <contour>
        <pt x="546" y="182" on="1"/>
        <pt x="711" y="182" on="1"/>
        <pt x="850" y="182" on="0"/>
        <pt x="992" y="280" on="0"/>
        <pt x="992" y="382" on="1"/>
        <pt x="992" y="438" on="0"/>
        <pt x="956" y="518" on="0"/>
        <pt x="875" y="570" on="0"/>
        <pt x="747" y="595" on="0"/>
        <pt x="656" y="595" on="1"/>
        <pt x="546" y="595" on="1"/>
      </contour>
    </TTGlyph>
    <TTGlyph name="C" xMin="109" yMin="-26" xMax="1355" yMax="1333">
      <contour>
        <pt x="835" y="168" on="1"/>
        <pt x="911" y="168" on="0"/>
        <pt x="1026" y="200" on="0"/>
        <pt x="1104" y="272" on="0"/>
        <pt x="1147" y="388" on="0"/>
        <pt x="1151" y="472" on="1"/>
        <pt x="1355" y="428" on="1"/>
        <pt x="1340" y="124" on="1"/>
        <pt x="1222" y="45" on="0"/>
        <pt x="956" y="-26" on="0"/>
        <pt x="801" y="-26" on="1"/>
        <pt x="619" y="-26" on="0"/>
        <pt x="357" y="80" on="0"/>
        <pt x="189" y="264" on="0"/>
        <pt x="109" y="512" on="0"/>
        <pt x="109" y="654" on="1"/>
        <pt x="109" y="803" on="0"/>
        <pt x="200" y="1053" on="0"/>
        <pt x="370" y="1233" on="0"/>
        <pt x="614" y="1333" on="0"/>
        <pt x="768" y="1333" on="1"/>
        <pt x="814" y="1333" on="0"/>
        <pt x="912" y="1317" on="0"/>
        <pt x="1002" y="1287" on="0"/>
        <pt x="1079" y="1245" on="0"/>
        <pt x="1106" y="1219" on="1"/>
        <pt x="1111" y="1305" on="1"/>
        <pt x="1333" y="1305" on="1"/>
        <pt x="1333" y="895" on="1"/>
        <pt x="1128" y="896" on="1"/>
        <pt x="1120" y="1010" on="0"/>
        <pt x="972" y="1139" on="0"/>
        <pt x="832" y="1139" on="1"/>
        <pt x="747" y="1139" on="0"/>
        <pt x="613" y="1077" on="0"/>
        <pt x="520" y="956" on="0"/>
        <pt x="470" y="775" on="0"/>
        <pt x="470" y="657" on="1"/>
        <pt x="470" y="541" on="0"/>
        <pt x="520" y="359" on="0"/>
        <pt x="614" y="234" on="0"/>
        <pt x="749" y="168" on="0"/>
      </contour>
    </TTGlyph>
    <TTGlyph name="Ccedilla" xMin="109" yMin="-434" xMax="1355" yMax="1333">
      <component glyphName="C" x="0" y="0" flags="0x1204"/>
      <component glyphName="cedilla" x="273" y="0" flags="0x1004"/>
    </TTGlyph>
    <TTGlyph name="D" xMin="65" yMin="0" xMax="1469" yMax="1308">
      <contour>
        <pt x="625" y="1308" on="1"/>
        <pt x="1051" y="1308" on="0"/>
        <pt x="1469" y="985" on="0"/>
        <pt x="1469" y="661" on="1"/>
        <pt x="1469" y="474" on="0"/>
        <pt x="1352" y="221" on="0"/>
        <pt x="1137" y="66" on="0"/>
        <pt x="834" y="0" on="0"/>
        <pt x="647" y="0" on="1"/>
        <pt x="65" y="0" on="1"/>
        <pt x="65" y="178" on="1"/>
        <pt x="114" y="178" on="1"/>
        <pt x="145" y="178" on="0"/>
        <pt x="181" y="195" on="0"/>
        <pt x="199" y="224" on="0"/>
        <pt x="204" y="264" on="0"/>
        <pt x="204" y="288" on="1"/>
        <pt x="204" y="291" on="0"/>
        <pt x="204" y="358" on="0"/>
        <pt x="203" y="464" on="0"/>
        <pt x="203" y="598" on="0"/>
        <pt x="203" y="667" on="1"/>
        <pt x="203" y="1035" on="1"/>
        <pt x="203" y="1056" on="0"/>
        <pt x="196" y="1090" on="0"/>
        <pt x="177" y="1116" on="0"/>
        <pt x="142" y="1131" on="0"/>
        <pt x="114" y="1131" on="1"/>
        <pt x="65" y="1131" on="1"/>
        <pt x="65" y="1308" on="1"/>
      </contour>
      <contour>
        <pt x="531" y="194" on="1"/>
        <pt x="675" y="194" on="1"/>
        <pt x="785" y="194" on="0"/>
        <pt x="950" y="248" on="0"/>
        <pt x="1059" y="363" on="0"/>
        <pt x="1114" y="541" on="0"/>
        <pt x="1114" y="665" on="1"/>
        <pt x="1114" y="899" on="0"/>
        <pt x="897" y="1114" on="0"/>
        <pt x="674" y="1114" on="1"/>
        <pt x="531" y="1114" on="1"/>
      </contour>
    </TTGlyph>
    <TTGlyph name="Delta" xMin="55" yMin="0" xMax="1506" yMax="1402">
      <contour>
        <pt x="55" y="142" on="1"/>
        <pt x="606" y="1402" on="1"/>
        <pt x="960" y="1402" on="1"/>
        <pt x="1506" y="141" on="1"/>
        <pt x="1506" y="0" on="1"/>
        <pt x="55" y="0" on="1"/>
      </contour>
      <contour>
        <pt x="1163" y="209" on="1"/>
        <pt x="888" y="889" on="1"/>
        <pt x="874" y="922" on="0"/>
        <pt x="838" y="1011" on="0"/>
        <pt x="804" y="1100" on="0"/>
        <pt x="775" y="1176" on="0"/>
        <pt x="768" y="1195" on="1"/>
        <pt x="756" y="1195" on="1"/>
        <pt x="752" y="1182" on="0"/>
        <pt x="728" y="1114" on="0"/>
        <pt x="697" y="1030" on="0"/>
        <pt x="665" y="943" on="0"/>
        <pt x="652" y="910" on="1"/>
        <pt x="374" y="209" on="1"/>
      </contour>
    </TTGlyph>
    <TTGlyph name="E" xMin="68" yMin="0" xMax="1215" yMax="1308">
      <contour>
        <pt x="1211" y="1308" on="1"/>
        <pt x="1211" y="944" on="1"/>
        <pt x="1016" y="944" on="1"/>
        <pt x="1016" y="985" on="1"/>
        <pt x="1016" y="1033" on="0"/>
        <pt x="996" y="1085" on="0"/>
        <pt x="960" y="1108" on="0"/>
        <pt x="908" y="1112" on="0"/>
        <pt x="876" y="1112" on="1"/>
        <pt x="541" y="1112" on="1"/>
        <pt x="541" y="749" on="1"/>
        <pt x="738" y="749" on="1"/>
        <pt x="760" y="749" on="0"/>
        <pt x="791" y="754" on="0"/>
        <pt x="813" y="772" on="0"/>
        <pt x="828" y="810" on="0"/>
        <pt x="833" y="843" on="1"/>
        <pt x="918" y="843" on="1"/>
        <pt x="918" y="489" on="1"/>
        <pt x="832" y="489" on="1"/>
        <pt x="826" y="521" on="0"/>
        <pt x="812" y="559" on="0"/>
        <pt x="790" y="578" on="0"/>
        <pt x="760" y="583" on="0"/>
        <pt x="738" y="583" on="1"/>
        <pt x="541" y="583" on="1"/>
        <pt x="541" y="194" on="1"/>
        <pt x="890" y="194" on="1"/>
        <pt x="927" y="194" on="0"/>
        <pt x="977" y="204" on="0"/>
        <pt x="1008" y="238" on="0"/>
        <pt x="1022" y="301" on="0"/>
        <pt x="1022" y="354" on="1"/>
        <pt x="1022" y="386" on="1"/>
        <pt x="1215" y="386" on="1"/>
        <pt x="1215" y="0" on="1"/>
        <pt x="68" y="0" on="1"/>
        <pt x="68" y="178" on="1"/>
        <pt x="142" y="178" on="1"/>
        <pt x="168" y="178" on="0"/>
        <pt x="197" y="196" on="0"/>
        <pt x="212" y="228" on="0"/>
        <pt x="215" y="268" on="0"/>
        <pt x="215" y="291" on="1"/>
        <pt x="215" y="1011" on="1"/>
        <pt x="215" y="1033" on="0"/>
        <pt x="213" y="1077" on="0"/>
        <pt x="199" y="1111" on="0"/>
        <pt x="170" y="1132" on="0"/>
        <pt x="142" y="1132" on="1"/>
        <pt x="72" y="1132" on="1"/>
        <pt x="72" y="1308" on="1"/>
      </contour>
    </TTGlyph>
    <TTGlyph name="Eacute" xMin="68" yMin="0" xMax="1215" yMax="1805">
      <component glyphName="acute" x="161" y="400" flags="0x1004"/>
      <component glyphName="E" x="0" y="0" flags="0x1004"/>
    </TTGlyph>
    <TTGlyph name="Ecircumflex" xMin="68" yMin="0" xMax="1215" yMax="1790">
      <component glyphName="circumflex" x="232" y="400" flags="0x1004"/>
      <component glyphName="E" x="0" y="0" flags="0x1004"/>
    </TTGlyph>
    <TTGlyph name="Edieresis" xMin="68" yMin="0" xMax="1215" yMax="1759">
      <component glyphName="dieresis" x="231" y="400" flags="0x1004"/>
      <component glyphName="E" x="0" y="0" flags="0x1004"/>
    </TTGlyph>
    <TTGlyph name="Egrave" xMin="68" yMin="0" xMax="1215" yMax="1808">
      <component glyphName="E" x="0" y="0" flags="0x1204"/>
      <component glyphName="grave" x="304" y="400" flags="0x1004"/>
    </TTGlyph>
    <TTGlyph name="Eth" xMin="65" yMin="0" xMax="1469" yMax="1308">
      <contour>
        <pt x="727" y="792" on="1"/>
        <pt x="727" y="527" on="1"/>
        <pt x="66" y="527" on="1"/>
        <pt x="66" y="792" on="1"/>
      </contour>
      <contour>
        <pt x="625" y="1308" on="1"/>
        <pt x="1051" y="1308" on="0"/>
        <pt x="1469" y="985" on="0"/>
        <pt x="1469" y="661" on="1"/>
        <pt x="1469" y="474" on="0"/>
        <pt x="1352" y="221" on="0"/>
        <pt x="1137" y="66" on="0"/>
        <pt x="834" y="0" on="0"/>
        <pt x="647" y="0" on="1"/>
        <pt x="65" y="0" on="1"/>
        <pt x="65" y="178" on="1"/>
        <pt x="114" y="178" on="1"/>
        <pt x="145" y="178" on="0"/>
        <pt x="181" y="195" on="0"/>
        <pt x="199" y="224" on="0"/>
        <pt x="204" y="264" on="0"/>
        <pt x="204" y="288" on="1"/>
        <pt x="204" y="291" on="0"/>
        <pt x="204" y="358" on="0"/>
        <pt x="203" y="464" on="0"/>
        <pt x="203" y="598" on="0"/>
        <pt x="203" y="667" on="1"/>
        <pt x="203" y="1035" on="1"/>
        <pt x="203" y="1056" on="0"/>
        <pt x="196" y="1090" on="0"/>
        <pt x="177" y="1116" on="0"/>
        <pt x="142" y="1131" on="0"/>
        <pt x="114" y="1131" on="1"/>
        <pt x="65" y="1131" on="1"/>
        <pt x="65" y="1308" on="1"/>
      </contour>
      <contour>
        <pt x="531" y="194" on="1"/>
        <pt x="675" y="194" on="1"/>
        <pt x="785" y="194" on="0"/>
        <pt x="950" y="248" on="0"/>
        <pt x="1059" y="363" on="0"/>
        <pt x="1114" y="541" on="0"/>
        <pt x="1114" y="665" on="1"/>
        <pt x="1114" y="899" on="0"/>
        <pt x="897" y="1114" on="0"/>
        <pt x="674" y="1114" on="1"/>
        <pt x="531" y="1114" on="1"/>
      </contour>
    </TTGlyph>
    <TTGlyph name="Euro" xMin="31" yMin="-18" xMax="1276" yMax="1401">
      <contour>
        <pt x="1276" y="369" on="1"/>
        <pt x="1253" y="298" on="0"/>
        <pt x="1178" y="160" on="0"/>
        <pt x="1058" y="50" on="0"/>
        <pt x="882" y="-18" on="0"/>
        <pt x="758" y="-18" on="1"/>
        <pt x="610" y="-18" on="0"/>
        <pt x="400" y="72" on="0"/>
        <pt x="258" y="218" on="0"/>
        <pt x="176" y="403" on="0"/>
        <pt x="158" y="498" on="1"/>
        <pt x="31" y="498" on="1"/>
        <pt x="31" y="626" on="1"/>
        <pt x="142" y="626" on="1"/>
        <pt x="140" y="641" on="0"/>
        <pt x="140" y="672" on="0"/>
        <pt x="140" y="686" on="1"/>
        <pt x="140" y="704" on="0"/>
        <pt x="140" y="739" on="0"/>
        <pt x="142" y="757" on="1"/>
        <pt x="31" y="757" on="1"/>
        <pt x="31" y="886" on="1"/>
        <pt x="159" y="886" on="1"/>
        <pt x="180" y="989" on="0"/>
        <pt x="267" y="1175" on="0"/>
        <pt x="397" y="1317" on="0"/>
        <pt x="571" y="1401" on="0"/>
        <pt x="678" y="1401" on="1"/>
        <pt x="781" y="1401" on="0"/>
        <pt x="960" y="1338" on="0"/>
        <pt x="1023" y="1275" on="1"/>
        <pt x="1023" y="1374" on="1"/>
        <pt x="1256" y="1374" on="1"/>
        <pt x="1256" y="967" on="1"/>
        <pt x="1011" y="967" on="1"/>
        <pt x="998" y="1011" on="0"/>
        <pt x="950" y="1086" on="0"/>
        <pt x="888" y="1140" on="0"/>
        <pt x="814" y="1171" on="0"/>
        <pt x="775" y="1171" on="1"/>
        <pt x="727" y="1171" on="0"/>
        <pt x="645" y="1123" on="0"/>
        <pt x="580" y="1043" on="0"/>
        <pt x="533" y="940" on="0"/>
        <pt x="518" y="886" on="1"/>
        <pt x="829" y="886" on="1"/>
        <pt x="829" y="757" on="1"/>
        <pt x="496" y="757" on="1"/>
        <pt x="494" y="741" on="0"/>
        <pt x="494" y="708" on="0"/>
        <pt x="494" y="691" on="1"/>
        <pt x="494" y="674" on="0"/>
        <pt x="494" y="642" on="0"/>
        <pt x="496" y="626" on="1"/>
        <pt x="829" y="626" on="1"/>
        <pt x="829" y="498" on="1"/>
        <pt x="518" y="498" on="1"/>
        <pt x="532" y="443" on="0"/>
        <pt x="579" y="340" on="0"/>
        <pt x="645" y="260" on="0"/>
        <pt x="732" y="211" on="0"/>
        <pt x="786" y="211" on="1"/>
        <pt x="835" y="211" on="0"/>
        <pt x="913" y="250" on="0"/>
        <pt x="974" y="316" on="0"/>
        <pt x="1020" y="404" on="0"/>
        <pt x="1038" y="452" on="1"/>
      </contour>
    </TTGlyph>
    <TTGlyph name="F" xMin="53" yMin="0" xMax="1196" yMax="1308">
      <contour>
        <pt x="1196" y="1308" on="1"/>
        <pt x="1196" y="934" on="1"/>
        <pt x="1002" y="934" on="1"/>
        <pt x="1002" y="982" on="1"/>
        <pt x="1002" y="1030" on="0"/>
        <pt x="982" y="1082" on="0"/>
        <pt x="948" y="1107" on="0"/>
        <pt x="903" y="1112" on="0"/>
        <pt x="878" y="1112" on="1"/>
        <pt x="539" y="1112" on="1"/>
        <pt x="539" y="748" on="1"/>
        <pt x="715" y="748" on="1"/>
        <pt x="740" y="748" on="0"/>
        <pt x="775" y="751" on="0"/>
        <pt x="799" y="766" on="0"/>
        <pt x="813" y="800" on="0"/>
        <pt x="816" y="831" on="1"/>
        <pt x="891" y="831" on="1"/>
        <pt x="891" y="500" on="1"/>
        <pt x="816" y="500" on="1"/>
        <pt x="813" y="528" on="0"/>
        <pt x="799" y="560" on="0"/>
        <pt x="777" y="577" on="0"/>
        <pt x="742" y="582" on="0"/>
        <pt x="718" y="582" on="1"/>
        <pt x="539" y="582" on="1"/>
        <pt x="539" y="261" on="1"/>
        <pt x="539" y="234" on="0"/>
        <pt x="549" y="201" on="0"/>
        <pt x="573" y="184" on="0"/>
        <pt x="612" y="178" on="0"/>
        <pt x="641" y="178" on="1"/>
        <pt x="702" y="178" on="1"/>
        <pt x="702" y="0" on="1"/>
        <pt x="659" y="0" on="0"/>
        <pt x="579" y="0" on="0"/>
        <pt x="494" y="1" on="0"/>
        <pt x="400" y="2" on="0"/>
        <pt x="344" y="2" on="1"/>
        <pt x="295" y="2" on="0"/>
        <pt x="218" y="1" on="0"/>
        <pt x="151" y="1" on="0"/>
        <pt x="88" y="0" on="0"/>
        <pt x="53" y="0" on="1"/>
        <pt x="53" y="178" on="1"/>
        <pt x="120" y="178" on="1"/>
        <pt x="147" y="178" on="0"/>
        <pt x="183" y="185" on="0"/>
        <pt x="204" y="209" on="0"/>
        <pt x="212" y="255" on="0"/>
        <pt x="212" y="294" on="1"/>
        <pt x="212" y="1016" on="1"/>
        <pt x="212" y="1049" on="0"/>
        <pt x="208" y="1093" on="0"/>
        <pt x="190" y="1120" on="0"/>
        <pt x="153" y="1131" on="0"/>
        <pt x="120" y="1131" on="1"/>
        <pt x="55" y="1131" on="1"/>
        <pt x="55" y="1308" on="1"/>
      </contour>
    </TTGlyph>
    <TTGlyph name="G" xMin="100" yMin="-26" xMax="1479" yMax="1333">
      <contour>
        <pt x="1368" y="906" on="1"/>
        <pt x="1164" y="906" on="1"/>
        <pt x="1137" y="1021" on="0"/>
        <pt x="976" y="1139" on="0"/>
        <pt x="848" y="1139" on="1"/>
        <pt x="753" y="1139" on="0"/>
        <pt x="609" y="1071" on="0"/>
        <pt x="512" y="944" on="0"/>
        <pt x="463" y="763" on="0"/>
        <pt x="463" y="650" on="1"/>
        <pt x="463" y="417" on="0"/>
        <pt x="673" y="168" on="0"/>
        <pt x="876" y="168" on="1"/>
        <pt x="924" y="168" on="0"/>
        <pt x="1005" y="182" on="0"/>
        <pt x="1064" y="209" on="0"/>
        <pt x="1097" y="249" on="0"/>
        <pt x="1097" y="275" on="1"/>
        <pt x="1097" y="436" on="1"/>
        <pt x="1097" y="463" on="0"/>
        <pt x="1085" y="491" on="0"/>
        <pt x="1054" y="503" on="0"/>
        <pt x="1002" y="504" on="0"/>
        <pt x="962" y="504" on="1"/>
        <pt x="899" y="504" on="1"/>
        <pt x="899" y="657" on="1"/>
        <pt x="982" y="657" on="0"/>
        <pt x="1135" y="655" on="0"/>
        <pt x="1224" y="655" on="1"/>
        <pt x="1278" y="655" on="0"/>
        <pt x="1407" y="655" on="0"/>
        <pt x="1479" y="657" on="1"/>
        <pt x="1479" y="644" on="0"/>
        <pt x="1478" y="605" on="0"/>
        <pt x="1478" y="564" on="0"/>
        <pt x="1477" y="525" on="0"/>
        <pt x="1477" y="512" on="1"/>
        <pt x="1439" y="507" on="0"/>
        <pt x="1389" y="497" on="0"/>
        <pt x="1361" y="482" on="0"/>
        <pt x="1349" y="458" on="0"/>
        <pt x="1349" y="439" on="1"/>
        <pt x="1349" y="427" on="0"/>
        <pt x="1344" y="349" on="0"/>
        <pt x="1337" y="249" on="0"/>
        <pt x="1329" y="143" on="0"/>
        <pt x="1326" y="102" on="1"/>
        <pt x="1214" y="29" on="0"/>
        <pt x="970" y="-26" on="0"/>
        <pt x="851" y="-26" on="1"/>
        <pt x="713" y="-26" on="0"/>
        <pt x="494" y="26" on="0"/>
        <pt x="327" y="119" on="0"/>
        <pt x="209" y="247" on="0"/>
        <pt x="134" y="399" on="0"/>
        <pt x="100" y="568" on="0"/>
        <pt x="100" y="656" on="1"/>
        <pt x="100" y="811" on="0"/>
        <pt x="203" y="1061" on="0"/>
        <pt x="384" y="1238" on="0"/>
        <pt x="629" y="1333" on="0"/>
        <pt x="772" y="1333" on="1"/>
        <pt x="824" y="1333" on="0"/>
        <pt x="928" y="1318" on="0"/>
        <pt x="1024" y="1288" on="0"/>
        <pt x="1108" y="1242" on="0"/>
        <pt x="1141" y="1211" on="1"/>
        <pt x="1145" y="1304" on="1"/>
        <pt x="1368" y="1304" on="1"/>
      </contour>
    </TTGlyph>
    <TTGlyph name="H" xMin="75" yMin="0" xMax="1537" yMax="1308">
      <contour>
        <pt x="75" y="1308" on="1"/>
        <pt x="90" y="1308" on="0"/>
        <pt x="165" y="1307" on="0"/>
        <pt x="258" y="1307" on="0"/>
        <pt x="353" y="1306" on="0"/>
        <pt x="388" y="1306" on="1"/>
        <pt x="411" y="1306" on="0"/>
        <pt x="477" y="1306" on="0"/>
        <pt x="554" y="1307" on="0"/>
        <pt x="638" y="1308" on="0"/>
        <pt x="679" y="1308" on="1"/>
        <pt x="679" y="1130" on="1"/>
        <pt x="644" y="1130" on="1"/>
        <pt x="605" y="1130" on="0"/>
        <pt x="564" y="1116" on="0"/>
        <pt x="544" y="1091" on="0"/>
        <pt x="541" y="1055" on="0"/>
        <pt x="541" y="1034" on="1"/>
        <pt x="541" y="755" on="1"/>
        <pt x="1069" y="755" on="1"/>
        <pt x="1069" y="1052" on="1"/>
        <pt x="1069" y="1075" on="0"/>
        <pt x="1060" y="1105" on="0"/>
        <pt x="1037" y="1123" on="0"/>
        <pt x="997" y="1130" on="0"/>
        <pt x="966" y="1130" on="1"/>
        <pt x="931" y="1130" on="1"/>
        <pt x="931" y="1308" on="1"/>
        <pt x="1028" y="1306" on="0"/>
        <pt x="1192" y="1306" on="0"/>
        <pt x="1269" y="1306" on="1"/>
        <pt x="1288" y="1306" on="0"/>
        <pt x="1347" y="1306" on="0"/>
        <pt x="1419" y="1307" on="0"/>
        <pt x="1499" y="1308" on="0"/>
        <pt x="1537" y="1308" on="1"/>
        <pt x="1537" y="1130" on="1"/>
        <pt x="1505" y="1130" on="1"/>
        <pt x="1466" y="1130" on="0"/>
        <pt x="1422" y="1119" on="0"/>
        <pt x="1401" y="1096" on="0"/>
        <pt x="1396" y="1063" on="0"/>
        <pt x="1396" y="1042" on="1"/>
        <pt x="1396" y="288" on="1"/>
        <pt x="1396" y="259" on="0"/>
        <pt x="1398" y="218" on="0"/>
        <pt x="1417" y="191" on="0"/>
        <pt x="1462" y="178" on="0"/>
        <pt x="1505" y="178" on="1"/>
        <pt x="1537" y="178" on="1"/>
        <pt x="1537" y="0" on="1"/>
        <pt x="1501" y="0" on="0"/>
        <pt x="1434" y="1" on="0"/>
        <pt x="1364" y="1" on="0"/>
        <pt x="1285" y="2" on="0"/>
        <pt x="1237" y="2" on="1"/>
        <pt x="1147" y="2" on="0"/>
        <pt x="1000" y="0" on="0"/>
        <pt x="931" y="0" on="1"/>
        <pt x="931" y="178" on="1"/>
        <pt x="966" y="178" on="1"/>
        <pt x="1002" y="178" on="0"/>
        <pt x="1043" y="186" on="0"/>
        <pt x="1064" y="209" on="0"/>
        <pt x="1069" y="248" on="0"/>
        <pt x="1069" y="278" on="1"/>
        <pt x="1069" y="583" on="1"/>
        <pt x="541" y="583" on="1"/>
        <pt x="541" y="259" on="1"/>
        <pt x="541" y="229" on="0"/>
        <pt x="550" y="196" on="0"/>
        <pt x="574" y="181" on="0"/>
        <pt x="614" y="178" on="0"/>
        <pt x="644" y="178" on="1"/>
        <pt x="679" y="178" on="1"/>
        <pt x="679" y="0" on="1"/>
        <pt x="642" y="0" on="0"/>
        <pt x="573" y="1" on="0"/>
        <pt x="500" y="1" on="0"/>
        <pt x="418" y="2" on="0"/>
        <pt x="368" y="2" on="1"/>
        <pt x="321" y="2" on="0"/>
        <pt x="244" y="1" on="0"/>
        <pt x="174" y="1" on="0"/>
        <pt x="109" y="0" on="0"/>
        <pt x="75" y="0" on="1"/>
        <pt x="75" y="178" on="1"/>
        <pt x="106" y="178" on="1"/>
        <pt x="146" y="178" on="0"/>
        <pt x="190" y="195" on="0"/>
        <pt x="211" y="225" on="0"/>
        <pt x="214" y="266" on="0"/>
        <pt x="214" y="290" on="1"/>
        <pt x="214" y="1049" on="1"/>
        <pt x="214" y="1069" on="0"/>
        <pt x="209" y="1100" on="0"/>
        <pt x="187" y="1120" on="0"/>
        <pt x="144" y="1130" on="0"/>
        <pt x="106" y="1130" on="1"/>
        <pt x="75" y="1130" on="1"/>
      </contour>
    </TTGlyph>
    <TTGlyph name="I" xMin="75" yMin="0" xMax="691" yMax="1308">
      <contour>
        <pt x="75" y="1308" on="1"/>
        <pt x="120" y="1307" on="0"/>
        <pt x="194" y="1306" on="0"/>
        <pt x="258" y="1306" on="0"/>
        <pt x="317" y="1306" on="0"/>
        <pt x="346" y="1306" on="1"/>
        <pt x="406" y="1306" on="0"/>
        <pt x="499" y="1306" on="0"/>
        <pt x="578" y="1306" on="0"/>
        <pt x="651" y="1307" on="0"/>
        <pt x="691" y="1308" on="1"/>
        <pt x="691" y="1130" on="1"/>
        <pt x="649" y="1130" on="1"/>
        <pt x="613" y="1130" on="0"/>
        <pt x="572" y="1117" on="0"/>
        <pt x="551" y="1092" on="0"/>
        <pt x="546" y="1057" on="0"/>
        <pt x="546" y="1035" on="1"/>
        <pt x="546" y="269" on="1"/>
        <pt x="546" y="242" on="0"/>
        <pt x="550" y="207" on="0"/>
        <pt x="570" y="186" on="0"/>
        <pt x="611" y="178" on="0"/>
        <pt x="649" y="178" on="1"/>
        <pt x="691" y="178" on="1"/>
        <pt x="691" y="0" on="1"/>
        <pt x="654" y="0" on="0"/>
        <pt x="584" y="1" on="0"/>
        <pt x="511" y="1" on="0"/>
        <pt x="428" y="2" on="0"/>
        <pt x="379" y="2" on="1"/>
        <pt x="287" y="2" on="0"/>
        <pt x="146" y="0" on="0"/>
        <pt x="75" y="0" on="1"/>
        <pt x="75" y="178" on="1"/>
        <pt x="115" y="178" on="1"/>
        <pt x="154" y="178" on="0"/>
        <pt x="196" y="192" on="0"/>
        <pt x="216" y="220" on="0"/>
        <pt x="219" y="262" on="0"/>
        <pt x="219" y="290" on="1"/>
        <pt x="219" y="1015" on="1"/>
        <pt x="219" y="1044" on="0"/>
        <pt x="215" y="1087" on="0"/>
        <pt x="195" y="1116" on="0"/>
        <pt x="153" y="1130" on="0"/>
        <pt x="115" y="1130" on="1"/>
        <pt x="75" y="1130" on="1"/>
      </contour>
    </TTGlyph>
    <TTGlyph name="Iacute" xMin="75" yMin="0" xMax="691" yMax="1805">
      <component glyphName="I" x="0" y="0" flags="0x1204"/>
      <component glyphName="acute" x="-112" y="400" flags="0x1004"/>
    </TTGlyph>
    <TTGlyph name="Icircumflex" xMin="37" yMin="0" xMax="733" yMax="1790">
      <component glyphName="I" x="0" y="0" flags="0x1204"/>
      <component glyphName="circumflex" x="-41" y="400" flags="0x1004"/>
    </TTGlyph>
    <TTGlyph name="Idieresis" xMin="26" yMin="0" xMax="743" yMax="1759">
      <component glyphName="I" x="0" y="0" flags="0x1204"/>
      <component glyphName="dieresis" x="-42" y="400" flags="0x1004"/>
    </TTGlyph>
    <TTGlyph name="Igrave" xMin="75" yMin="0" xMax="691" yMax="1808">
      <component glyphName="I" x="0" y="0" flags="0x1204"/>
      <component glyphName="grave" x="27" y="400" flags="0x1004"/>
    </TTGlyph>
    <TTGlyph name="J" xMin="18" yMin="-236" xMax="813" yMax="1308">
      <contour>
        <pt x="221" y="1308" on="1"/>
        <pt x="262" y="1308" on="0"/>
        <pt x="338" y="1307" on="0"/>
        <pt x="414" y="1306" on="0"/>
        <pt x="493" y="1306" on="0"/>
        <pt x="538" y="1306" on="1"/>
        <pt x="557" y="1306" on="0"/>
        <pt x="618" y="1306" on="0"/>
        <pt x="692" y="1306" on="0"/>
        <pt x="773" y="1307" on="0"/>
        <pt x="813" y="1308" on="1"/>
        <pt x="813" y="1130" on="1"/>
        <pt x="764" y="1130" on="1"/>
        <pt x="728" y="1130" on="0"/>
        <pt x="689" y="1114" on="0"/>
        <pt x="669" y="1082" on="0"/>
        <pt x="665" y="1037" on="0"/>
        <pt x="665" y="1009" on="1"/>
        <pt x="665" y="269" on="1"/>
        <pt x="665" y="126" on="0"/>
        <pt x="623" y="-68" on="0"/>
        <pt x="522" y="-186" on="0"/>
        <pt x="355" y="-236" on="0"/>
        <pt x="231" y="-236" on="1"/>
        <pt x="171" y="-236" on="0"/>
        <pt x="71" y="-221" on="0"/>
        <pt x="18" y="-210" on="1"/>
        <pt x="18" y="95" on="1"/>
        <pt x="25" y="95" on="0"/>
        <pt x="51" y="93" on="0"/>
        <pt x="80" y="91" on="0"/>
        <pt x="106" y="89" on="0"/>
        <pt x="112" y="89" on="1"/>
        <pt x="126" y="29" on="0"/>
        <pt x="164" y="-17" on="0"/>
        <pt x="196" y="-17" on="1"/>
        <pt x="245" y="-14" on="0"/>
        <pt x="301" y="44" on="0"/>
        <pt x="330" y="138" on="0"/>
        <pt x="337" y="259" on="0"/>
        <pt x="337" y="324" on="1"/>
        <pt x="337" y="1024" on="1"/>
        <pt x="337" y="1046" on="0"/>
        <pt x="334" y="1084" on="0"/>
        <pt x="318" y="1113" on="0"/>
        <pt x="284" y="1130" on="0"/>
        <pt x="253" y="1130" on="1"/>
        <pt x="180" y="1130" on="1"/>
        <pt x="180" y="1308" on="1"/>
      </contour>
    </TTGlyph>
    <TTGlyph name="K" xMin="59" yMin="0" xMax="1474" yMax="1308">
      <contour>
        <pt x="979" y="1091" on="1"/>
        <pt x="1002" y="1111" on="0"/>
        <pt x="1002" y="1120" on="1"/>
        <pt x="1002" y="1128" on="0"/>
        <pt x="976" y="1130" on="0"/>
        <pt x="953" y="1130" on="1"/>
        <pt x="849" y="1130" on="1"/>
        <pt x="849" y="1307" on="1"/>
        <pt x="857" y="1307" on="0"/>
        <pt x="904" y="1306" on="0"/>
        <pt x="967" y="1306" on="0"/>
        <pt x="1037" y="1306" on="0"/>
        <pt x="1100" y="1306" on="0"/>
        <pt x="1148" y="1306" on="0"/>
        <pt x="1156" y="1306" on="1"/>
        <pt x="1450" y="1307" on="1"/>
        <pt x="1450" y="1130" on="1"/>
        <pt x="1445" y="1130" on="0"/>
        <pt x="1428" y="1130" on="0"/>
        <pt x="1410" y="1130" on="0"/>
        <pt x="1394" y="1129" on="0"/>
        <pt x="1390" y="1129" on="1"/>
        <pt x="1349" y="1128" on="0"/>
        <pt x="1288" y="1119" on="0"/>
        <pt x="1232" y="1098" on="0"/>
        <pt x="1177" y="1060" on="0"/>
        <pt x="1142" y="1029" on="1"/>
        <pt x="801" y="728" on="1"/>
        <pt x="1250" y="261" on="1"/>
        <pt x="1279" y="231" on="0"/>
        <pt x="1359" y="184" on="0"/>
        <pt x="1419" y="179" on="1"/>
        <pt x="1422" y="179" on="0"/>
        <pt x="1437" y="178" on="0"/>
        <pt x="1455" y="178" on="0"/>
        <pt x="1471" y="178" on="0"/>
        <pt x="1474" y="178" on="1"/>
        <pt x="1474" y="0" on="1"/>
        <pt x="1466" y="0" on="0"/>
        <pt x="1418" y="0" on="0"/>
        <pt x="1354" y="0" on="0"/>
        <pt x="1281" y="1" on="0"/>
        <pt x="1215" y="1" on="0"/>
        <pt x="1162" y="1" on="0"/>
        <pt x="1151" y="1" on="1"/>
        <pt x="1140" y="1" on="0"/>
        <pt x="1089" y="1" on="0"/>
        <pt x="1022" y="1" on="0"/>
        <pt x="949" y="0" on="0"/>
        <pt x="885" y="0" on="0"/>
        <pt x="838" y="0" on="0"/>
        <pt x="831" y="0" on="1"/>
        <pt x="831" y="178" on="1"/>
        <pt x="911" y="178" on="1"/>
        <pt x="948" y="178" on="0"/>
        <pt x="948" y="187" on="1"/>
        <pt x="948" y="195" on="0"/>
        <pt x="926" y="220" on="1"/>
        <pt x="590" y="587" on="1"/>
        <pt x="529" y="538" on="1"/>
        <pt x="529" y="280" on="1"/>
        <pt x="529" y="256" on="0"/>
        <pt x="533" y="219" on="0"/>
        <pt x="551" y="192" on="0"/>
        <pt x="591" y="178" on="0"/>
        <pt x="627" y="178" on="1"/>
        <pt x="673" y="178" on="1"/>
        <pt x="673" y="0" on="1"/>
        <pt x="665" y="0" on="0"/>
        <pt x="620" y="0" on="0"/>
        <pt x="559" y="0" on="0"/>
        <pt x="490" y="1" on="0"/>
        <pt x="427" y="1" on="0"/>
        <pt x="377" y="1" on="0"/>
        <pt x="366" y="1" on="1"/>
        <pt x="355" y="1" on="0"/>
        <pt x="306" y="1" on="0"/>
        <pt x="243" y="1" on="0"/>
        <pt x="174" y="0" on="0"/>
        <pt x="112" y="0" on="0"/>
        <pt x="67" y="0" on="0"/>
        <pt x="59" y="0" on="1"/>
        <pt x="59" y="178" on="1"/>
        <pt x="104" y="178" on="1"/>
        <pt x="140" y="178" on="0"/>
        <pt x="180" y="194" on="0"/>
        <pt x="198" y="222" on="0"/>
        <pt x="202" y="259" on="0"/>
        <pt x="202" y="281" on="1"/>
        <pt x="202" y="1022" on="1"/>
        <pt x="202" y="1045" on="0"/>
        <pt x="198" y="1084" on="0"/>
        <pt x="179" y="1113" on="0"/>
        <pt x="139" y="1130" on="0"/>
        <pt x="104" y="1130" on="1"/>
        <pt x="59" y="1130" on="1"/>
        <pt x="59" y="1308" on="1"/>
        <pt x="104" y="1308" on="0"/>
        <pt x="179" y="1306" on="0"/>
        <pt x="245" y="1305" on="0"/>
        <pt x="304" y="1305" on="0"/>
        <pt x="334" y="1305" on="1"/>
        <pt x="364" y="1305" on="0"/>
        <pt x="452" y="1306" on="0"/>
        <pt x="548" y="1307" on="0"/>
        <pt x="645" y="1308" on="0"/>
        <pt x="685" y="1308" on="1"/>
        <pt x="685" y="1130" on="1"/>
        <pt x="628" y="1130" on="1"/>
        <pt x="593" y="1130" on="0"/>
        <pt x="553" y="1111" on="0"/>
        <pt x="533" y="1080" on="0"/>
        <pt x="529" y="1040" on="0"/>
        <pt x="529" y="1020" on="1"/>
        <pt x="529" y="682" on="1"/>
      </contour>
    </TTGlyph>
    <TTGlyph name="L" xMin="66" yMin="0" xMax="1154" yMax="1308">
      <contour>
        <pt x="66" y="1308" on="1"/>
        <pt x="73" y="1308" on="0"/>
        <pt x="130" y="1307" on="0"/>
        <pt x="202" y="1306" on="0"/>
        <pt x="275" y="1305" on="0"/>
        <pt x="299" y="1305" on="1"/>
        <pt x="347" y="1305" on="0"/>
        <pt x="439" y="1305" on="0"/>
        <pt x="535" y="1306" on="0"/>
        <pt x="639" y="1307" on="0"/>
        <pt x="699" y="1308" on="1"/>
        <pt x="699" y="1130" on="1"/>
        <pt x="634" y="1130" on="1"/>
        <pt x="600" y="1130" on="0"/>
        <pt x="562" y="1110" on="0"/>
        <pt x="543" y="1078" on="0"/>
        <pt x="539" y="1037" on="0"/>
        <pt x="539" y="1016" on="1"/>
        <pt x="539" y="602" on="1"/>
        <pt x="539" y="423" on="0"/>
        <pt x="540" y="197" on="1"/>
        <pt x="863" y="197" on="1"/>
        <pt x="901" y="197" on="0"/>
        <pt x="944" y="229" on="0"/>
        <pt x="965" y="292" on="0"/>
        <pt x="971" y="384" on="0"/>
        <pt x="971" y="444" on="1"/>
        <pt x="1154" y="444" on="1"/>
        <pt x="1154" y="0" on="1"/>
        <pt x="66" y="0" on="1"/>
        <pt x="66" y="178" on="1"/>
        <pt x="113" y="178" on="1"/>
        <pt x="149" y="178" on="0"/>
        <pt x="190" y="196" on="0"/>
        <pt x="209" y="226" on="0"/>
        <pt x="213" y="268" on="0"/>
        <pt x="213" y="292" on="1"/>
        <pt x="213" y="989" on="1"/>
        <pt x="213" y="1028" on="1"/>
        <pt x="213" y="1048" on="0"/>
        <pt x="207" y="1085" on="0"/>
        <pt x="187" y="1113" on="0"/>
        <pt x="147" y="1130" on="0"/>
        <pt x="113" y="1130" on="1"/>
        <pt x="66" y="1130" on="1"/>
      </contour>
    </TTGlyph>
    <TTGlyph name="Lslash" xMin="66" yMin="0" xMax="1154" yMax="1308">
      <contour>
        <pt x="66" y="1308" on="1"/>
        <pt x="73" y="1308" on="0"/>
        <pt x="130" y="1307" on="0"/>
        <pt x="202" y="1306" on="0"/>
        <pt x="275" y="1305" on="0"/>
        <pt x="299" y="1305" on="1"/>
        <pt x="347" y="1305" on="0"/>
        <pt x="439" y="1305" on="0"/>
        <pt x="535" y="1306" on="0"/>
        <pt x="639" y="1307" on="0"/>
        <pt x="699" y="1308" on="1"/>
        <pt x="699" y="1130" on="1"/>
        <pt x="634" y="1130" on="1"/>
        <pt x="600" y="1130" on="0"/>
        <pt x="562" y="1110" on="0"/>
        <pt x="543" y="1078" on="0"/>
        <pt x="539" y="1037" on="0"/>
        <pt x="539" y="1016" on="1"/>
        <pt x="539" y="807" on="1"/>
        <pt x="813" y="907" on="1"/>
        <pt x="813" y="680" on="1"/>
        <pt x="539" y="581" on="1"/>
        <pt x="539" y="315" on="1"/>
        <pt x="539" y="252" on="0"/>
        <pt x="540" y="197" on="1"/>
        <pt x="863" y="197" on="1"/>
        <pt x="901" y="197" on="0"/>
        <pt x="944" y="229" on="0"/>
        <pt x="965" y="292" on="0"/>
        <pt x="971" y="384" on="0"/>
        <pt x="971" y="444" on="1"/>
        <pt x="1154" y="444" on="1"/>
        <pt x="1154" y="0" on="1"/>
        <pt x="66" y="0" on="1"/>
        <pt x="66" y="178" on="1"/>
        <pt x="113" y="178" on="1"/>
        <pt x="149" y="178" on="0"/>
        <pt x="190" y="196" on="0"/>
        <pt x="209" y="226" on="0"/>
        <pt x="213" y="268" on="0"/>
        <pt x="213" y="292" on="1"/>
        <pt x="213" y="462" on="1"/>
        <pt x="77" y="413" on="1"/>
        <pt x="77" y="640" on="1"/>
        <pt x="213" y="689" on="1"/>
        <pt x="213" y="1028" on="1"/>
        <pt x="213" y="1048" on="0"/>
        <pt x="207" y="1085" on="0"/>
        <pt x="187" y="1113" on="0"/>
        <pt x="147" y="1130" on="0"/>
        <pt x="113" y="1130" on="1"/>
        <pt x="66" y="1130" on="1"/>
      </contour>
    </TTGlyph>
    <TTGlyph name="M" xMin="71" yMin="0" xMax="1869" yMax="1308">
      <contour>
        <pt x="77" y="1308" on="1"/>
        <pt x="91" y="1308" on="0"/>
        <pt x="162" y="1307" on="0"/>
        <pt x="248" y="1306" on="0"/>
        <pt x="336" y="1306" on="0"/>
        <pt x="367" y="1306" on="1"/>
        <pt x="394" y="1306" on="0"/>
        <pt x="467" y="1306" on="0"/>
        <pt x="548" y="1307" on="0"/>
        <pt x="630" y="1308" on="0"/>
        <pt x="668" y="1308" on="1"/>
        <pt x="820" y="850" on="1"/>
        <pt x="848" y="764" on="0"/>
        <pt x="903" y="600" on="0"/>
        <pt x="945" y="471" on="0"/>
        <pt x="972" y="392" on="0"/>
        <pt x="972" y="392" on="1"/>
        <pt x="981" y="426" on="0"/>
        <pt x="1027" y="567" on="0"/>
        <pt x="1088" y="746" on="0"/>
        <pt x="1156" y="944" on="0"/>
        <pt x="1218" y="1125" on="0"/>
        <pt x="1267" y="1271" on="0"/>
        <pt x="1278" y="1308" on="1"/>
        <pt x="1314" y="1308" on="0"/>
        <pt x="1403" y="1307" on="0"/>
        <pt x="1494" y="1306" on="0"/>
        <pt x="1578" y="1306" on="0"/>
        <pt x="1608" y="1306" on="1"/>
        <pt x="1632" y="1306" on="0"/>
        <pt x="1711" y="1306" on="0"/>
        <pt x="1791" y="1307" on="0"/>
        <pt x="1855" y="1308" on="0"/>
        <pt x="1866" y="1308" on="1"/>
        <pt x="1866" y="1130" on="1"/>
        <pt x="1815" y="1130" on="1"/>
        <pt x="1784" y="1130" on="0"/>
        <pt x="1749" y="1121" on="0"/>
        <pt x="1732" y="1104" on="0"/>
        <pt x="1728" y="1078" on="0"/>
        <pt x="1728" y="1061" on="1"/>
        <pt x="1728" y="663" on="1"/>
        <pt x="1728" y="490" on="0"/>
        <pt x="1729" y="270" on="1"/>
        <pt x="1729" y="243" on="0"/>
        <pt x="1735" y="207" on="0"/>
        <pt x="1754" y="186" on="0"/>
        <pt x="1790" y="178" on="0"/>
        <pt x="1820" y="178" on="1"/>
        <pt x="1869" y="178" on="1"/>
        <pt x="1869" y="0" on="1"/>
        <pt x="1831" y="0" on="0"/>
        <pt x="1759" y="1" on="0"/>
        <pt x="1682" y="1" on="0"/>
        <pt x="1597" y="2" on="0"/>
        <pt x="1548" y="2" on="1"/>
        <pt x="1505" y="2" on="0"/>
        <pt x="1438" y="1" on="0"/>
        <pt x="1379" y="1" on="0"/>
        <pt x="1324" y="0" on="0"/>
        <pt x="1294" y="0" on="1"/>
        <pt x="1294" y="178" on="1"/>
        <pt x="1335" y="178" on="1"/>
        <pt x="1369" y="178" on="0"/>
        <pt x="1408" y="195" on="0"/>
        <pt x="1429" y="228" on="0"/>
        <pt x="1435" y="276" on="0"/>
        <pt x="1435" y="306" on="1"/>
        <pt x="1435" y="1149" on="1"/>
        <pt x="1378" y="992" on="1"/>
        <pt x="1024" y="0" on="1"/>
        <pt x="840" y="0" on="1"/>
        <pt x="831" y="24" on="0"/>
        <pt x="795" y="124" on="0"/>
        <pt x="748" y="257" on="0"/>
        <pt x="694" y="414" on="0"/>
        <pt x="638" y="575" on="0"/>
        <pt x="583" y="731" on="0"/>
        <pt x="536" y="864" on="0"/>
        <pt x="501" y="965" on="0"/>
        <pt x="492" y="989" on="1"/>
        <pt x="464" y="1067" on="1"/>
        <pt x="459" y="1081" on="0"/>
        <pt x="448" y="1110" on="0"/>
        <pt x="444" y="1121" on="1"/>
        <pt x="439" y="1134" on="0"/>
        <pt x="435" y="1146" on="1"/>
        <pt x="435" y="267" on="1"/>
        <pt x="435" y="237" on="0"/>
        <pt x="442" y="202" on="0"/>
        <pt x="461" y="184" on="0"/>
        <pt x="496" y="178" on="0"/>
        <pt x="525" y="178" on="1"/>
        <pt x="573" y="178" on="1"/>
        <pt x="573" y="0" on="1"/>
        <pt x="544" y="0" on="0"/>
        <pt x="490" y="1" on="0"/>
        <pt x="432" y="1" on="0"/>
        <pt x="367" y="2" on="0"/>
        <pt x="328" y="2" on="1"/>
        <pt x="286" y="2" on="0"/>
        <pt x="218" y="1" on="0"/>
        <pt x="158" y="1" on="0"/>
        <pt x="101" y="0" on="0"/>
        <pt x="71" y="0" on="1"/>
        <pt x="71" y="178" on="1"/>
        <pt x="120" y="178" on="1"/>
        <pt x="156" y="178" on="0"/>
        <pt x="194" y="193" on="0"/>
        <pt x="210" y="221" on="0"/>
        <pt x="213" y="261" on="0"/>
        <pt x="214" y="287" on="1"/>
        <pt x="215" y="1039" on="1"/>
        <pt x="215" y="1063" on="0"/>
        <pt x="208" y="1097" on="0"/>
        <pt x="189" y="1120" on="0"/>
        <pt x="153" y="1130" on="0"/>
        <pt x="124" y="1130" on="1"/>
        <pt x="77" y="1130" on="1"/>
      </contour>
    </TTGlyph>
    <TTGlyph name="N" xMin="52" yMin="-14" xMax="1491" yMax="1308">
      <contour>
        <pt x="319" y="1308" on="1"/>
        <pt x="325" y="1308" on="0"/>
        <pt x="361" y="1308" on="0"/>
        <pt x="410" y="1308" on="0"/>
        <pt x="465" y="1308" on="0"/>
        <pt x="514" y="1308" on="0"/>
        <pt x="551" y="1308" on="0"/>
        <pt x="557" y="1308" on="1"/>
        <pt x="1128" y="345" on="1"/>
        <pt x="1130" y="345" on="1"/>
        <pt x="1129" y="1046" on="1"/>
        <pt x="1129" y="1074" on="0"/>
        <pt x="1121" y="1107" on="0"/>
        <pt x="1099" y="1125" on="0"/>
        <pt x="1060" y="1130" on="0"/>
        <pt x="1029" y="1130" on="1"/>
        <pt x="983" y="1130" on="1"/>
        <pt x="983" y="1308" on="1"/>
        <pt x="1058" y="1308" on="0"/>
        <pt x="1177" y="1306" on="0"/>
        <pt x="1226" y="1306" on="1"/>
        <pt x="1233" y="1306" on="0"/>
        <pt x="1264" y="1306" on="0"/>
        <pt x="1304" y="1306" on="0"/>
        <pt x="1350" y="1307" on="0"/>
        <pt x="1373" y="1307" on="1"/>
        <pt x="1427" y="1307" on="0"/>
        <pt x="1491" y="1308" on="1"/>
        <pt x="1491" y="1130" on="1"/>
        <pt x="1440" y="1130" on="1"/>
        <pt x="1406" y="1130" on="0"/>
        <pt x="1370" y="1115" on="0"/>
        <pt x="1353" y="1088" on="0"/>
        <pt x="1350" y="1049" on="0"/>
        <pt x="1350" y="1026" on="1"/>
        <pt x="1350" y="1024" on="0"/>
        <pt x="1350" y="932" on="0"/>
        <pt x="1350" y="785" on="0"/>
        <pt x="1350" y="599" on="0"/>
        <pt x="1350" y="502" on="1"/>
        <pt x="1350" y="-14" on="1"/>
        <pt x="1021" y="-14" on="1"/>
        <pt x="420" y="988" on="1"/>
        <pt x="418" y="988" on="1"/>
        <pt x="419" y="266" on="1"/>
        <pt x="419" y="235" on="0"/>
        <pt x="426" y="200" on="0"/>
        <pt x="449" y="182" on="0"/>
        <pt x="489" y="178" on="0"/>
        <pt x="522" y="178" on="1"/>
        <pt x="571" y="178" on="1"/>
        <pt x="571" y="0" on="1"/>
        <pt x="514" y="0" on="0"/>
        <pt x="397" y="2" on="0"/>
        <pt x="320" y="2" on="1"/>
        <pt x="277" y="2" on="0"/>
        <pt x="207" y="1" on="0"/>
        <pt x="144" y="1" on="0"/>
        <pt x="84" y="0" on="0"/>
        <pt x="52" y="0" on="1"/>
        <pt x="52" y="178" on="1"/>
        <pt x="104" y="178" on="1"/>
        <pt x="141" y="178" on="0"/>
        <pt x="180" y="192" on="0"/>
        <pt x="198" y="220" on="0"/>
        <pt x="200" y="263" on="0"/>
        <pt x="200" y="292" on="1"/>
        <pt x="200" y="1029" on="1"/>
        <pt x="200" y="1059" on="0"/>
        <pt x="196" y="1098" on="0"/>
        <pt x="177" y="1121" on="0"/>
        <pt x="139" y="1130" on="0"/>
        <pt x="106" y="1130" on="1"/>
        <pt x="54" y="1130" on="1"/>
        <pt x="54" y="1308" on="1"/>
      </contour>
    </TTGlyph>
    <TTGlyph name="Ntilde" xMin="52" yMin="-14" xMax="1491" yMax="1759">
      <component glyphName="N" x="0" y="0" flags="0x1204"/>
      <component glyphName="tilde" x="346" y="400" flags="0x1004"/>
    </TTGlyph>
    <TTGlyph name="O" xMin="99" yMin="-26" xMax="1474" yMax="1333">
      <contour>
        <pt x="788" y="1333" on="1"/>
        <pt x="953" y="1333" on="0"/>
        <pt x="1208" y="1229" on="0"/>
        <pt x="1383" y="1046" on="0"/>
        <pt x="1474" y="798" on="0"/>
        <pt x="1474" y="655" on="1"/>
        <pt x="1474" y="512" on="0"/>
        <pt x="1383" y="264" on="0"/>
        <pt x="1209" y="80" on="0"/>
        <pt x="955" y="-26" on="0"/>
        <pt x="791" y="-26" on="1"/>
        <pt x="625" y="-26" on="0"/>
        <pt x="367" y="78" on="0"/>
        <pt x="191" y="261" on="0"/>
        <pt x="99" y="510" on="0"/>
        <pt x="99" y="655" on="1"/>
        <pt x="99" y="798" on="0"/>
        <pt x="189" y="1045" on="0"/>
        <pt x="364" y="1228" on="0"/>
        <pt x="621" y="1333" on="0"/>
      </contour>
      <contour>
        <pt x="787" y="1139" on="1"/>
        <pt x="701" y="1139" on="0"/>
        <pt x="578" y="1073" on="0"/>
        <pt x="499" y="948" on="0"/>
        <pt x="462" y="769" on="0"/>
        <pt x="462" y="657" on="1"/>
        <pt x="462" y="540" on="0"/>
        <pt x="502" y="358" on="0"/>
        <pt x="582" y="233" on="0"/>
        <pt x="704" y="168" on="0"/>
        <pt x="787" y="168" on="1"/>
        <pt x="871" y="168" on="0"/>
        <pt x="994" y="235" on="0"/>
        <pt x="1073" y="361" on="0"/>
        <pt x="1112" y="542" on="0"/>
        <pt x="1112" y="656" on="1"/>
        <pt x="1112" y="890" on="0"/>
        <pt x="952" y="1139" on="0"/>
      </contour>
    </TTGlyph>
    <TTGlyph name="OE" xMin="101" yMin="0" xMax="2041" yMax="1308">
      <contour>
        <pt x="2036" y="1308" on="1"/>
        <pt x="2036" y="942" on="1"/>
        <pt x="1840" y="942" on="1"/>
        <pt x="1840" y="993" on="1"/>
        <pt x="1840" y="1034" on="0"/>
        <pt x="1835" y="1081" on="0"/>
        <pt x="1823" y="1105" on="0"/>
        <pt x="1803" y="1112" on="0"/>
        <pt x="1788" y="1112" on="1"/>
        <pt x="1360" y="1112" on="1"/>
        <pt x="1360" y="750" on="1"/>
        <pt x="1617" y="750" on="1"/>
        <pt x="1626" y="750" on="0"/>
        <pt x="1641" y="753" on="0"/>
        <pt x="1653" y="770" on="0"/>
        <pt x="1660" y="807" on="0"/>
        <pt x="1660" y="841" on="1"/>
        <pt x="1741" y="841" on="1"/>
        <pt x="1741" y="487" on="1"/>
        <pt x="1660" y="487" on="1"/>
        <pt x="1660" y="524" on="0"/>
        <pt x="1654" y="564" on="0"/>
        <pt x="1643" y="582" on="0"/>
        <pt x="1628" y="585" on="0"/>
        <pt x="1620" y="585" on="1"/>
        <pt x="1360" y="585" on="1"/>
        <pt x="1360" y="197" on="1"/>
        <pt x="1794" y="197" on="1"/>
        <pt x="1811" y="197" on="0"/>
        <pt x="1831" y="209" on="0"/>
        <pt x="1843" y="248" on="0"/>
        <pt x="1847" y="323" on="0"/>
        <pt x="1847" y="386" on="1"/>
        <pt x="2041" y="386" on="1"/>
        <pt x="2041" y="0" on="1"/>
        <pt x="955" y="0" on="1"/>
        <pt x="836" y="0" on="0"/>
        <pt x="617" y="26" on="0"/>
        <pt x="427" y="86" on="0"/>
        <pt x="272" y="184" on="0"/>
        <pt x="161" y="330" on="0"/>
        <pt x="101" y="527" on="0"/>
        <pt x="101" y="656" on="1"/>
        <pt x="101" y="821" on="0"/>
        <pt x="199" y="1066" on="0"/>
        <pt x="389" y="1228" on="0"/>
        <pt x="668" y="1308" on="0"/>
        <pt x="850" y="1308" on="1"/>
      </contour>
      <contour>
        <pt x="891" y="1112" on="1"/>
        <pt x="769" y="1112" on="0"/>
        <pt x="596" y="1056" on="0"/>
        <pt x="487" y="941" on="0"/>
        <pt x="436" y="767" on="0"/>
        <pt x="436" y="649" on="1"/>
        <pt x="436" y="524" on="0"/>
        <pt x="497" y="351" on="0"/>
        <pt x="617" y="244" on="0"/>
        <pt x="793" y="196" on="0"/>
        <pt x="907" y="196" on="1"/>
        <pt x="1034" y="196" on="1"/>
        <pt x="1034" y="1112" on="1"/>
      </contour>
    </TTGlyph>
    <TTGlyph name="Oacute" xMin="99" yMin="-26" xMax="1474" yMax="1805">
      <component glyphName="acute" x="291" y="400" flags="0x1004"/>
      <component glyphName="O" x="0" y="0" flags="0x1004"/>
    </TTGlyph>
    <TTGlyph name="Ocircumflex" xMin="99" yMin="-26" xMax="1474" yMax="1790">
      <component glyphName="circumflex" x="362" y="400" flags="0x1004"/>
      <component glyphName="O" x="0" y="0" flags="0x1004"/>
    </TTGlyph>
    <TTGlyph name="Odieresis" xMin="99" yMin="-26" xMax="1474" yMax="1759">
      <component glyphName="dieresis" x="361" y="400" flags="0x1004"/>
      <component glyphName="O" x="0" y="0" flags="0x1004"/>
    </TTGlyph>
    <TTGlyph name="Ograve" xMin="99" yMin="-26" xMax="1474" yMax="1808">
      <component glyphName="O" x="0" y="0" flags="0x1204"/>
      <component glyphName="grave" x="434" y="400" flags="0x1004"/>
    </TTGlyph>
    <TTGlyph name="Oslash" xMin="99" yMin="-78" xMax="1475" yMax="1364">
      <contour>
        <pt x="1393" y="1319" on="1"/>
        <pt x="1271" y="1160" on="1"/>
        <pt x="1368" y="1073" on="0"/>
        <pt x="1475" y="821" on="0"/>
        <pt x="1475" y="650" on="1"/>
        <pt x="1475" y="498" on="0"/>
        <pt x="1379" y="249" on="0"/>
        <pt x="1200" y="71" on="0"/>
        <pt x="945" y="-26" on="0"/>
        <pt x="787" y="-26" on="1"/>
        <pt x="671" y="-26" on="0"/>
        <pt x="485" y="21" on="0"/>
        <pt x="404" y="72" on="1"/>
        <pt x="292" y="-78" on="1"/>
        <pt x="161" y="-27" on="1"/>
        <pt x="295" y="151" on="1"/>
        <pt x="197" y="242" on="0"/>
        <pt x="99" y="492" on="0"/>
        <pt x="99" y="649" on="1"/>
        <pt x="99" y="801" on="0"/>
        <pt x="194" y="1053" on="0"/>
        <pt x="372" y="1235" on="0"/>
        <pt x="627" y="1335" on="0"/>
        <pt x="787" y="1335" on="1"/>
        <pt x="895" y="1335" on="0"/>
        <pt x="1089" y="1285" on="0"/>
        <pt x="1164" y="1237" on="1"/>
        <pt x="1261" y="1364" on="1"/>
      </contour>
      <contour>
        <pt x="1011" y="1051" on="1"/>
        <pt x="965" y="1103" on="0"/>
        <pt x="859" y="1147" on="0"/>
        <pt x="788" y="1147" on="1"/>
        <pt x="621" y="1147" on="0"/>
        <pt x="457" y="889" on="0"/>
        <pt x="457" y="649" on="1"/>
        <pt x="457" y="583" on="0"/>
        <pt x="482" y="474" on="0"/>
        <pt x="513" y="421" on="1"/>
      </contour>
      <contour>
        <pt x="562" y="267" on="1"/>
        <pt x="643" y="165" on="0"/>
        <pt x="787" y="165" on="1"/>
        <pt x="876" y="165" on="0"/>
        <pt x="1001" y="237" on="0"/>
        <pt x="1080" y="369" on="0"/>
        <pt x="1116" y="554" on="0"/>
        <pt x="1116" y="667" on="1"/>
        <pt x="1116" y="736" on="0"/>
        <pt x="1090" y="853" on="0"/>
        <pt x="1063" y="901" on="1"/>
      </contour>
    </TTGlyph>
    <TTGlyph name="Otilde" xMin="99" yMin="-26" xMax="1474" yMax="1759">
      <component glyphName="O" x="0" y="0" flags="0x1204"/>
      <component glyphName="tilde" x="362" y="400" flags="0x1004"/>
    </TTGlyph>
    <TTGlyph name="P" xMin="69" yMin="0" xMax="1297" yMax="1308">
      <contour>
        <pt x="754" y="1308" on="1"/>
        <pt x="901" y="1308" on="0"/>
        <pt x="1107" y="1251" on="0"/>
        <pt x="1237" y="1149" on="0"/>
        <pt x="1297" y="1006" on="0"/>
        <pt x="1297" y="920" on="1"/>
        <pt x="1297" y="835" on="0"/>
        <pt x="1243" y="695" on="0"/>
        <pt x="1116" y="594" on="0"/>
        <pt x="907" y="539" on="0"/>
        <pt x="751" y="539" on="1"/>
        <pt x="552" y="539" on="1"/>
        <pt x="552" y="273" on="1"/>
        <pt x="552" y="241" on="0"/>
        <pt x="561" y="203" on="0"/>
        <pt x="583" y="184" on="0"/>
        <pt x="623" y="178" on="0"/>
        <pt x="655" y="178" on="1"/>
        <pt x="705" y="178" on="1"/>
        <pt x="705" y="0" on="1"/>
        <pt x="670" y="0" on="0"/>
        <pt x="604" y="1" on="0"/>
        <pt x="534" y="1" on="0"/>
        <pt x="455" y="2" on="0"/>
        <pt x="409" y="2" on="1"/>
        <pt x="358" y="2" on="0"/>
        <pt x="269" y="1" on="0"/>
        <pt x="186" y="1" on="0"/>
        <pt x="108" y="0" on="0"/>
        <pt x="69" y="0" on="1"/>
        <pt x="69" y="178" on="1"/>
        <pt x="119" y="178" on="1"/>
        <pt x="156" y="178" on="0"/>
        <pt x="199" y="186" on="0"/>
        <pt x="219" y="211" on="0"/>
        <pt x="224" y="256" on="0"/>
        <pt x="224" y="293" on="1"/>
        <pt x="224" y="1021" on="1"/>
        <pt x="224" y="1045" on="0"/>
        <pt x="220" y="1084" on="0"/>
        <pt x="200" y="1113" on="0"/>
        <pt x="160" y="1130" on="0"/>
        <pt x="124" y="1130" on="1"/>
        <pt x="69" y="1130" on="1"/>
        <pt x="69" y="1308" on="1"/>
      </contour>
      <contour>
        <pt x="552" y="715" on="1"/>
        <pt x="714" y="715" on="1"/>
        <pt x="839" y="715" on="0"/>
        <pt x="965" y="817" on="0"/>
        <pt x="965" y="922" on="1"/>
        <pt x="965" y="973" on="0"/>
        <pt x="935" y="1050" on="0"/>
        <pt x="871" y="1101" on="0"/>
        <pt x="769" y="1127" on="0"/>
        <pt x="696" y="1127" on="1"/>
        <pt x="552" y="1127" on="1"/>
      </contour>
    </TTGlyph>
    <TTGlyph name="Q" xMin="99" yMin="-349" xMax="1474" yMax="1333">
      <contour>
        <pt x="787" y="168" on="1"/>
        <pt x="871" y="168" on="0"/>
        <pt x="993" y="235" on="0"/>
        <pt x="1073" y="362" on="0"/>
        <pt x="1112" y="543" on="0"/>
        <pt x="1112" y="657" on="1"/>
        <pt x="1112" y="771" on="0"/>
        <pt x="1072" y="951" on="0"/>
        <pt x="991" y="1074" on="0"/>
        <pt x="869" y="1139" on="0"/>
        <pt x="787" y="1139" on="1"/>
        <pt x="701" y="1139" on="0"/>
        <pt x="578" y="1071" on="0"/>
        <pt x="499" y="945" on="0"/>
        <pt x="462" y="767" on="0"/>
        <pt x="462" y="658" on="1"/>
        <pt x="462" y="542" on="0"/>
        <pt x="501" y="360" on="0"/>
        <pt x="581" y="234" on="0"/>
        <pt x="704" y="168" on="0"/>
      </contour>
      <contour>
        <pt x="1273" y="-349" on="1"/>
        <pt x="1215" y="-349" on="0"/>
        <pt x="1108" y="-322" on="0"/>
        <pt x="1007" y="-282" on="0"/>
        <pt x="912" y="-235" on="0"/>
        <pt x="819" y="-195" on="0"/>
        <pt x="726" y="-168" on="0"/>
        <pt x="678" y="-168" on="1"/>
        <pt x="647" y="-168" on="0"/>
        <pt x="590" y="-187" on="0"/>
        <pt x="572" y="-207" on="1"/>
        <pt x="501" y="-80" on="1"/>
        <pt x="530" y="-45" on="0"/>
        <pt x="599" y="-17" on="0"/>
        <pt x="646" y="-13" on="1"/>
        <pt x="519" y="5" on="0"/>
        <pt x="317" y="119" on="0"/>
        <pt x="175" y="294" on="0"/>
        <pt x="99" y="522" on="0"/>
        <pt x="99" y="655" on="1"/>
        <pt x="99" y="799" on="0"/>
        <pt x="191" y="1046" on="0"/>
        <pt x="367" y="1229" on="0"/>
        <pt x="624" y="1333" on="0"/>
        <pt x="789" y="1333" on="1"/>
        <pt x="952" y="1333" on="0"/>
        <pt x="1207" y="1229" on="0"/>
        <pt x="1382" y="1046" on="0"/>
        <pt x="1474" y="799" on="0"/>
        <pt x="1474" y="656" on="1"/>
        <pt x="1474" y="529" on="0"/>
        <pt x="1397" y="296" on="0"/>
        <pt x="1244" y="113" on="0"/>
        <pt x="1018" y="-6" on="0"/>
        <pt x="870" y="-18" on="1"/>
        <pt x="871" y="-18" on="0"/>
        <pt x="873" y="-20" on="0"/>
        <pt x="874" y="-20" on="1"/>
        <pt x="932" y="-34" on="0"/>
        <pt x="1027" y="-71" on="0"/>
        <pt x="1136" y="-104" on="0"/>
        <pt x="1277" y="-127" on="0"/>
        <pt x="1381" y="-127" on="1"/>
        <pt x="1314" y="-348" on="1"/>
        <pt x="1303" y="-349" on="0"/>
        <pt x="1283" y="-349" on="0"/>
      </contour>
    </TTGlyph>
    <TTGlyph name="R" xMin="70" yMin="-26" xMax="1494" yMax="1308">
      <contour>
        <pt x="1201" y="362" on="1"/>
        <pt x="1210" y="312" on="0"/>
        <pt x="1227" y="239" on="0"/>
        <pt x="1250" y="191" on="0"/>
        <pt x="1283" y="168" on="0"/>
        <pt x="1307" y="168" on="1"/>
        <pt x="1342" y="168" on="0"/>
        <pt x="1378" y="208" on="0"/>
        <pt x="1378" y="256" on="1"/>
        <pt x="1494" y="270" on="1"/>
        <pt x="1494" y="269" on="0"/>
        <pt x="1494" y="260" on="0"/>
        <pt x="1493" y="249" on="0"/>
        <pt x="1493" y="240" on="0"/>
        <pt x="1493" y="239" on="1"/>
        <pt x="1491" y="169" on="0"/>
        <pt x="1452" y="69" on="0"/>
        <pt x="1380" y="4" on="0"/>
        <pt x="1279" y="-26" on="0"/>
        <pt x="1215" y="-26" on="1"/>
        <pt x="1138" y="-26" on="0"/>
        <pt x="1024" y="18" on="0"/>
        <pt x="942" y="106" on="0"/>
        <pt x="888" y="239" on="0"/>
        <pt x="871" y="329" on="1"/>
        <pt x="856" y="409" on="0"/>
        <pt x="815" y="515" on="0"/>
        <pt x="790" y="550" on="1"/>
        <pt x="763" y="572" on="0"/>
        <pt x="687" y="587" on="0"/>
        <pt x="631" y="587" on="1"/>
        <pt x="544" y="587" on="1"/>
        <pt x="543" y="250" on="1"/>
        <pt x="543" y="227" on="0"/>
        <pt x="552" y="198" on="0"/>
        <pt x="574" y="183" on="0"/>
        <pt x="612" y="178" on="0"/>
        <pt x="642" y="178" on="1"/>
        <pt x="686" y="178" on="1"/>
        <pt x="686" y="0" on="1"/>
        <pt x="649" y="0" on="0"/>
        <pt x="576" y="0" on="0"/>
        <pt x="500" y="1" on="0"/>
        <pt x="415" y="2" on="0"/>
        <pt x="366" y="2" on="1"/>
        <pt x="318" y="2" on="0"/>
        <pt x="239" y="1" on="0"/>
        <pt x="169" y="1" on="0"/>
        <pt x="104" y="0" on="0"/>
        <pt x="70" y="0" on="1"/>
        <pt x="70" y="178" on="1"/>
        <pt x="102" y="178" on="1"/>
        <pt x="145" y="178" on="0"/>
        <pt x="192" y="191" on="0"/>
        <pt x="213" y="217" on="0"/>
        <pt x="216" y="255" on="0"/>
        <pt x="216" y="280" on="1"/>
        <pt x="216" y="1027" on="1"/>
        <pt x="216" y="1055" on="0"/>
        <pt x="211" y="1094" on="0"/>
        <pt x="188" y="1119" on="0"/>
        <pt x="140" y="1130" on="0"/>
        <pt x="97" y="1130" on="1"/>
        <pt x="70" y="1130" on="1"/>
        <pt x="70" y="1308" on="1"/>
        <pt x="709" y="1308" on="1"/>
        <pt x="782" y="1308" on="0"/>
        <pt x="925" y="1298" on="0"/>
        <pt x="1054" y="1269" on="0"/>
        <pt x="1165" y="1219" on="0"/>
        <pt x="1246" y="1139" on="0"/>
        <pt x="1292" y="1025" on="0"/>
        <pt x="1292" y="948" on="1"/>
        <pt x="1292" y="894" on="0"/>
        <pt x="1256" y="797" on="0"/>
        <pt x="1187" y="719" on="0"/>
        <pt x="1088" y="663" on="0"/>
        <pt x="1025" y="649" on="1"/>
        <pt x="1055" y="635" on="0"/>
        <pt x="1110" y="593" on="0"/>
        <pt x="1156" y="527" on="0"/>
        <pt x="1191" y="431" on="0"/>
      </contour>
      <contour>
        <pt x="543" y="732" on="1"/>
        <pt x="698" y="732" on="1"/>
        <pt x="765" y="732" on="0"/>
        <pt x="864" y="751" on="0"/>
        <pt x="928" y="797" on="0"/>
        <pt x="960" y="871" on="0"/>
        <pt x="960" y="927" on="1"/>
        <pt x="960" y="986" on="0"/>
        <pt x="922" y="1063" on="0"/>
        <pt x="849" y="1108" on="0"/>
        <pt x="740" y="1125" on="0"/>
        <pt x="668" y="1125" on="1"/>
        <pt x="543" y="1125" on="1"/>
      </contour>
    </TTGlyph>
    <TTGlyph name="S" xMin="98" yMin="-26" xMax="1113" yMax="1333">
      <contour>
        <pt x="1064" y="943" on="1"/>
        <pt x="872" y="943" on="1"/>
        <pt x="868" y="956" on="0"/>
        <pt x="863" y="980" on="0"/>
        <pt x="860" y="992" on="1"/>
        <pt x="843" y="1081" on="0"/>
        <pt x="725" y="1176" on="0"/>
        <pt x="605" y="1176" on="1"/>
        <pt x="556" y="1176" on="0"/>
        <pt x="478" y="1152" on="0"/>
        <pt x="423" y="1108" on="0"/>
        <pt x="393" y="1048" on="0"/>
        <pt x="393" y="1011" on="1"/>
        <pt x="393" y="954" on="0"/>
        <pt x="463" y="880" on="0"/>
        <pt x="583" y="821" on="0"/>
        <pt x="741" y="766" on="0"/>
        <pt x="829" y="728" on="1"/>
        <pt x="887" y="704" on="0"/>
        <pt x="990" y="639" on="0"/>
        <pt x="1068" y="552" on="0"/>
        <pt x="1113" y="437" on="0"/>
        <pt x="1113" y="363" on="1"/>
        <pt x="1113" y="284" on="0"/>
        <pt x="1051" y="143" on="0"/>
        <pt x="936" y="36" on="0"/>
        <pt x="770" y="-26" on="0"/>
        <pt x="666" y="-26" on="1"/>
        <pt x="616" y="-26" on="0"/>
        <pt x="517" y="-9" on="0"/>
        <pt x="426" y="23" on="0"/>
        <pt x="347" y="69" on="0"/>
        <pt x="317" y="98" on="1"/>
        <pt x="317" y="0" on="1"/>
        <pt x="98" y="0" on="1"/>
        <pt x="98" y="406" on="1"/>
        <pt x="290" y="406" on="1"/>
        <pt x="296" y="380" on="0"/>
        <pt x="302" y="358" on="1"/>
        <pt x="312" y="307" on="0"/>
        <pt x="351" y="228" on="0"/>
        <pt x="417" y="174" on="0"/>
        <pt x="513" y="146" on="0"/>
        <pt x="580" y="146" on="1"/>
        <pt x="631" y="146" on="0"/>
        <pt x="714" y="170" on="0"/>
        <pt x="774" y="215" on="0"/>
        <pt x="806" y="282" on="0"/>
        <pt x="806" y="324" on="1"/>
        <pt x="806" y="381" on="0"/>
        <pt x="737" y="458" on="0"/>
        <pt x="624" y="516" on="0"/>
        <pt x="482" y="565" on="0"/>
        <pt x="409" y="595" on="1"/>
        <pt x="251" y="660" on="0"/>
        <pt x="98" y="836" on="0"/>
        <pt x="98" y="961" on="1"/>
        <pt x="98" y="1040" on="0"/>
        <pt x="157" y="1176" on="0"/>
        <pt x="270" y="1276" on="0"/>
        <pt x="432" y="1333" on="0"/>
        <pt x="536" y="1333" on="1"/>
        <pt x="626" y="1333" on="0"/>
        <pt x="801" y="1289" on="0"/>
        <pt x="878" y="1228" on="1"/>
        <pt x="878" y="1242" on="0"/>
        <pt x="877" y="1270" on="0"/>
        <pt x="877" y="1282" on="1"/>
        <pt x="877" y="1309" on="1"/>
        <pt x="883" y="1309" on="0"/>
        <pt x="924" y="1309" on="0"/>
        <pt x="979" y="1308" on="0"/>
        <pt x="1040" y="1308" on="0"/>
        <pt x="1064" y="1308" on="1"/>
      </contour>
    </TTGlyph>
    <TTGlyph name="Scaron" xMin="98" yMin="-26" xMax="1113" yMax="1791">
      <component glyphName="caron" x="173" y="400" flags="0x1004"/>
      <component glyphName="S" x="0" y="0" flags="0x1004"/>
    </TTGlyph>
    <TTGlyph name="T" xMin="57" yMin="0" xMax="1267" yMax="1308">
      <contour>
        <pt x="57" y="1308" on="1"/>
        <pt x="154" y="1307" on="0"/>
        <pt x="242" y="1307" on="1"/>
        <pt x="279" y="1307" on="0"/>
        <pt x="358" y="1306" on="0"/>
        <pt x="433" y="1306" on="0"/>
        <pt x="499" y="1306" on="0"/>
        <pt x="523" y="1306" on="1"/>
        <pt x="901" y="1306" on="1"/>
        <pt x="944" y="1306" on="0"/>
        <pt x="1039" y="1307" on="0"/>
        <pt x="1134" y="1307" on="0"/>
        <pt x="1226" y="1308" on="0"/>
        <pt x="1267" y="1308" on="1"/>
        <pt x="1267" y="866" on="1"/>
        <pt x="1109" y="866" on="1"/>
        <pt x="1109" y="1001" on="1"/>
        <pt x="1109" y="1036" on="0"/>
        <pt x="1101" y="1079" on="0"/>
        <pt x="1069" y="1103" on="0"/>
        <pt x="1006" y="1111" on="0"/>
        <pt x="952" y="1111" on="1"/>
        <pt x="827" y="1111" on="1"/>
        <pt x="827" y="255" on="1"/>
        <pt x="827" y="244" on="0"/>
        <pt x="832" y="217" on="0"/>
        <pt x="851" y="194" on="0"/>
        <pt x="890" y="178" on="0"/>
        <pt x="923" y="178" on="1"/>
        <pt x="979" y="178" on="1"/>
        <pt x="979" y="0" on="1"/>
        <pt x="942" y="0" on="0"/>
        <pt x="873" y="0" on="0"/>
        <pt x="800" y="1" on="0"/>
        <pt x="718" y="2" on="0"/>
        <pt x="667" y="2" on="1"/>
        <pt x="632" y="2" on="0"/>
        <pt x="551" y="1" on="0"/>
        <pt x="466" y="1" on="0"/>
        <pt x="384" y="0" on="0"/>
        <pt x="348" y="0" on="1"/>
        <pt x="348" y="178" on="1"/>
        <pt x="404" y="178" on="1"/>
        <pt x="441" y="178" on="0"/>
        <pt x="480" y="198" on="0"/>
        <pt x="498" y="230" on="0"/>
        <pt x="500" y="271" on="0"/>
        <pt x="500" y="291" on="1"/>
        <pt x="500" y="1111" on="1"/>
        <pt x="340" y="1111" on="1"/>
        <pt x="299" y="1111" on="0"/>
        <pt x="249" y="1104" on="0"/>
        <pt x="222" y="1086" on="0"/>
        <pt x="213" y="1056" on="0"/>
        <pt x="213" y="1033" on="1"/>
        <pt x="213" y="1022" on="0"/>
        <pt x="213" y="979" on="0"/>
        <pt x="213" y="930" on="0"/>
        <pt x="214" y="881" on="0"/>
        <pt x="214" y="866" on="1"/>
        <pt x="57" y="866" on="1"/>
      </contour>
    </TTGlyph>
    <TTGlyph name="Thorn" xMin="73" yMin="0" xMax="1300" yMax="1308">
      <contour>
        <pt x="73" y="1308" on="1"/>
        <pt x="88" y="1308" on="0"/>
        <pt x="172" y="1307" on="0"/>
        <pt x="277" y="1306" on="0"/>
        <pt x="387" y="1305" on="0"/>
        <pt x="426" y="1305" on="1"/>
        <pt x="564" y="1305" on="0"/>
        <pt x="707" y="1308" on="1"/>
        <pt x="707" y="1196" on="1"/>
        <pt x="672" y="1196" on="1"/>
        <pt x="646" y="1196" on="0"/>
        <pt x="604" y="1191" on="0"/>
        <pt x="572" y="1173" on="0"/>
        <pt x="555" y="1137" on="0"/>
        <pt x="555" y="1105" on="1"/>
        <pt x="555" y="1056" on="1"/>
        <pt x="773" y="1056" on="1"/>
        <pt x="914" y="1056" on="0"/>
        <pt x="1114" y="997" on="0"/>
        <pt x="1241" y="893" on="0"/>
        <pt x="1300" y="751" on="0"/>
        <pt x="1300" y="667" on="1"/>
        <pt x="1300" y="581" on="0"/>
        <pt x="1249" y="438" on="0"/>
        <pt x="1122" y="335" on="0"/>
        <pt x="904" y="278" on="0"/>
        <pt x="737" y="278" on="1"/>
        <pt x="555" y="278" on="1"/>
        <pt x="555" y="227" on="1"/>
        <pt x="555" y="191" on="0"/>
        <pt x="566" y="145" on="0"/>
        <pt x="593" y="120" on="0"/>
        <pt x="639" y="111" on="0"/>
        <pt x="674" y="111" on="1"/>
        <pt x="709" y="111" on="1"/>
        <pt x="709" y="0" on="1"/>
        <pt x="674" y="0" on="0"/>
        <pt x="608" y="0" on="0"/>
        <pt x="538" y="1" on="0"/>
        <pt x="459" y="2" on="0"/>
        <pt x="412" y="2" on="1"/>
        <pt x="359" y="2" on="0"/>
        <pt x="270" y="1" on="0"/>
        <pt x="189" y="1" on="0"/>
        <pt x="113" y="0" on="0"/>
        <pt x="73" y="0" on="1"/>
        <pt x="73" y="111" on="1"/>
        <pt x="112" y="111" on="1"/>
        <pt x="154" y="111" on="0"/>
        <pt x="202" y="134" on="0"/>
        <pt x="224" y="175" on="0"/>
        <pt x="229" y="229" on="0"/>
        <pt x="229" y="259" on="1"/>
        <pt x="229" y="279" on="0"/>
        <pt x="227" y="322" on="0"/>
        <pt x="227" y="343" on="1"/>
        <pt x="227" y="1059" on="1"/>
        <pt x="227" y="1087" on="0"/>
        <pt x="218" y="1137" on="0"/>
        <pt x="197" y="1174" on="0"/>
        <pt x="161" y="1196" on="0"/>
        <pt x="133" y="1196" on="1"/>
        <pt x="73" y="1196" on="1"/>
      </contour>
      <contour>
        <pt x="555" y="458" on="1"/>
        <pt x="713" y="458" on="1"/>
        <pt x="847" y="458" on="0"/>
        <pt x="968" y="568" on="0"/>
        <pt x="968" y="671" on="1"/>
        <pt x="968" y="773" on="0"/>
        <pt x="842" y="873" on="0"/>
        <pt x="698" y="873" on="1"/>
        <pt x="555" y="873" on="1"/>
      </contour>
    </TTGlyph>
    <TTGlyph name="U" xMin="47" yMin="-26" xMax="1367" yMax="1308">
      <contour>
        <pt x="47" y="1308" on="1"/>
        <pt x="62" y="1308" on="0"/>
        <pt x="127" y="1307" on="0"/>
        <pt x="203" y="1306" on="0"/>
        <pt x="280" y="1305" on="0"/>
        <pt x="308" y="1305" on="1"/>
        <pt x="347" y="1305" on="0"/>
        <pt x="422" y="1305" on="0"/>
        <pt x="500" y="1306" on="0"/>
        <pt x="585" y="1307" on="0"/>
        <pt x="633" y="1308" on="1"/>
        <pt x="633" y="1130" on="1"/>
        <pt x="600" y="1130" on="1"/>
        <pt x="564" y="1130" on="0"/>
        <pt x="525" y="1111" on="0"/>
        <pt x="506" y="1080" on="0"/>
        <pt x="502" y="1039" on="0"/>
        <pt x="502" y="1018" on="1"/>
        <pt x="502" y="497" on="1"/>
        <pt x="502" y="417" on="0"/>
        <pt x="527" y="294" on="0"/>
        <pt x="587" y="211" on="0"/>
        <pt x="689" y="168" on="0"/>
        <pt x="766" y="168" on="1"/>
        <pt x="836" y="168" on="0"/>
        <pt x="928" y="208" on="0"/>
        <pt x="982" y="288" on="0"/>
        <pt x="1004" y="406" on="0"/>
        <pt x="1004" y="484" on="1"/>
        <pt x="1004" y="1026" on="1"/>
        <pt x="1004" y="1045" on="0"/>
        <pt x="1000" y="1082" on="0"/>
        <pt x="980" y="1112" on="0"/>
        <pt x="939" y="1130" on="0"/>
        <pt x="903" y="1130" on="1"/>
        <pt x="867" y="1130" on="1"/>
        <pt x="867" y="1308" on="1"/>
        <pt x="880" y="1307" on="0"/>
        <pt x="946" y="1306" on="0"/>
        <pt x="1026" y="1306" on="0"/>
        <pt x="1106" y="1306" on="0"/>
        <pt x="1135" y="1306" on="1"/>
        <pt x="1151" y="1306" on="0"/>
        <pt x="1203" y="1306" on="0"/>
        <pt x="1266" y="1307" on="0"/>
        <pt x="1335" y="1308" on="0"/>
        <pt x="1367" y="1308" on="1"/>
        <pt x="1367" y="1130" on="1"/>
        <pt x="1320" y="1130" on="1"/>
        <pt x="1285" y="1130" on="0"/>
        <pt x="1250" y="1107" on="0"/>
        <pt x="1235" y="1073" on="0"/>
        <pt x="1235" y="1034" on="0"/>
        <pt x="1235" y="1018" on="1"/>
        <pt x="1235" y="500" on="1"/>
        <pt x="1235" y="371" on="0"/>
        <pt x="1177" y="174" on="0"/>
        <pt x="1052" y="41" on="0"/>
        <pt x="853" y="-26" on="0"/>
        <pt x="712" y="-26" on="1"/>
        <pt x="570" y="-26" on="0"/>
        <pt x="367" y="37" on="0"/>
        <pt x="238" y="166" on="0"/>
        <pt x="178" y="361" on="0"/>
        <pt x="178" y="493" on="1"/>
        <pt x="178" y="1053" on="1"/>
        <pt x="178" y="1064" on="0"/>
        <pt x="174" y="1091" on="0"/>
        <pt x="156" y="1114" on="0"/>
        <pt x="121" y="1130" on="0"/>
        <pt x="90" y="1130" on="1"/>
        <pt x="47" y="1130" on="1"/>
      </contour>
    </TTGlyph>
    <TTGlyph name="Uacute" xMin="47" yMin="-26" xMax="1367" yMax="1805">
      <component glyphName="acute" x="208" y="400" flags="0x1004"/>
      <component glyphName="U" x="0" y="0" flags="0x1004"/>
    </TTGlyph>
    <TTGlyph name="Ucircumflex" xMin="47" yMin="-26" xMax="1367" yMax="1790">
      <component glyphName="circumflex" x="279" y="400" flags="0x1004"/>
      <component glyphName="U" x="0" y="0" flags="0x1004"/>
    </TTGlyph>
    <TTGlyph name="Udieresis" xMin="47" yMin="-26" xMax="1367" yMax="1759">
      <component glyphName="dieresis" x="279" y="400" flags="0x1004"/>
      <component glyphName="U" x="0" y="0" flags="0x1004"/>
    </TTGlyph>
    <TTGlyph name="Ugrave" xMin="47" yMin="-26" xMax="1367" yMax="1808">
      <component glyphName="U" x="0" y="0" flags="0x1204"/>
      <component glyphName="grave" x="351" y="400" flags="0x1004"/>
    </TTGlyph>
    <TTGlyph name="V" xMin="3" yMin="-15" xMax="1401" yMax="1308">
      <contour>
        <pt x="453" y="1043" on="1"/>
        <pt x="456" y="1033" on="0"/>
        <pt x="483" y="960" on="0"/>
        <pt x="524" y="852" on="0"/>
        <pt x="574" y="719" on="0"/>
        <pt x="626" y="581" on="0"/>
        <pt x="677" y="448" on="0"/>
        <pt x="718" y="340" on="0"/>
        <pt x="745" y="267" on="0"/>
        <pt x="749" y="258" on="1"/>
        <pt x="1028" y="1040" on="1"/>
        <pt x="1033" y="1056" on="0"/>
        <pt x="1040" y="1080" on="0"/>
        <pt x="1040" y="1088" on="1"/>
        <pt x="1040" y="1113" on="0"/>
        <pt x="993" y="1127" on="0"/>
        <pt x="943" y="1129" on="1"/>
        <pt x="938" y="1129" on="0"/>
        <pt x="907" y="1129" on="0"/>
        <pt x="902" y="1130" on="1"/>
        <pt x="902" y="1308" on="1"/>
        <pt x="960" y="1307" on="0"/>
        <pt x="1011" y="1307" on="1"/>
        <pt x="1032" y="1307" on="0"/>
        <pt x="1076" y="1306" on="0"/>
        <pt x="1115" y="1306" on="0"/>
        <pt x="1147" y="1306" on="0"/>
        <pt x="1156" y="1306" on="1"/>
        <pt x="1213" y="1306" on="0"/>
        <pt x="1331" y="1306" on="0"/>
        <pt x="1401" y="1308" on="1"/>
        <pt x="1401" y="1130" on="1"/>
        <pt x="1359" y="1130" on="0"/>
        <pt x="1306" y="1105" on="0"/>
        <pt x="1265" y="1047" on="0"/>
        <pt x="1228" y="952" on="0"/>
        <pt x="1202" y="882" on="1"/>
        <pt x="864" y="-15" on="1"/>
        <pt x="563" y="-15" on="1"/>
        <pt x="159" y="991" on="1"/>
        <pt x="145" y="1025" on="0"/>
        <pt x="122" y="1077" on="0"/>
        <pt x="89" y="1112" on="0"/>
        <pt x="41" y="1130" on="0"/>
        <pt x="3" y="1130" on="1"/>
        <pt x="3" y="1308" on="1"/>
        <pt x="11" y="1308" on="0"/>
        <pt x="60" y="1307" on="0"/>
        <pt x="121" y="1306" on="0"/>
        <pt x="183" y="1305" on="0"/>
        <pt x="205" y="1305" on="1"/>
        <pt x="218" y="1305" on="0"/>
        <pt x="264" y="1305" on="0"/>
        <pt x="321" y="1305" on="0"/>
        <pt x="387" y="1306" on="0"/>
        <pt x="419" y="1306" on="1"/>
        <pt x="495" y="1307" on="0"/>
        <pt x="582" y="1308" on="1"/>
        <pt x="582" y="1130" on="1"/>
        <pt x="553" y="1129" on="0"/>
        <pt x="503" y="1127" on="0"/>
        <pt x="466" y="1118" on="0"/>
        <pt x="445" y="1099" on="0"/>
        <pt x="445" y="1081" on="1"/>
        <pt x="445" y="1074" on="0"/>
        <pt x="448" y="1055" on="0"/>
      </contour>
    </TTGlyph>
    <TTGlyph name="W" xMin="6" yMin="-15" xMax="2016" yMax="1308">
      <contour>
        <pt x="164" y="956" on="1"/>
        <pt x="146" y="1017" on="0"/>
        <pt x="126" y="1087" on="0"/>
        <pt x="99" y="1121" on="0"/>
        <pt x="52" y="1130" on="0"/>
        <pt x="6" y="1130" on="1"/>
        <pt x="6" y="1308" on="1"/>
        <pt x="70" y="1307" on="0"/>
        <pt x="127" y="1307" on="1"/>
        <pt x="151" y="1307" on="0"/>
        <pt x="202" y="1306" on="0"/>
        <pt x="248" y="1306" on="0"/>
        <pt x="287" y="1306" on="0"/>
        <pt x="300" y="1306" on="1"/>
        <pt x="357" y="1306" on="0"/>
        <pt x="487" y="1307" on="0"/>
        <pt x="574" y="1308" on="1"/>
        <pt x="574" y="1130" on="1"/>
        <pt x="498" y="1128" on="0"/>
        <pt x="463" y="1120" on="1"/>
        <pt x="445" y="1105" on="0"/>
        <pt x="445" y="1074" on="1"/>
        <pt x="445" y="1061" on="0"/>
        <pt x="449" y="1029" on="0"/>
        <pt x="454" y="1011" on="1"/>
        <pt x="463" y="979" on="0"/>
        <pt x="494" y="857" on="0"/>
        <pt x="531" y="707" on="0"/>
        <pt x="572" y="542" on="0"/>
        <pt x="609" y="392" on="0"/>
        <pt x="640" y="270" on="0"/>
        <pt x="649" y="238" on="1"/>
        <pt x="911" y="1230" on="1"/>
        <pt x="1177" y="1230" on="1"/>
        <pt x="1445" y="237" on="1"/>
        <pt x="1641" y="1028" on="1"/>
        <pt x="1645" y="1045" on="0"/>
        <pt x="1652" y="1073" on="0"/>
        <pt x="1654" y="1086" on="1"/>
        <pt x="1649" y="1106" on="0"/>
        <pt x="1607" y="1126" on="0"/>
        <pt x="1561" y="1128" on="1"/>
        <pt x="1556" y="1129" on="0"/>
        <pt x="1527" y="1129" on="0"/>
        <pt x="1522" y="1130" on="1"/>
        <pt x="1522" y="1308" on="1"/>
        <pt x="1601" y="1307" on="0"/>
        <pt x="1719" y="1306" on="0"/>
        <pt x="1770" y="1306" on="1"/>
        <pt x="1793" y="1306" on="0"/>
        <pt x="1866" y="1306" on="0"/>
        <pt x="1940" y="1307" on="0"/>
        <pt x="2003" y="1308" on="0"/>
        <pt x="2016" y="1308" on="1"/>
        <pt x="2016" y="1130" on="1"/>
        <pt x="1980" y="1129" on="0"/>
        <pt x="1931" y="1118" on="0"/>
        <pt x="1895" y="1086" on="0"/>
        <pt x="1866" y="1024" on="0"/>
        <pt x="1850" y="972" on="1"/>
        <pt x="1844" y="956" on="0"/>
        <pt x="1821" y="878" on="0"/>
        <pt x="1788" y="767" on="0"/>
        <pt x="1749" y="631" on="0"/>
        <pt x="1706" y="481" on="0"/>
        <pt x="1661" y="326" on="0"/>
        <pt x="1618" y="176" on="0"/>
        <pt x="1578" y="40" on="0"/>
        <pt x="1561" y="-15" on="1"/>
        <pt x="1253" y="-15" on="1"/>
        <pt x="1013" y="936" on="1"/>
        <pt x="771" y="-15" on="1"/>
        <pt x="454" y="-15" on="1"/>
      </contour>
    </TTGlyph>
    <TTGlyph name="X" xMin="33" yMin="0" xMax="1617" yMax="1308">
      <contour>
        <pt x="43" y="1308" on="1"/>
        <pt x="106" y="1307" on="0"/>
        <pt x="189" y="1307" on="0"/>
        <pt x="257" y="1307" on="0"/>
        <pt x="327" y="1307" on="0"/>
        <pt x="377" y="1307" on="1"/>
        <pt x="405" y="1306" on="0"/>
        <pt x="494" y="1306" on="0"/>
        <pt x="592" y="1306" on="0"/>
        <pt x="688" y="1308" on="0"/>
        <pt x="724" y="1308" on="1"/>
        <pt x="724" y="1130" on="1"/>
        <pt x="681" y="1130" on="1"/>
        <pt x="641" y="1130" on="0"/>
        <pt x="597" y="1122" on="0"/>
        <pt x="597" y="1104" on="1"/>
        <pt x="597" y="1096" on="0"/>
        <pt x="632" y="1053" on="0"/>
        <pt x="654" y="1030" on="1"/>
        <pt x="848" y="818" on="1"/>
        <pt x="848" y="818" on="0"/>
        <pt x="871" y="846" on="0"/>
        <pt x="908" y="889" on="0"/>
        <pt x="953" y="941" on="0"/>
        <pt x="995" y="992" on="0"/>
        <pt x="1030" y="1035" on="0"/>
        <pt x="1038" y="1047" on="1"/>
        <pt x="1058" y="1072" on="0"/>
        <pt x="1086" y="1100" on="0"/>
        <pt x="1086" y="1104" on="1"/>
        <pt x="1086" y="1121" on="0"/>
        <pt x="1019" y="1128" on="0"/>
        <pt x="954" y="1130" on="1"/>
        <pt x="954" y="1308" on="1"/>
        <pt x="994" y="1308" on="0"/>
        <pt x="1081" y="1306" on="0"/>
        <pt x="1164" y="1305" on="0"/>
        <pt x="1238" y="1305" on="0"/>
        <pt x="1265" y="1306" on="1"/>
        <pt x="1342" y="1306" on="0"/>
        <pt x="1494" y="1306" on="0"/>
        <pt x="1585" y="1308" on="1"/>
        <pt x="1583" y="1146" on="1"/>
        <pt x="1541" y="1146" on="0"/>
        <pt x="1477" y="1142" on="0"/>
        <pt x="1427" y="1130" on="0"/>
        <pt x="1388" y="1106" on="0"/>
        <pt x="1372" y="1085" on="1"/>
        <pt x="1370" y="1084" on="0"/>
        <pt x="1338" y="1048" on="0"/>
        <pt x="1286" y="991" on="0"/>
        <pt x="1222" y="920" on="0"/>
        <pt x="1154" y="845" on="0"/>
        <pt x="1090" y="775" on="0"/>
        <pt x="1040" y="719" on="0"/>
        <pt x="1025" y="702" on="1"/>
        <pt x="1010" y="686" on="1"/>
        <pt x="1359" y="313" on="1"/>
        <pt x="1390" y="278" on="0"/>
        <pt x="1440" y="227" on="0"/>
        <pt x="1496" y="193" on="0"/>
        <pt x="1566" y="177" on="0"/>
        <pt x="1617" y="177" on="1"/>
        <pt x="1617" y="0" on="1"/>
        <pt x="1535" y="1" on="0"/>
        <pt x="1374" y="3" on="0"/>
        <pt x="1281" y="3" on="1"/>
        <pt x="1177" y="3" on="0"/>
        <pt x="994" y="1" on="0"/>
        <pt x="901" y="0" on="1"/>
        <pt x="901" y="45" on="0"/>
        <pt x="900" y="132" on="0"/>
        <pt x="900" y="177" on="1"/>
        <pt x="962" y="177" on="0"/>
        <pt x="1039" y="189" on="0"/>
        <pt x="1039" y="212" on="1"/>
        <pt x="1039" y="217" on="0"/>
        <pt x="1025" y="238" on="0"/>
        <pt x="1004" y="265" on="0"/>
        <pt x="978" y="295" on="0"/>
        <pt x="965" y="310" on="1"/>
        <pt x="792" y="517" on="1"/>
        <pt x="608" y="306" on="1"/>
        <pt x="571" y="266" on="0"/>
        <pt x="541" y="220" on="0"/>
        <pt x="541" y="209" on="1"/>
        <pt x="541" y="197" on="0"/>
        <pt x="562" y="184" on="0"/>
        <pt x="600" y="178" on="0"/>
        <pt x="652" y="177" on="0"/>
        <pt x="683" y="177" on="1"/>
        <pt x="683" y="0" on="1"/>
        <pt x="569" y="0" on="0"/>
        <pt x="381" y="2" on="0"/>
        <pt x="318" y="2" on="1"/>
        <pt x="292" y="2" on="0"/>
        <pt x="241" y="2" on="0"/>
        <pt x="177" y="1" on="0"/>
        <pt x="93" y="0" on="0"/>
        <pt x="33" y="0" on="1"/>
        <pt x="33" y="178" on="1"/>
        <pt x="72" y="178" on="0"/>
        <pt x="127" y="184" on="0"/>
        <pt x="180" y="206" on="0"/>
        <pt x="237" y="252" on="0"/>
        <pt x="277" y="291" on="1"/>
        <pt x="618" y="646" on="1"/>
        <pt x="285" y="1007" on="1"/>
        <pt x="243" y="1052" on="0"/>
        <pt x="189" y="1101" on="0"/>
        <pt x="141" y="1124" on="0"/>
        <pt x="86" y="1129" on="0"/>
        <pt x="43" y="1130" on="1"/>
      </contour>
    </TTGlyph>
    <TTGlyph name="Y" xMin="16" yMin="0" xMax="1303" yMax="1308">
      <contour>
        <pt x="16" y="1308" on="1"/>
        <pt x="23" y="1308" on="0"/>
        <pt x="67" y="1307" on="0"/>
        <pt x="123" y="1306" on="0"/>
        <pt x="179" y="1305" on="0"/>
        <pt x="197" y="1305" on="1"/>
        <pt x="243" y="1305" on="0"/>
        <pt x="329" y="1306" on="0"/>
        <pt x="424" y="1307" on="0"/>
        <pt x="532" y="1308" on="0"/>
        <pt x="599" y="1308" on="1"/>
        <pt x="599" y="1130" on="1"/>
        <pt x="568" y="1130" on="1"/>
        <pt x="519" y="1130" on="0"/>
        <pt x="477" y="1115" on="0"/>
        <pt x="477" y="1095" on="1"/>
        <pt x="480" y="1089" on="0"/>
        <pt x="489" y="1070" on="0"/>
        <pt x="500" y="1048" on="0"/>
        <pt x="510" y="1026" on="0"/>
        <pt x="515" y="1019" on="1"/>
        <pt x="521" y="1007" on="0"/>
        <pt x="550" y="956" on="0"/>
        <pt x="587" y="892" on="0"/>
        <pt x="628" y="822" on="0"/>
        <pt x="665" y="758" on="0"/>
        <pt x="693" y="707" on="0"/>
        <pt x="699" y="695" on="1"/>
        <pt x="896" y="1022" on="1"/>
        <pt x="911" y="1047" on="0"/>
        <pt x="931" y="1085" on="0"/>
        <pt x="933" y="1099" on="1"/>
        <pt x="929" y="1115" on="0"/>
        <pt x="889" y="1127" on="0"/>
        <pt x="847" y="1129" on="1"/>
        <pt x="843" y="1129" on="0"/>
        <pt x="821" y="1130" on="0"/>
        <pt x="816" y="1130" on="1"/>
        <pt x="816" y="1308" on="1"/>
        <pt x="875" y="1307" on="0"/>
        <pt x="928" y="1307" on="1"/>
        <pt x="950" y="1307" on="0"/>
        <pt x="997" y="1306" on="0"/>
        <pt x="1039" y="1306" on="0"/>
        <pt x="1073" y="1306" on="0"/>
        <pt x="1084" y="1306" on="1"/>
        <pt x="1132" y="1306" on="0"/>
        <pt x="1235" y="1306" on="0"/>
        <pt x="1303" y="1308" on="1"/>
        <pt x="1303" y="1130" on="1"/>
        <pt x="1270" y="1130" on="0"/>
        <pt x="1230" y="1123" on="0"/>
        <pt x="1199" y="1104" on="0"/>
        <pt x="1171" y="1067" on="0"/>
        <pt x="1151" y="1037" on="1"/>
        <pt x="1126" y="1002" on="0"/>
        <pt x="1066" y="912" on="0"/>
        <pt x="1002" y="815" on="0"/>
        <pt x="938" y="716" on="0"/>
        <pt x="881" y="627" on="0"/>
        <pt x="834" y="554" on="0"/>
        <pt x="819" y="532" on="1"/>
        <pt x="819" y="270" on="1"/>
        <pt x="819" y="247" on="0"/>
        <pt x="823" y="213" on="0"/>
        <pt x="843" y="190" on="0"/>
        <pt x="882" y="178" on="0"/>
        <pt x="918" y="178" on="1"/>
        <pt x="967" y="178" on="1"/>
        <pt x="967" y="0" on="1"/>
        <pt x="930" y="0" on="0"/>
        <pt x="859" y="0" on="0"/>
        <pt x="783" y="1" on="0"/>
        <pt x="699" y="2" on="0"/>
        <pt x="649" y="2" on="1"/>
        <pt x="619" y="2" on="0"/>
        <pt x="534" y="1" on="0"/>
        <pt x="447" y="1" on="0"/>
        <pt x="371" y="0" on="0"/>
        <pt x="352" y="0" on="1"/>
        <pt x="352" y="178" on="1"/>
        <pt x="400" y="178" on="1"/>
        <pt x="439" y="178" on="0"/>
        <pt x="479" y="197" on="0"/>
        <pt x="497" y="225" on="0"/>
        <pt x="498" y="256" on="0"/>
        <pt x="498" y="268" on="1"/>
        <pt x="498" y="534" on="1"/>
        <pt x="483" y="556" on="0"/>
        <pt x="434" y="633" on="0"/>
        <pt x="375" y="726" on="0"/>
        <pt x="310" y="828" on="0"/>
        <pt x="251" y="921" on="0"/>
        <pt x="202" y="998" on="0"/>
        <pt x="188" y="1021" on="1"/>
        <pt x="164" y="1058" on="0"/>
        <pt x="135" y="1100" on="0"/>
        <pt x="102" y="1123" on="0"/>
        <pt x="56" y="1129" on="0"/>
        <pt x="17" y="1130" on="1"/>
        <pt x="17" y="1174" on="0"/>
        <pt x="16" y="1263" on="0"/>
      </contour>
    </TTGlyph>
    <TTGlyph name="Yacute" xMin="16" yMin="0" xMax="1303" yMax="1809">
      <component glyphName="Y" x="0" y="0" flags="0x1204"/>
      <component glyphName="acute" x="159" y="404" flags="0x1004"/>
    </TTGlyph>
    <TTGlyph name="Ydieresis" xMin="16" yMin="0" xMax="1303" yMax="1759">
      <component glyphName="Y" x="0" y="0" flags="0x1204"/>
      <component glyphName="dieresis" x="234" y="400" flags="0x1004"/>
    </TTGlyph>
    <TTGlyph name="Z" xMin="52" yMin="0" xMax="1214" yMax="1306">
      <contour>
        <pt x="1193" y="1306" on="1"/>
        <pt x="1193" y="1111" on="1"/>
        <pt x="427" y="183" on="1"/>
        <pt x="911" y="183" on="1"/>
        <pt x="949" y="183" on="0"/>
        <pt x="995" y="205" on="0"/>
        <pt x="1019" y="256" on="0"/>
        <pt x="1027" y="340" on="0"/>
        <pt x="1027" y="401" on="1"/>
        <pt x="1214" y="401" on="1"/>
        <pt x="1214" y="0" on="1"/>
        <pt x="52" y="0" on="1"/>
        <pt x="52" y="204" on="1"/>
        <pt x="809" y="1122" on="1"/>
        <pt x="429" y="1122" on="1"/>
        <pt x="373" y="1122" on="0"/>
        <pt x="306" y="1120" on="0"/>
        <pt x="271" y="1104" on="0"/>
        <pt x="260" y="1066" on="0"/>
        <pt x="260" y="1029" on="1"/>
        <pt x="260" y="923" on="1"/>
        <pt x="75" y="923" on="1"/>
        <pt x="75" y="1306" on="1"/>
      </contour>
    </TTGlyph>
    <TTGlyph name="Zcaron" xMin="52" yMin="0" xMax="1214" yMax="1791">
      <component glyphName="caron" x="207" y="400" flags="0x1004"/>
      <component glyphName="Z" x="0" y="0" flags="0x1004"/>
    </TTGlyph>
    <TTGlyph name="a" xMin="63" yMin="-23" xMax="1176" yMax="936">
      <contour>
        <pt x="1050" y="272" on="1"/>
        <pt x="1050" y="231" on="0"/>
        <pt x="1055" y="185" on="0"/>
        <pt x="1072" y="164" on="0"/>
        <pt x="1102" y="160" on="0"/>
        <pt x="1128" y="160" on="1"/>
        <pt x="1176" y="160" on="1"/>
        <pt x="1176" y="0" on="1"/>
        <pt x="1168" y="0" on="0"/>
        <pt x="1114" y="0" on="0"/>
        <pt x="1050" y="1" on="0"/>
        <pt x="991" y="1" on="0"/>
        <pt x="979" y="1" on="1"/>
        <pt x="951" y="1" on="0"/>
        <pt x="905" y="0" on="0"/>
        <pt x="862" y="-1" on="0"/>
        <pt x="816" y="-2" on="0"/>
        <pt x="788" y="-3" on="1"/>
        <pt x="758" y="127" on="1"/>
        <pt x="736" y="92" on="0"/>
        <pt x="676" y="37" on="0"/>
        <pt x="592" y="-2" on="0"/>
        <pt x="482" y="-23" on="0"/>
        <pt x="411" y="-23" on="1"/>
        <pt x="325" y="-23" on="0"/>
        <pt x="194" y="22" on="0"/>
        <pt x="107" y="98" on="0"/>
        <pt x="63" y="201" on="0"/>
        <pt x="63" y="259" on="1"/>
        <pt x="63" y="326" on="0"/>
        <pt x="122" y="434" on="0"/>
        <pt x="233" y="509" on="0"/>
        <pt x="391" y="550" on="0"/>
        <pt x="491" y="550" on="1"/>
        <pt x="556" y="550" on="0"/>
        <pt x="686" y="535" on="0"/>
        <pt x="744" y="520" on="1"/>
        <pt x="744" y="635" on="1"/>
        <pt x="744" y="711" on="0"/>
        <pt x="639" y="801" on="0"/>
        <pt x="529" y="801" on="1"/>
        <pt x="347" y="801" on="0"/>
        <pt x="312" y="656" on="1"/>
        <pt x="147" y="671" on="1"/>
        <pt x="153" y="871" on="1"/>
        <pt x="168" y="878" on="0"/>
        <pt x="236" y="900" on="0"/>
        <pt x="340" y="921" on="0"/>
        <pt x="476" y="936" on="0"/>
        <pt x="559" y="936" on="1"/>
        <pt x="689" y="936" on="0"/>
        <pt x="875" y="899" on="0"/>
        <pt x="994" y="819" on="0"/>
        <pt x="1050" y="692" on="0"/>
        <pt x="1050" y="601" on="1"/>
      </contour>
      <contour>
        <pt x="578" y="446" on="1"/>
        <pt x="473" y="446" on="0"/>
        <pt x="357" y="360" on="0"/>
        <pt x="357" y="282" on="1"/>
        <pt x="357" y="245" on="0"/>
        <pt x="383" y="200" on="0"/>
        <pt x="428" y="159" on="0"/>
        <pt x="491" y="137" on="0"/>
        <pt x="527" y="137" on="1"/>
        <pt x="576" y="137" on="0"/>
        <pt x="656" y="163" on="0"/>
        <pt x="713" y="214" on="0"/>
        <pt x="744" y="274" on="0"/>
        <pt x="744" y="321" on="1"/>
        <pt x="744" y="424" on="1"/>
        <pt x="702" y="436" on="0"/>
        <pt x="620" y="446" on="0"/>
      </contour>
    </TTGlyph>
    <TTGlyph name="aacute" xMin="63" yMin="-23" xMax="1176" yMax="1405">
      <component glyphName="a" x="0" y="0" flags="0x1204"/>
      <component glyphName="acute" x="104" y="0" flags="0x1004"/>
    </TTGlyph>
    <TTGlyph name="acircumflex" xMin="63" yMin="-23" xMax="1176" yMax="1390">
      <component glyphName="a" x="0" y="0" flags="0x1204"/>
      <component glyphName="circumflex" x="175" y="0" flags="0x1004"/>
    </TTGlyph>
    <TTGlyph name="acute" xMin="242" yMin="1048" xMax="743" yMax="1405">
      <contour>
        <pt x="458" y="1338" on="1"/>
        <pt x="481" y="1369" on="0"/>
        <pt x="551" y="1405" on="0"/>
        <pt x="589" y="1405" on="1"/>
        <pt x="620" y="1405" on="0"/>
        <pt x="680" y="1388" on="0"/>
        <pt x="726" y="1366" on="0"/>
        <pt x="749" y="1343" on="0"/>
        <pt x="743" y="1337" on="1"/>
        <pt x="381" y="1048" on="1"/>
        <pt x="242" y="1048" on="1"/>
      </contour>
    </TTGlyph>
    <TTGlyph name="adieresis" xMin="63" yMin="-23" xMax="1176" yMax="1359">
      <component glyphName="a" x="0" y="0" flags="0x1204"/>
      <component glyphName="dieresis" x="174" y="0" flags="0x1004"/>
    </TTGlyph>
    <TTGlyph name="ae" xMin="69" yMin="-30" xMax="1790" yMax="936">
      <contour>
        <pt x="852" y="152" on="1"/>
        <pt x="769" y="56" on="0"/>
        <pt x="559" y="-27" on="0"/>
        <pt x="426" y="-27" on="1"/>
        <pt x="346" y="-27" on="0"/>
        <pt x="214" y="13" on="0"/>
        <pt x="120" y="87" on="0"/>
        <pt x="69" y="191" on="0"/>
        <pt x="69" y="256" on="1"/>
        <pt x="69" y="322" on="0"/>
        <pt x="129" y="428" on="0"/>
        <pt x="241" y="503" on="0"/>
        <pt x="398" y="544" on="0"/>
        <pt x="496" y="544" on="1"/>
        <pt x="559" y="544" on="0"/>
        <pt x="691" y="530" on="0"/>
        <pt x="752" y="517" on="1"/>
        <pt x="752" y="618" on="1"/>
        <pt x="750" y="667" on="0"/>
        <pt x="727" y="738" on="0"/>
        <pt x="677" y="784" on="0"/>
        <pt x="597" y="807" on="0"/>
        <pt x="539" y="807" on="1"/>
        <pt x="436" y="807" on="0"/>
        <pt x="331" y="735" on="0"/>
        <pt x="322" y="657" on="1"/>
        <pt x="121" y="670" on="1"/>
        <pt x="137" y="869" on="1"/>
        <pt x="314" y="936" on="0"/>
        <pt x="569" y="936" on="1"/>
        <pt x="697" y="936" on="0"/>
        <pt x="886" y="874" on="0"/>
        <pt x="940" y="811" on="1"/>
        <pt x="1000" y="868" on="0"/>
        <pt x="1179" y="936" on="0"/>
        <pt x="1280" y="936" on="1"/>
        <pt x="1406" y="936" on="0"/>
        <pt x="1597" y="867" on="0"/>
        <pt x="1725" y="735" on="0"/>
        <pt x="1790" y="544" on="0"/>
        <pt x="1790" y="423" on="1"/>
        <pt x="1730" y="414" on="1"/>
        <pt x="1062" y="414" on="1"/>
        <pt x="1064" y="272" on="0"/>
        <pt x="1193" y="114" on="0"/>
        <pt x="1319" y="114" on="1"/>
        <pt x="1481" y="114" on="0"/>
        <pt x="1535" y="271" on="1"/>
        <pt x="1771" y="252" on="1"/>
        <pt x="1732" y="115" on="0"/>
        <pt x="1488" y="-30" on="0"/>
        <pt x="1298" y="-30" on="1"/>
        <pt x="998" y="-30" on="0"/>
      </contour>
      <contour>
        <pt x="752" y="413" on="1"/>
        <pt x="710" y="422" on="0"/>
        <pt x="619" y="434" on="0"/>
        <pt x="576" y="434" on="1"/>
        <pt x="477" y="434" on="0"/>
        <pt x="363" y="348" on="0"/>
        <pt x="363" y="268" on="1"/>
        <pt x="363" y="233" on="0"/>
        <pt x="388" y="173" on="0"/>
        <pt x="433" y="130" on="0"/>
        <pt x="495" y="105" on="0"/>
        <pt x="533" y="104" on="1"/>
        <pt x="639" y="104" on="0"/>
        <pt x="752" y="215" on="0"/>
        <pt x="752" y="335" on="1"/>
      </contour>
      <contour>
        <pt x="1500" y="516" on="1"/>
        <pt x="1500" y="525" on="0"/>
        <pt x="1500" y="543" on="0"/>
        <pt x="1499" y="552" on="1"/>
        <pt x="1491" y="667" on="0"/>
        <pt x="1385" y="795" on="0"/>
        <pt x="1288" y="795" on="1"/>
        <pt x="1184" y="795" on="0"/>
        <pt x="1071" y="649" on="0"/>
        <pt x="1062" y="516" on="1"/>
      </contour>
    </TTGlyph>
    <TTGlyph name="agrave" xMin="63" yMin="-23" xMax="1176" yMax="1408">
      <component glyphName="a" x="0" y="0" flags="0x1204"/>
      <component glyphName="grave" x="247" y="0" flags="0x1004"/>
    </TTGlyph>
    <TTGlyph name="ampersand" xMin="100" yMin="-26" xMax="1650" yMax="1358">
      <contour>
        <pt x="1385" y="1074" on="1"/>
        <pt x="1385" y="842" on="1"/>
        <pt x="1630" y="842" on="1"/>
        <pt x="1630" y="703" on="1"/>
        <pt x="1386" y="703" on="1"/>
        <pt x="1386" y="342" on="1"/>
        <pt x="1386" y="298" on="0"/>
        <pt x="1392" y="233" on="0"/>
        <pt x="1410" y="190" on="0"/>
        <pt x="1444" y="168" on="0"/>
        <pt x="1472" y="168" on="1"/>
        <pt x="1539" y="168" on="0"/>
        <pt x="1539" y="261" on="1"/>
        <pt x="1650" y="275" on="1"/>
        <pt x="1650" y="244" on="1"/>
        <pt x="1648" y="169" on="0"/>
        <pt x="1611" y="66" on="0"/>
        <pt x="1541" y="2" on="0"/>
        <pt x="1440" y="-26" on="0"/>
        <pt x="1376" y="-26" on="1"/>
        <pt x="1193" y="-26" on="0"/>
        <pt x="1125" y="85" on="1"/>
        <pt x="1022" y="30" on="0"/>
        <pt x="806" y="-26" on="0"/>
        <pt x="680" y="-26" on="1"/>
        <pt x="544" y="-26" on="0"/>
        <pt x="329" y="33" on="0"/>
        <pt x="179" y="143" on="0"/>
        <pt x="100" y="300" on="0"/>
        <pt x="100" y="397" on="1"/>
        <pt x="100" y="466" on="0"/>
        <pt x="140" y="588" on="0"/>
        <pt x="215" y="692" on="0"/>
        <pt x="322" y="778" on="0"/>
        <pt x="388" y="811" on="1"/>
        <pt x="337" y="861" on="0"/>
        <pt x="298" y="969" on="0"/>
        <pt x="298" y="1017" on="1"/>
        <pt x="298" y="1097" on="0"/>
        <pt x="358" y="1223" on="0"/>
        <pt x="471" y="1311" on="0"/>
        <pt x="631" y="1358" on="0"/>
        <pt x="731" y="1358" on="1"/>
        <pt x="798" y="1358" on="0"/>
        <pt x="909" y="1342" on="0"/>
        <pt x="995" y="1321" on="0"/>
        <pt x="1052" y="1299" on="0"/>
        <pt x="1065" y="1292" on="1"/>
        <pt x="1071" y="1073" on="1"/>
        <pt x="905" y="1058" on="1"/>
        <pt x="902" y="1095" on="0"/>
        <pt x="873" y="1149" on="0"/>
        <pt x="828" y="1184" on="0"/>
        <pt x="770" y="1201" on="0"/>
        <pt x="739" y="1201" on="1"/>
        <pt x="695" y="1201" on="0"/>
        <pt x="618" y="1179" on="0"/>
        <pt x="560" y="1136" on="0"/>
        <pt x="526" y="1075" on="0"/>
        <pt x="526" y="1036" on="1"/>
        <pt x="526" y="1016" on="0"/>
        <pt x="530" y="972" on="0"/>
        <pt x="547" y="924" on="0"/>
        <pt x="578" y="871" on="0"/>
        <pt x="605" y="841" on="1"/>
        <pt x="1102" y="842" on="1"/>
        <pt x="1102" y="845" on="0"/>
        <pt x="1104" y="864" on="0"/>
        <pt x="1107" y="893" on="0"/>
        <pt x="1111" y="928" on="0"/>
        <pt x="1113" y="946" on="1"/>
        <pt x="1117" y="988" on="0"/>
        <pt x="1124" y="1040" on="1"/>
      </contour>
      <contour>
        <pt x="759" y="168" on="1"/>
        <pt x="928" y="168" on="0"/>
        <pt x="1082" y="254" on="1"/>
        <pt x="1081" y="260" on="0"/>
        <pt x="1080" y="280" on="0"/>
        <pt x="1080" y="303" on="0"/>
        <pt x="1080" y="325" on="0"/>
        <pt x="1080" y="331" on="1"/>
        <pt x="1080" y="703" on="1"/>
        <pt x="596" y="703" on="1"/>
        <pt x="502" y="646" on="0"/>
        <pt x="418" y="497" on="0"/>
        <pt x="418" y="416" on="1"/>
        <pt x="418" y="369" on="0"/>
        <pt x="453" y="280" on="0"/>
        <pt x="533" y="210" on="0"/>
        <pt x="664" y="168" on="0"/>
      </contour>
    </TTGlyph>
    <TTGlyph name="approxequal" xMin="125" yMin="236" xMax="1357" yMax="927">
      <contour>
        <pt x="1357" y="796" on="1"/>
        <pt x="1271" y="710" on="0"/>
        <pt x="1095" y="623" on="0"/>
        <pt x="1005" y="623" on="1"/>
        <pt x="948" y="623" on="0"/>
        <pt x="825" y="660" on="0"/>
        <pt x="745" y="694" on="1"/>
        <pt x="707" y="709" on="0"/>
        <pt x="638" y="735" on="0"/>
        <pt x="575" y="754" on="0"/>
        <pt x="516" y="766" on="0"/>
        <pt x="487" y="766" on="1"/>
        <pt x="407" y="766" on="0"/>
        <pt x="263" y="687" on="0"/>
        <pt x="177" y="614" on="1"/>
        <pt x="125" y="747" on="1"/>
        <pt x="165" y="786" on="0"/>
        <pt x="255" y="849" on="0"/>
        <pt x="348" y="895" on="0"/>
        <pt x="444" y="920" on="0"/>
        <pt x="491" y="920" on="1"/>
        <pt x="555" y="920" on="0"/>
        <pt x="685" y="883" on="0"/>
        <pt x="757" y="853" on="1"/>
        <pt x="798" y="834" on="0"/>
        <pt x="865" y="806" on="0"/>
        <pt x="923" y="788" on="0"/>
        <pt x="975" y="779" on="0"/>
        <pt x="1001" y="779" on="1"/>
        <pt x="1041" y="779" on="0"/>
        <pt x="1114" y="796" on="0"/>
        <pt x="1187" y="832" on="0"/>
        <pt x="1263" y="888" on="0"/>
        <pt x="1305" y="927" on="1"/>
      </contour>
      <contour>
        <pt x="1357" y="419" on="1"/>
        <pt x="1269" y="335" on="0"/>
        <pt x="1100" y="248" on="0"/>
        <pt x="1003" y="248" on="1"/>
        <pt x="946" y="248" on="0"/>
        <pt x="822" y="284" on="0"/>
        <pt x="744" y="316" on="1"/>
        <pt x="669" y="347" on="0"/>
        <pt x="544" y="388" on="0"/>
        <pt x="488" y="388" on="1"/>
        <pt x="446" y="388" on="0"/>
        <pt x="371" y="368" on="0"/>
        <pt x="296" y="329" on="0"/>
        <pt x="220" y="273" on="0"/>
        <pt x="177" y="236" on="1"/>
        <pt x="125" y="370" on="1"/>
        <pt x="208" y="449" on="0"/>
        <pt x="396" y="544" on="0"/>
        <pt x="491" y="544" on="1"/>
        <pt x="556" y="544" on="0"/>
        <pt x="686" y="506" on="0"/>
        <pt x="757" y="476" on="1"/>
        <pt x="794" y="460" on="0"/>
        <pt x="859" y="432" on="0"/>
        <pt x="919" y="412" on="0"/>
        <pt x="975" y="400" on="0"/>
        <pt x="1003" y="400" on="1"/>
        <pt x="1042" y="400" on="0"/>
        <pt x="1113" y="418" on="0"/>
        <pt x="1186" y="455" on="0"/>
        <pt x="1262" y="513" on="0"/>
        <pt x="1305" y="553" on="1"/>
      </contour>
    </TTGlyph>
    <TTGlyph name="aring" xMin="63" yMin="-23" xMax="1176" yMax="1480">
      <component glyphName="a" x="0" y="0" flags="0x1204"/>
      <component glyphName="ring" x="175" y="0" flags="0x1004"/>
    </TTGlyph>
    <TTGlyph name="asciicircum" xMin="291" yMin="787" xMax="1428" yMax="1427">
      <contour>
        <pt x="1428" y="798" on="1"/>
        <pt x="1249" y="787" on="1"/>
        <pt x="859" y="1229" on="1"/>
        <pt x="467" y="787" on="1"/>
        <pt x="291" y="798" on="1"/>
        <pt x="763" y="1427" on="1"/>
        <pt x="965" y="1427" on="1"/>
      </contour>
    </TTGlyph>
    <TTGlyph name="asciitilde" xMin="150" yMin="490" xMax="1397" yMax="846">
      <contour>
        <pt x="1397" y="641" on="1"/>
        <pt x="1342" y="600" on="0"/>
        <pt x="1249" y="545" on="0"/>
        <pt x="1165" y="512" on="0"/>
        <pt x="1086" y="497" on="0"/>
        <pt x="1045" y="497" on="1"/>
        <pt x="1016" y="497" on="0"/>
        <pt x="963" y="504" on="0"/>
        <pt x="909" y="518" on="0"/>
        <pt x="852" y="538" on="0"/>
        <pt x="819" y="552" on="1"/>
        <pt x="771" y="570" on="0"/>
        <pt x="684" y="604" on="0"/>
        <pt x="606" y="630" on="0"/>
        <pt x="535" y="646" on="0"/>
        <pt x="502" y="646" on="1"/>
        <pt x="462" y="646" on="0"/>
        <pt x="383" y="628" on="0"/>
        <pt x="298" y="591" on="0"/>
        <pt x="204" y="532" on="0"/>
        <pt x="150" y="490" on="1"/>
        <pt x="150" y="704" on="1"/>
        <pt x="250" y="776" on="0"/>
        <pt x="423" y="845" on="0"/>
        <pt x="507" y="845" on="1"/>
        <pt x="538" y="845" on="0"/>
        <pt x="598" y="836" on="0"/>
        <pt x="664" y="819" on="0"/>
        <pt x="736" y="794" on="0"/>
        <pt x="779" y="777" on="1"/>
        <pt x="863" y="742" on="0"/>
        <pt x="999" y="696" on="0"/>
        <pt x="1052" y="696" on="1"/>
        <pt x="1090" y="696" on="0"/>
        <pt x="1167" y="713" on="0"/>
        <pt x="1250" y="749" on="0"/>
        <pt x="1343" y="806" on="0"/>
        <pt x="1397" y="846" on="1"/>
      </contour>
    </TTGlyph>
    <TTGlyph name="asterisk" xMin="125" yMin="447" xMax="933" yMax="1271">
      <contour>
        <pt x="434" y="591" on="1"/>
        <pt x="455" y="638" on="0"/>
        <pt x="488" y="735" on="0"/>
        <pt x="495" y="801" on="1"/>
        <pt x="445" y="763" on="0"/>
        <pt x="379" y="683" on="0"/>
        <pt x="349" y="636" on="1"/>
        <pt x="230" y="556" on="1"/>
        <pt x="125" y="723" on="1"/>
        <pt x="248" y="795" on="1"/>
        <pt x="298" y="803" on="0"/>
        <pt x="398" y="836" on="0"/>
        <pt x="453" y="864" on="1"/>
        <pt x="396" y="892" on="0"/>
        <pt x="299" y="914" on="0"/>
        <pt x="250" y="922" on="1"/>
        <pt x="125" y="996" on="1"/>
        <pt x="230" y="1163" on="1"/>
        <pt x="347" y="1083" on="1"/>
        <pt x="406" y="998" on="0"/>
        <pt x="493" y="930" on="1"/>
        <pt x="485" y="991" on="0"/>
        <pt x="454" y="1084" on="0"/>
        <pt x="434" y="1129" on="1"/>
        <pt x="430" y="1271" on="1"/>
        <pt x="628" y="1271" on="1"/>
        <pt x="624" y="1131" on="1"/>
        <pt x="604" y="1084" on="0"/>
        <pt x="579" y="991" on="0"/>
        <pt x="573" y="940" on="1"/>
        <pt x="618" y="975" on="0"/>
        <pt x="684" y="1045" on="0"/>
        <pt x="711" y="1083" on="1"/>
        <pt x="829" y="1163" on="1"/>
        <pt x="933" y="996" on="1"/>
        <pt x="810" y="922" on="1"/>
        <pt x="754" y="915" on="0"/>
        <pt x="655" y="890" on="0"/>
        <pt x="601" y="864" on="1"/>
        <pt x="652" y="838" on="0"/>
        <pt x="755" y="803" on="0"/>
        <pt x="811" y="795" on="1"/>
        <pt x="933" y="723" on="1"/>
        <pt x="829" y="556" on="1"/>
        <pt x="709" y="636" on="1"/>
        <pt x="681" y="677" on="0"/>
        <pt x="620" y="752" on="0"/>
        <pt x="571" y="792" on="1"/>
        <pt x="576" y="738" on="0"/>
        <pt x="602" y="637" on="0"/>
        <pt x="624" y="588" on="1"/>
        <pt x="628" y="447" on="1"/>
        <pt x="434" y="447" on="1"/>
      </contour>
    </TTGlyph>
    <TTGlyph name="at" xMin="50" yMin="-307" xMax="1666" yMax="1396">
      <contour>
        <pt x="1177" y="57" on="1"/>
        <pt x="1091" y="57" on="0"/>
        <pt x="1009" y="144" on="0"/>
        <pt x="1007" y="235" on="1"/>
        <pt x="1006" y="233" on="0"/>
        <pt x="1002" y="231" on="1"/>
        <pt x="936" y="144" on="0"/>
        <pt x="801" y="61" on="0"/>
        <pt x="717" y="61" on="1"/>
        <pt x="651" y="61" on="0"/>
        <pt x="540" y="115" on="0"/>
        <pt x="460" y="214" on="0"/>
        <pt x="416" y="353" on="0"/>
        <pt x="416" y="437" on="1"/>
        <pt x="416" y="499" on="0"/>
        <pt x="446" y="634" on="0"/>
        <pt x="504" y="764" on="0"/>
        <pt x="586" y="880" on="0"/>
        <pt x="691" y="968" on="0"/>
        <pt x="815" y="1019" on="0"/>
        <pt x="886" y="1019" on="1"/>
        <pt x="970" y="1019" on="0"/>
        <pt x="1078" y="928" on="0"/>
        <pt x="1115" y="842" on="1"/>
        <pt x="1152" y="994" on="1"/>
        <pt x="1305" y="994" on="1"/>
        <pt x="1163" y="347" on="1"/>
        <pt x="1156" y="312" on="0"/>
        <pt x="1142" y="246" on="0"/>
        <pt x="1142" y="223" on="1"/>
        <pt x="1142" y="150" on="0"/>
        <pt x="1207" y="150" on="1"/>
        <pt x="1238" y="150" on="0"/>
        <pt x="1310" y="181" on="0"/>
        <pt x="1350" y="210" on="1"/>
        <pt x="1399" y="246" on="0"/>
        <pt x="1481" y="344" on="0"/>
        <pt x="1539" y="469" on="0"/>
        <pt x="1571" y="618" on="0"/>
        <pt x="1571" y="705" on="1"/>
        <pt x="1571" y="840" on="0"/>
        <pt x="1481" y="1061" on="0"/>
        <pt x="1317" y="1218" on="0"/>
        <pt x="1085" y="1304" on="0"/>
        <pt x="943" y="1304" on="1"/>
        <pt x="769" y="1304" on="0"/>
        <pt x="488" y="1180" on="0"/>
        <pt x="289" y="963" on="0"/>
        <pt x="181" y="670" on="0"/>
        <pt x="181" y="502" on="1"/>
        <pt x="181" y="339" on="0"/>
        <pt x="291" y="74" on="0"/>
        <pt x="485" y="-113" on="0"/>
        <pt x="750" y="-215" on="0"/>
        <pt x="905" y="-215" on="1"/>
        <pt x="1063" y="-215" on="0"/>
        <pt x="1346" y="-112" on="0"/>
        <pt x="1482" y="-6" on="1"/>
        <pt x="1589" y="-27" on="1"/>
        <pt x="1524" y="-89" on="0"/>
        <pt x="1366" y="-191" on="0"/>
        <pt x="1191" y="-266" on="0"/>
        <pt x="1003" y="-307" on="0"/>
        <pt x="907" y="-307" on="1"/>
        <pt x="716" y="-307" on="0"/>
        <pt x="401" y="-181" on="0"/>
        <pt x="175" y="41" on="0"/>
        <pt x="50" y="342" on="0"/>
        <pt x="50" y="518" on="1"/>
        <pt x="50" y="635" on="0"/>
        <pt x="108" y="857" on="0"/>
        <pt x="216" y="1052" on="0"/>
        <pt x="372" y="1214" on="0"/>
        <pt x="568" y="1331" on="0"/>
        <pt x="802" y="1396" on="0"/>
        <pt x="934" y="1396" on="1"/>
        <pt x="1114" y="1396" on="0"/>
        <pt x="1388" y="1284" on="0"/>
        <pt x="1573" y="1092" on="0"/>
        <pt x="1666" y="838" on="0"/>
        <pt x="1666" y="697" on="1"/>
        <pt x="1666" y="603" on="0"/>
        <pt x="1623" y="435" on="0"/>
        <pt x="1551" y="293" on="0"/>
        <pt x="1454" y="179" on="0"/>
        <pt x="1345" y="100" on="0"/>
        <pt x="1231" y="57" on="0"/>
      </contour>
      <contour>
        <pt x="1056" y="727" on="1"/>
        <pt x="1056" y="770" on="0"/>
        <pt x="1035" y="843" on="0"/>
        <pt x="994" y="897" on="0"/>
        <pt x="935" y="927" on="0"/>
        <pt x="897" y="927" on="1"/>
        <pt x="851" y="927" on="0"/>
        <pt x="769" y="875" on="0"/>
        <pt x="700" y="789" on="0"/>
        <pt x="646" y="676" on="0"/>
        <pt x="607" y="552" on="0"/>
        <pt x="587" y="427" on="0"/>
        <pt x="587" y="372" on="1"/>
        <pt x="587" y="272" on="0"/>
        <pt x="670" y="151" on="0"/>
        <pt x="745" y="151" on="1"/>
        <pt x="792" y="151" on="0"/>
        <pt x="875" y="204" on="0"/>
        <pt x="944" y="294" on="0"/>
        <pt x="999" y="411" on="0"/>
        <pt x="1036" y="539" on="0"/>
        <pt x="1056" y="669" on="0"/>
      </contour>
    </TTGlyph>
    <TTGlyph name="atilde" xMin="63" yMin="-23" xMax="1176" yMax="1359">
      <component glyphName="a" x="0" y="0" flags="0x1204"/>
      <component glyphName="tilde" x="176" y="0" flags="0x1004"/>
    </TTGlyph>
    <TTGlyph name="b" xMin="43" yMin="-23" xMax="1256" yMax="1314">
      <contour>
        <pt x="801" y="-23" on="1"/>
        <pt x="686" y="-23" on="0"/>
        <pt x="526" y="53" on="0"/>
        <pt x="469" y="128" on="1"/>
        <pt x="468" y="-3" on="1"/>
        <pt x="406" y="-1" on="0"/>
        <pt x="289" y="0" on="0"/>
        <pt x="230" y="1" on="1"/>
        <pt x="213" y="1" on="0"/>
        <pt x="151" y="0" on="0"/>
        <pt x="121" y="0" on="1"/>
        <pt x="46" y="0" on="1"/>
        <pt x="46" y="159" on="1"/>
        <pt x="101" y="159" on="1"/>
        <pt x="128" y="160" on="0"/>
        <pt x="157" y="182" on="0"/>
        <pt x="171" y="211" on="0"/>
        <pt x="174" y="239" on="0"/>
        <pt x="174" y="245" on="1"/>
        <pt x="174" y="1070" on="1"/>
        <pt x="174" y="1096" on="0"/>
        <pt x="158" y="1127" on="0"/>
        <pt x="126" y="1143" on="0"/>
        <pt x="76" y="1148" on="0"/>
        <pt x="43" y="1148" on="1"/>
        <pt x="43" y="1308" on="1"/>
        <pt x="99" y="1307" on="0"/>
        <pt x="218" y="1310" on="0"/>
        <pt x="275" y="1310" on="1"/>
        <pt x="329" y="1311" on="0"/>
        <pt x="430" y="1312" on="0"/>
        <pt x="480" y="1314" on="1"/>
        <pt x="480" y="808" on="1"/>
        <pt x="537" y="868" on="0"/>
        <pt x="695" y="932" on="0"/>
        <pt x="791" y="932" on="1"/>
        <pt x="894" y="932" on="0"/>
        <pt x="1065" y="867" on="0"/>
        <pt x="1188" y="743" on="0"/>
        <pt x="1256" y="565" on="0"/>
        <pt x="1256" y="453" on="1"/>
        <pt x="1256" y="351" on="0"/>
        <pt x="1193" y="177" on="0"/>
        <pt x="1074" y="50" on="0"/>
        <pt x="906" y="-23" on="0"/>
      </contour>
      <contour>
        <pt x="708" y="763" on="1"/>
        <pt x="651" y="763" on="0"/>
        <pt x="562" y="720" on="0"/>
        <pt x="501" y="640" on="0"/>
        <pt x="470" y="525" on="0"/>
        <pt x="470" y="454" on="1"/>
        <pt x="470" y="312" on="0"/>
        <pt x="594" y="153" on="0"/>
        <pt x="710" y="153" on="1"/>
        <pt x="822" y="153" on="0"/>
        <pt x="945" y="310" on="0"/>
        <pt x="945" y="457" on="1"/>
        <pt x="945" y="529" on="0"/>
        <pt x="912" y="643" on="0"/>
        <pt x="851" y="721" on="0"/>
        <pt x="763" y="763" on="0"/>
      </contour>
    </TTGlyph>
    <TTGlyph name="backslash" xMin="-26" yMin="-96" xMax="551" yMax="1322">
      <contour>
        <pt x="155" y="1322" on="1"/>
        <pt x="551" y="-96" on="1"/>
        <pt x="371" y="-96" on="1"/>
        <pt x="-26" y="1322" on="1"/>
      </contour>
    </TTGlyph>
    <TTGlyph name="bar" xMin="455" yMin="-403" xMax="661" yMax="1461">
      <contour>
        <pt x="661" y="-403" on="1"/>
        <pt x="455" y="-403" on="1"/>
        <pt x="455" y="1461" on="1"/>
        <pt x="661" y="1461" on="1"/>
      </contour>
    </TTGlyph>
    <TTGlyph name="braceleft" xMin="110" yMin="-341" xMax="776" yMax="1450">
      <contour>
        <pt x="742" y="-341" on="1"/>
        <pt x="633" y="-341" on="0"/>
        <pt x="481" y="-311" on="0"/>
        <pt x="385" y="-227" on="0"/>
        <pt x="342" y="-78" on="0"/>
        <pt x="342" y="41" on="1"/>
        <pt x="342" y="223" on="1"/>
        <pt x="342" y="288" on="0"/>
        <pt x="318" y="382" on="0"/>
        <pt x="263" y="444" on="0"/>
        <pt x="174" y="476" on="0"/>
        <pt x="110" y="479" on="1"/>
        <pt x="110" y="629" on="1"/>
        <pt x="180" y="633" on="0"/>
        <pt x="270" y="668" on="0"/>
        <pt x="322" y="737" on="0"/>
        <pt x="342" y="842" on="0"/>
        <pt x="342" y="917" on="1"/>
        <pt x="342" y="1082" on="1"/>
        <pt x="342" y="1196" on="0"/>
        <pt x="388" y="1339" on="0"/>
        <pt x="484" y="1420" on="0"/>
        <pt x="631" y="1450" on="0"/>
        <pt x="732" y="1450" on="1"/>
        <pt x="733" y="1450" on="0"/>
        <pt x="746" y="1449" on="0"/>
        <pt x="762" y="1447" on="0"/>
        <pt x="775" y="1446" on="0"/>
        <pt x="776" y="1446" on="1"/>
        <pt x="776" y="1290" on="1"/>
        <pt x="717" y="1289" on="0"/>
        <pt x="640" y="1269" on="0"/>
        <pt x="593" y="1218" on="0"/>
        <pt x="572" y="1128" on="0"/>
        <pt x="570" y="1058" on="1"/>
        <pt x="567" y="978" on="0"/>
        <pt x="562" y="849" on="0"/>
        <pt x="549" y="745" on="0"/>
        <pt x="523" y="666" on="0"/>
        <pt x="474" y="607" on="0"/>
        <pt x="396" y="568" on="0"/>
        <pt x="339" y="556" on="1"/>
        <pt x="404" y="541" on="0"/>
        <pt x="492" y="485" on="0"/>
        <pt x="546" y="396" on="0"/>
        <pt x="569" y="268" on="0"/>
        <pt x="569" y="180" on="1"/>
        <pt x="569" y="64" on="0"/>
        <pt x="580" y="-77" on="0"/>
        <pt x="622" y="-154" on="0"/>
        <pt x="705" y="-180" on="0"/>
        <pt x="776" y="-181" on="1"/>
        <pt x="776" y="-340" on="1"/>
        <pt x="775" y="-340" on="0"/>
        <pt x="765" y="-341" on="0"/>
        <pt x="753" y="-341" on="0"/>
        <pt x="743" y="-341" on="0"/>
      </contour>
    </TTGlyph>
    <TTGlyph name="braceright" xMin="112" yMin="-341" xMax="778" yMax="1450">
      <contour>
        <pt x="547" y="941" on="1"/>
        <pt x="547" y="857" on="0"/>
        <pt x="564" y="742" on="0"/>
        <pt x="614" y="669" on="0"/>
        <pt x="705" y="633" on="0"/>
        <pt x="778" y="629" on="1"/>
        <pt x="778" y="479" on="1"/>
        <pt x="710" y="476" on="0"/>
        <pt x="620" y="442" on="0"/>
        <pt x="568" y="376" on="0"/>
        <pt x="547" y="277" on="0"/>
        <pt x="547" y="208" on="1"/>
        <pt x="547" y="51" on="1"/>
        <pt x="547" y="-74" on="0"/>
        <pt x="503" y="-227" on="0"/>
        <pt x="406" y="-312" on="0"/>
        <pt x="252" y="-341" on="0"/>
        <pt x="143" y="-341" on="1"/>
        <pt x="141" y="-341" on="0"/>
        <pt x="114" y="-341" on="0"/>
        <pt x="112" y="-340" on="1"/>
        <pt x="112" y="-181" on="1"/>
        <pt x="175" y="-180" on="0"/>
        <pt x="252" y="-159" on="0"/>
        <pt x="297" y="-100" on="0"/>
        <pt x="316" y="8" on="0"/>
        <pt x="321" y="96" on="1"/>
        <pt x="325" y="197" on="0"/>
        <pt x="332" y="351" on="0"/>
        <pt x="371" y="462" on="0"/>
        <pt x="460" y="533" on="0"/>
        <pt x="548" y="553" on="1"/>
        <pt x="465" y="572" on="0"/>
        <pt x="378" y="640" on="0"/>
        <pt x="336" y="742" on="0"/>
        <pt x="326" y="882" on="0"/>
        <pt x="322" y="974" on="1"/>
        <pt x="317" y="1074" on="0"/>
        <pt x="301" y="1196" on="0"/>
        <pt x="258" y="1264" on="0"/>
        <pt x="179" y="1288" on="0"/>
        <pt x="112" y="1290" on="1"/>
        <pt x="112" y="1449" on="1"/>
        <pt x="113" y="1449" on="0"/>
        <pt x="123" y="1450" on="0"/>
        <pt x="134" y="1450" on="0"/>
        <pt x="144" y="1450" on="0"/>
        <pt x="145" y="1450" on="1"/>
        <pt x="250" y="1450" on="0"/>
        <pt x="402" y="1420" on="0"/>
        <pt x="500" y="1339" on="0"/>
        <pt x="547" y="1197" on="0"/>
        <pt x="547" y="1084" on="1"/>
      </contour>
    </TTGlyph>
    <TTGlyph name="bracketleft" xMin="161" yMin="-298" xMax="736" yMax="1308">
      <contour>
        <pt x="736" y="1308" on="1"/>
        <pt x="736" y="1092" on="1"/>
        <pt x="460" y="1092" on="1"/>
        <pt x="460" y="-82" on="1"/>
        <pt x="734" y="-82" on="1"/>
        <pt x="734" y="-298" on="1"/>
        <pt x="161" y="-298" on="1"/>
        <pt x="161" y="1308" on="1"/>
      </contour>
    </TTGlyph>
    <TTGlyph name="bracketright" xMin="70" yMin="-298" xMax="645" yMax="1308">
      <contour>
        <pt x="645" y="1308" on="1"/>
        <pt x="645" y="-298" on="1"/>
        <pt x="70" y="-298" on="1"/>
        <pt x="70" y="-82" on="1"/>
        <pt x="347" y="-82" on="1"/>
        <pt x="347" y="1092" on="1"/>
        <pt x="71" y="1092" on="1"/>
        <pt x="71" y="1308" on="1"/>
      </contour>
    </TTGlyph>
    <TTGlyph name="breve" xMin="73" yMin="1076" xMax="777" yMax="1362">
      <contour>
        <pt x="195" y="1362" on="1"/>
        <pt x="212" y="1299" on="0"/>
        <pt x="333" y="1239" on="0"/>
        <pt x="430" y="1239" on="1"/>
        <pt x="525" y="1239" on="0"/>
        <pt x="632" y="1296" on="0"/>
        <pt x="657" y="1362" on="1"/>
        <pt x="777" y="1362" on="1"/>
        <pt x="754" y="1222" on="0"/>
        <pt x="572" y="1076" on="0"/>
        <pt x="422" y="1076" on="1"/>
        <pt x="279" y="1076" on="0"/>
        <pt x="96" y="1222" on="0"/>
        <pt x="73" y="1362" on="1"/>
      </contour>
    </TTGlyph>
    <TTGlyph name="brokenbar" xMin="455" yMin="-120" xMax="661" yMax="1177">
      <contour>
        <pt x="661" y="439" on="1"/>
        <pt x="455" y="439" on="1"/>
        <pt x="455" y="1177" on="1"/>
        <pt x="661" y="1177" on="1"/>
      </contour>
      <contour>
        <pt x="661" y="-120" on="1"/>
        <pt x="455" y="-120" on="1"/>
        <pt x="455" y="616" on="1"/>
        <pt x="661" y="616" on="1"/>
      </contour>
    </TTGlyph>
    <TTGlyph name="bullet" xMin="275" yMin="430" xMax="883" yMax="1032">
      <contour>
        <pt x="275" y="731" on="1"/>
        <pt x="275" y="793" on="0"/>
        <pt x="324" y="902" on="0"/>
        <pt x="407" y="984" on="0"/>
        <pt x="518" y="1032" on="0"/>
        <pt x="580" y="1032" on="1"/>
        <pt x="642" y="1032" on="0"/>
        <pt x="752" y="984" on="0"/>
        <pt x="835" y="901" on="0"/>
        <pt x="883" y="792" on="0"/>
        <pt x="883" y="731" on="1"/>
        <pt x="883" y="670" on="0"/>
        <pt x="834" y="561" on="0"/>
        <pt x="751" y="478" on="0"/>
        <pt x="641" y="430" on="0"/>
        <pt x="579" y="430" on="1"/>
        <pt x="516" y="430" on="0"/>
        <pt x="405" y="478" on="0"/>
        <pt x="323" y="561" on="0"/>
        <pt x="275" y="670" on="0"/>
      </contour>
    </TTGlyph>
    <TTGlyph name="c" xMin="81" yMin="-23" xMax="1055" yMax="927">
      <contour>
        <pt x="1021" y="561" on="1"/>
        <pt x="847" y="561" on="1"/>
        <pt x="833" y="672" on="0"/>
        <pt x="722" y="777" on="0"/>
        <pt x="633" y="777" on="1"/>
        <pt x="576" y="777" on="0"/>
        <pt x="487" y="730" on="0"/>
        <pt x="426" y="644" on="0"/>
        <pt x="395" y="523" on="0"/>
        <pt x="395" y="450" on="1"/>
        <pt x="395" y="375" on="0"/>
        <pt x="428" y="266" on="0"/>
        <pt x="491" y="182" on="0"/>
        <pt x="581" y="137" on="0"/>
        <pt x="639" y="137" on="1"/>
        <pt x="725" y="137" on="0"/>
        <pt x="827" y="235" on="0"/>
        <pt x="842" y="315" on="1"/>
        <pt x="1055" y="288" on="1"/>
        <pt x="1041" y="212" on="0"/>
        <pt x="965" y="94" on="0"/>
        <pt x="848" y="20" on="0"/>
        <pt x="693" y="-23" on="0"/>
        <pt x="600" y="-23" on="1"/>
        <pt x="482" y="-23" on="0"/>
        <pt x="290" y="45" on="0"/>
        <pt x="155" y="163" on="0"/>
        <pt x="81" y="339" on="0"/>
        <pt x="81" y="448" on="1"/>
        <pt x="81" y="553" on="0"/>
        <pt x="156" y="729" on="0"/>
        <pt x="284" y="856" on="0"/>
        <pt x="455" y="927" on="0"/>
        <pt x="552" y="927" on="1"/>
        <pt x="627" y="927" on="0"/>
        <pt x="770" y="886" on="0"/>
        <pt x="827" y="835" on="1"/>
        <pt x="839" y="910" on="1"/>
        <pt x="857" y="909" on="0"/>
        <pt x="904" y="907" on="0"/>
        <pt x="953" y="905" on="0"/>
        <pt x="1001" y="902" on="0"/>
        <pt x="1021" y="900" on="1"/>
      </contour>
    </TTGlyph>
    <TTGlyph name="caron" xMin="78" yMin="1054" xMax="774" yMax="1391">
      <contour>
        <pt x="230" y="1391" on="1"/>
        <pt x="425" y="1224" on="1"/>
        <pt x="621" y="1391" on="1"/>
        <pt x="774" y="1391" on="1"/>
        <pt x="553" y="1054" on="1"/>
        <pt x="296" y="1054" on="1"/>
        <pt x="78" y="1391" on="1"/>
      </contour>
    </TTGlyph>
    <TTGlyph name="ccedilla" xMin="81" yMin="-434" xMax="1055" yMax="927">
      <component glyphName="c" x="0" y="0" flags="0x1204"/>
      <component glyphName="cedilla" x="115" y="0" flags="0x1004"/>
    </TTGlyph>
    <TTGlyph name="cedilla" xMin="210" yMin="-434" xMax="689" yMax="-3">
      <contour>
        <pt x="470" y="-3" on="1"/>
        <pt x="467" y="-77" on="1"/>
        <pt x="471" y="-76" on="0"/>
        <pt x="485" y="-76" on="0"/>
        <pt x="491" y="-76" on="1"/>
        <pt x="536" y="-76" on="0"/>
        <pt x="609" y="-102" on="0"/>
        <pt x="661" y="-148" on="0"/>
        <pt x="689" y="-214" on="0"/>
        <pt x="689" y="-253" on="1"/>
        <pt x="689" y="-296" on="0"/>
        <pt x="653" y="-363" on="0"/>
        <pt x="587" y="-409" on="0"/>
        <pt x="493" y="-433" on="0"/>
        <pt x="436" y="-434" on="1"/>
        <pt x="391" y="-434" on="0"/>
        <pt x="277" y="-413" on="0"/>
        <pt x="210" y="-384" on="1"/>
        <pt x="236" y="-293" on="1"/>
        <pt x="274" y="-309" on="0"/>
        <pt x="353" y="-326" on="0"/>
        <pt x="385" y="-326" on="1"/>
        <pt x="489" y="-326" on="0"/>
        <pt x="489" y="-247" on="1"/>
        <pt x="489" y="-211" on="0"/>
        <pt x="438" y="-178" on="0"/>
        <pt x="395" y="-177" on="1"/>
        <pt x="387" y="-177" on="0"/>
        <pt x="372" y="-179" on="0"/>
        <pt x="364" y="-181" on="1"/>
        <pt x="374" y="-3" on="1"/>
      </contour>
    </TTGlyph>
    <TTGlyph name="cent" xMin="86" yMin="-194" xMax="1165" yMax="1119">
      <contour>
        <pt x="590" y="-26" on="1"/>
        <pt x="474" y="-18" on="0"/>
        <pt x="287" y="59" on="0"/>
        <pt x="156" y="187" on="0"/>
        <pt x="86" y="360" on="0"/>
        <pt x="86" y="464" on="1"/>
        <pt x="86" y="577" on="0"/>
        <pt x="171" y="758" on="0"/>
        <pt x="312" y="885" on="0"/>
        <pt x="493" y="953" on="0"/>
        <pt x="590" y="955" on="1"/>
        <pt x="590" y="1119" on="1"/>
        <pt x="713" y="1119" on="1"/>
        <pt x="713" y="947" on="1"/>
        <pt x="746" y="941" on="0"/>
        <pt x="799" y="928" on="0"/>
        <pt x="844" y="910" on="0"/>
        <pt x="883" y="885" on="0"/>
        <pt x="904" y="867" on="1"/>
        <pt x="916" y="936" on="1"/>
        <pt x="1127" y="936" on="1"/>
        <pt x="1127" y="566" on="1"/>
        <pt x="912" y="566" on="1"/>
        <pt x="907" y="608" on="0"/>
        <pt x="873" y="681" on="0"/>
        <pt x="816" y="735" on="0"/>
        <pt x="738" y="766" on="0"/>
        <pt x="690" y="766" on="1"/>
        <pt x="634" y="766" on="0"/>
        <pt x="545" y="723" on="0"/>
        <pt x="481" y="644" on="0"/>
        <pt x="447" y="533" on="0"/>
        <pt x="447" y="464" on="1"/>
        <pt x="447" y="396" on="0"/>
        <pt x="482" y="285" on="0"/>
        <pt x="546" y="206" on="0"/>
        <pt x="636" y="163" on="0"/>
        <pt x="691" y="163" on="1"/>
        <pt x="775" y="163" on="0"/>
        <pt x="883" y="259" on="0"/>
        <pt x="906" y="347" on="1"/>
        <pt x="1165" y="291" on="1"/>
        <pt x="1145" y="220" on="0"/>
        <pt x="1064" y="105" on="0"/>
        <pt x="947" y="22" on="0"/>
        <pt x="799" y="-25" on="0"/>
        <pt x="713" y="-27" on="1"/>
        <pt x="713" y="-194" on="1"/>
        <pt x="590" y="-194" on="1"/>
      </contour>
    </TTGlyph>
    <TTGlyph name="circumflex" xMin="78" yMin="1053" xMax="774" yMax="1390">
      <contour>
        <pt x="553" y="1390" on="1"/>
        <pt x="774" y="1053" on="1"/>
        <pt x="620" y="1053" on="1"/>
        <pt x="426" y="1218" on="1"/>
        <pt x="230" y="1053" on="1"/>
        <pt x="78" y="1053" on="1"/>
        <pt x="297" y="1390" on="1"/>
      </contour>
    </TTGlyph>
    <TTGlyph name="colon" xMin="158" yMin="-12" xMax="503" yMax="903">
      <contour>
        <pt x="330" y="903" on="1"/>
        <pt x="408" y="903" on="0"/>
        <pt x="503" y="836" on="0"/>
        <pt x="503" y="782" on="1"/>
        <pt x="503" y="729" on="0"/>
        <pt x="414" y="660" on="0"/>
        <pt x="330" y="660" on="1"/>
        <pt x="248" y="660" on="0"/>
        <pt x="158" y="724" on="0"/>
        <pt x="158" y="782" on="1"/>
        <pt x="158" y="834" on="0"/>
        <pt x="249" y="903" on="0"/>
      </contour>
      <contour>
        <pt x="330" y="231" on="1"/>
        <pt x="369" y="231" on="0"/>
        <pt x="433" y="213" on="0"/>
        <pt x="478" y="182" on="0"/>
        <pt x="503" y="138" on="0"/>
        <pt x="503" y="111" on="1"/>
        <pt x="503" y="58" on="0"/>
        <pt x="414" y="-12" on="0"/>
        <pt x="330" y="-12" on="1"/>
        <pt x="248" y="-12" on="0"/>
        <pt x="158" y="53" on="0"/>
        <pt x="158" y="111" on="1"/>
        <pt x="158" y="136" on="0"/>
        <pt x="182" y="180" on="0"/>
        <pt x="226" y="213" on="0"/>
        <pt x="290" y="231" on="0"/>
      </contour>
    </TTGlyph>
    <TTGlyph name="comma" xMin="125" yMin="-298" xMax="514" yMax="251">
      <contour>
        <pt x="514" y="251" on="1"/>
        <pt x="474" y="22" on="1"/>
        <pt x="462" y="-47" on="0"/>
        <pt x="413" y="-160" on="0"/>
        <pt x="342" y="-243" on="0"/>
        <pt x="251" y="-292" on="0"/>
        <pt x="197" y="-298" on="1"/>
        <pt x="125" y="-171" on="1"/>
        <pt x="156" y="-165" on="0"/>
        <pt x="193" y="-127" on="0"/>
        <pt x="212" y="-79" on="0"/>
        <pt x="218" y="-31" on="0"/>
        <pt x="220" y="-15" on="1"/>
        <pt x="144" y="9" on="1"/>
        <pt x="171" y="251" on="1"/>
      </contour>
    </TTGlyph>
    <TTGlyph name="copyright" xMin="102" yMin="-32" xMax="1579" yMax="1427">
      <contour>
        <pt x="841" y="1427" on="1"/>
        <pt x="946" y="1427" on="0"/>
        <pt x="1137" y="1372" on="0"/>
        <pt x="1301" y="1274" on="0"/>
        <pt x="1434" y="1138" on="0"/>
        <pt x="1528" y="976" on="0"/>
        <pt x="1579" y="792" on="0"/>
        <pt x="1579" y="696" on="1"/>
        <pt x="1579" y="592" on="0"/>
        <pt x="1523" y="403" on="0"/>
        <pt x="1424" y="241" on="0"/>
        <pt x="1286" y="110" on="0"/>
        <pt x="1122" y="18" on="0"/>
        <pt x="937" y="-32" on="0"/>
        <pt x="840" y="-32" on="1"/>
        <pt x="734" y="-32" on="0"/>
        <pt x="542" y="23" on="0"/>
        <pt x="378" y="120" on="0"/>
        <pt x="246" y="256" on="0"/>
        <pt x="152" y="417" on="0"/>
        <pt x="102" y="600" on="0"/>
        <pt x="102" y="696" on="1"/>
        <pt x="102" y="799" on="0"/>
        <pt x="156" y="987" on="0"/>
        <pt x="255" y="1150" on="0"/>
        <pt x="391" y="1282" on="0"/>
        <pt x="556" y="1376" on="0"/>
        <pt x="742" y="1427" on="0"/>
      </contour>
      <contour>
        <pt x="1463" y="696" on="1"/>
        <pt x="1463" y="784" on="0"/>
        <pt x="1417" y="945" on="0"/>
        <pt x="1334" y="1084" on="0"/>
        <pt x="1218" y="1197" on="0"/>
        <pt x="1080" y="1277" on="0"/>
        <pt x="923" y="1321" on="0"/>
        <pt x="840" y="1321" on="1"/>
        <pt x="751" y="1321" on="0"/>
        <pt x="590" y="1274" on="0"/>
        <pt x="451" y="1190" on="0"/>
        <pt x="339" y="1074" on="0"/>
        <pt x="260" y="935" on="0"/>
        <pt x="217" y="778" on="0"/>
        <pt x="217" y="696" on="1"/>
        <pt x="217" y="606" on="0"/>
        <pt x="264" y="444" on="0"/>
        <pt x="348" y="306" on="0"/>
        <pt x="464" y="195" on="0"/>
        <pt x="602" y="117" on="0"/>
        <pt x="757" y="75" on="0"/>
        <pt x="839" y="75" on="1"/>
        <pt x="927" y="75" on="0"/>
        <pt x="1088" y="121" on="0"/>
        <pt x="1227" y="204" on="0"/>
        <pt x="1339" y="319" on="0"/>
        <pt x="1419" y="457" on="0"/>
        <pt x="1463" y="613" on="0"/>
      </contour>
      <contour>
        <pt x="1198" y="831" on="1"/>
        <pt x="1078" y="826" on="1"/>
        <pt x="1051" y="920" on="0"/>
        <pt x="929" y="1016" on="0"/>
        <pt x="851" y="1016" on="1"/>
        <pt x="801" y="1016" on="0"/>
        <pt x="714" y="976" on="0"/>
        <pt x="649" y="897" on="0"/>
        <pt x="611" y="780" on="0"/>
        <pt x="611" y="702" on="1"/>
        <pt x="611" y="621" on="0"/>
        <pt x="647" y="497" on="0"/>
        <pt x="711" y="414" on="0"/>
        <pt x="798" y="372" on="0"/>
        <pt x="849" y="372" on="1"/>
        <pt x="921" y="372" on="0"/>
        <pt x="1050" y="457" on="0"/>
        <pt x="1092" y="546" on="1"/>
        <pt x="1197" y="513" on="1"/>
        <pt x="1170" y="448" on="0"/>
        <pt x="1093" y="354" on="0"/>
        <pt x="999" y="294" on="0"/>
        <pt x="887" y="266" on="0"/>
        <pt x="825" y="266" on="1"/>
        <pt x="738" y="266" on="0"/>
        <pt x="592" y="332" on="0"/>
        <pt x="485" y="447" on="0"/>
        <pt x="426" y="603" on="0"/>
        <pt x="426" y="693" on="1"/>
        <pt x="426" y="787" on="0"/>
        <pt x="494" y="939" on="0"/>
        <pt x="609" y="1047" on="0"/>
        <pt x="760" y="1106" on="0"/>
        <pt x="842" y="1106" on="1"/>
        <pt x="924" y="1106" on="0"/>
        <pt x="1051" y="1039" on="0"/>
        <pt x="1082" y="988" on="1"/>
        <pt x="1085" y="1115" on="1"/>
        <pt x="1198" y="1111" on="1"/>
      </contour>
    </TTGlyph>
    <TTGlyph name="currency" xMin="112" yMin="245" xMax="1195" yMax="1316">
      <contour>
        <pt x="408" y="1146" on="1"/>
        <pt x="461" y="1182" on="0"/>
        <pt x="585" y="1221" on="0"/>
        <pt x="650" y="1221" on="1"/>
        <pt x="716" y="1221" on="0"/>
        <pt x="840" y="1183" on="0"/>
        <pt x="897" y="1144" on="1"/>
        <pt x="1070" y="1316" on="1"/>
        <pt x="1195" y="1192" on="1"/>
        <pt x="1021" y="1020" on="1"/>
        <pt x="1056" y="970" on="0"/>
        <pt x="1095" y="846" on="0"/>
        <pt x="1095" y="780" on="1"/>
        <pt x="1095" y="719" on="0"/>
        <pt x="1059" y="594" on="0"/>
        <pt x="1022" y="540" on="1"/>
        <pt x="1195" y="370" on="1"/>
        <pt x="1070" y="245" on="1"/>
        <pt x="898" y="414" on="1"/>
        <pt x="843" y="376" on="0"/>
        <pt x="718" y="340" on="0"/>
        <pt x="650" y="340" on="1"/>
        <pt x="583" y="340" on="0"/>
        <pt x="460" y="374" on="0"/>
        <pt x="406" y="412" on="1"/>
        <pt x="237" y="245" on="1"/>
        <pt x="112" y="370" on="1"/>
        <pt x="279" y="536" on="1"/>
        <pt x="241" y="593" on="0"/>
        <pt x="205" y="711" on="0"/>
        <pt x="205" y="778" on="1"/>
        <pt x="205" y="844" on="0"/>
        <pt x="241" y="969" on="0"/>
        <pt x="280" y="1025" on="1"/>
        <pt x="112" y="1192" on="1"/>
        <pt x="237" y="1316" on="1"/>
      </contour>
      <contour>
        <pt x="921" y="780" on="1"/>
        <pt x="921" y="835" on="0"/>
        <pt x="878" y="932" on="0"/>
        <pt x="804" y="1005" on="0"/>
        <pt x="705" y="1047" on="0"/>
        <pt x="650" y="1047" on="1"/>
        <pt x="594" y="1047" on="0"/>
        <pt x="495" y="1004" on="0"/>
        <pt x="421" y="931" on="0"/>
        <pt x="379" y="834" on="0"/>
        <pt x="379" y="780" on="1"/>
        <pt x="379" y="724" on="0"/>
        <pt x="421" y="627" on="0"/>
        <pt x="495" y="555" on="0"/>
        <pt x="594" y="513" on="0"/>
        <pt x="650" y="513" on="1"/>
        <pt x="706" y="513" on="0"/>
        <pt x="805" y="555" on="0"/>
        <pt x="878" y="628" on="0"/>
        <pt x="921" y="725" on="0"/>
      </contour>
    </TTGlyph>
    <TTGlyph name="d" xMin="84" yMin="-23" xMax="1295" yMax="1314">
      <contour>
        <pt x="1164" y="223" on="1"/>
        <pt x="1164" y="195" on="0"/>
        <pt x="1198" y="160" on="0"/>
        <pt x="1246" y="159" on="1"/>
        <pt x="1295" y="159" on="1"/>
        <pt x="1293" y="0" on="1"/>
        <pt x="1253" y="0" on="0"/>
        <pt x="1163" y="1" on="0"/>
        <pt x="1121" y="1" on="1"/>
        <pt x="1058" y="0" on="0"/>
        <pt x="933" y="-1" on="0"/>
        <pt x="870" y="-3" on="1"/>
        <pt x="870" y="4" on="0"/>
        <pt x="870" y="37" on="0"/>
        <pt x="870" y="76" on="0"/>
        <pt x="869" y="114" on="0"/>
        <pt x="869" y="127" on="1"/>
        <pt x="821" y="59" on="0"/>
        <pt x="653" y="-23" on="0"/>
        <pt x="536" y="-23" on="1"/>
        <pt x="434" y="-23" on="0"/>
        <pt x="267" y="46" on="0"/>
        <pt x="149" y="171" on="0"/>
        <pt x="84" y="346" on="0"/>
        <pt x="84" y="452" on="1"/>
        <pt x="84" y="564" on="0"/>
        <pt x="151" y="742" on="0"/>
        <pt x="273" y="866" on="0"/>
        <pt x="446" y="931" on="0"/>
        <pt x="551" y="931" on="1"/>
        <pt x="648" y="931" on="0"/>
        <pt x="799" y="868" on="0"/>
        <pt x="857" y="808" on="1"/>
        <pt x="858" y="1085" on="1"/>
        <pt x="858" y="1106" on="0"/>
        <pt x="844" y="1131" on="0"/>
        <pt x="819" y="1144" on="0"/>
        <pt x="782" y="1148" on="0"/>
        <pt x="758" y="1148" on="1"/>
        <pt x="747" y="1149" on="0"/>
        <pt x="724" y="1148" on="0"/>
        <pt x="712" y="1148" on="1"/>
        <pt x="712" y="1308" on="1"/>
        <pt x="766" y="1307" on="0"/>
        <pt x="871" y="1310" on="0"/>
        <pt x="936" y="1310" on="1"/>
        <pt x="997" y="1311" on="0"/>
        <pt x="1109" y="1312" on="0"/>
        <pt x="1164" y="1314" on="1"/>
      </contour>
      <contour>
        <pt x="630" y="763" on="1"/>
        <pt x="574" y="763" on="0"/>
        <pt x="487" y="720" on="0"/>
        <pt x="427" y="641" on="0"/>
        <pt x="395" y="527" on="0"/>
        <pt x="395" y="455" on="1"/>
        <pt x="395" y="384" on="0"/>
        <pt x="426" y="272" on="0"/>
        <pt x="486" y="194" on="0"/>
        <pt x="573" y="153" on="0"/>
        <pt x="629" y="153" on="1"/>
        <pt x="688" y="153" on="0"/>
        <pt x="778" y="195" on="0"/>
        <pt x="838" y="274" on="0"/>
        <pt x="868" y="386" on="0"/>
        <pt x="868" y="455" on="1"/>
        <pt x="868" y="525" on="0"/>
        <pt x="835" y="639" on="0"/>
        <pt x="773" y="719" on="0"/>
        <pt x="685" y="763" on="0"/>
      </contour>
    </TTGlyph>
    <TTGlyph name="dagger" xMin="85" yMin="-313" xMax="1091" yMax="1309">
      <contour>
        <pt x="489" y="-313" on="1"/>
        <pt x="450" y="484" on="1"/>
        <pt x="470" y="541" on="0"/>
        <pt x="506" y="680" on="0"/>
        <pt x="508" y="757" on="1"/>
        <pt x="432" y="752" on="0"/>
        <pt x="297" y="730" on="0"/>
        <pt x="231" y="711" on="1"/>
        <pt x="85" y="711" on="1"/>
        <pt x="85" y="905" on="1"/>
        <pt x="247" y="905" on="1"/>
        <pt x="304" y="886" on="0"/>
        <pt x="431" y="867" on="0"/>
        <pt x="507" y="863" on="1"/>
        <pt x="507" y="927" on="0"/>
        <pt x="476" y="1029" on="0"/>
        <pt x="450" y="1070" on="1"/>
        <pt x="450" y="1309" on="1"/>
        <pt x="725" y="1309" on="1"/>
        <pt x="725" y="1070" on="1"/>
        <pt x="699" y="1029" on="0"/>
        <pt x="668" y="927" on="0"/>
        <pt x="668" y="863" on="1"/>
        <pt x="744" y="867" on="0"/>
        <pt x="871" y="886" on="0"/>
        <pt x="929" y="905" on="1"/>
        <pt x="1091" y="905" on="1"/>
        <pt x="1091" y="711" on="1"/>
        <pt x="963" y="711" on="1"/>
        <pt x="927" y="718" on="0"/>
        <pt x="858" y="733" on="0"/>
        <pt x="787" y="745" on="0"/>
        <pt x="711" y="754" on="0"/>
        <pt x="667" y="757" on="1"/>
        <pt x="669" y="680" on="0"/>
        <pt x="705" y="541" on="0"/>
        <pt x="725" y="484" on="1"/>
        <pt x="686" y="-313" on="1"/>
      </contour>
    </TTGlyph>
    <TTGlyph name="daggerdbl" xMin="74" yMin="-280" xMax="1079" yMax="1309">
      <contour>
        <pt x="497" y="250" on="1"/>
        <pt x="480" y="334" on="0"/>
        <pt x="458" y="456" on="0"/>
        <pt x="451" y="512" on="1"/>
        <pt x="458" y="574" on="0"/>
        <pt x="480" y="705" on="0"/>
        <pt x="497" y="794" on="1"/>
        <pt x="423" y="789" on="0"/>
        <pt x="294" y="765" on="0"/>
        <pt x="231" y="746" on="1"/>
        <pt x="74" y="746" on="1"/>
        <pt x="74" y="945" on="1"/>
        <pt x="247" y="945" on="1"/>
        <pt x="301" y="926" on="0"/>
        <pt x="423" y="905" on="0"/>
        <pt x="496" y="901" on="1"/>
        <pt x="496" y="961" on="0"/>
        <pt x="464" y="1046" on="0"/>
        <pt x="439" y="1083" on="1"/>
        <pt x="439" y="1309" on="1"/>
        <pt x="714" y="1309" on="1"/>
        <pt x="714" y="1083" on="1"/>
        <pt x="689" y="1046" on="0"/>
        <pt x="657" y="961" on="0"/>
        <pt x="657" y="901" on="1"/>
        <pt x="730" y="905" on="0"/>
        <pt x="852" y="927" on="0"/>
        <pt x="906" y="945" on="1"/>
        <pt x="1079" y="945" on="1"/>
        <pt x="1079" y="746" on="1"/>
        <pt x="921" y="746" on="1"/>
        <pt x="858" y="765" on="0"/>
        <pt x="731" y="789" on="0"/>
        <pt x="656" y="794" on="1"/>
        <pt x="673" y="705" on="0"/>
        <pt x="694" y="574" on="0"/>
        <pt x="702" y="512" on="1"/>
        <pt x="694" y="456" on="0"/>
        <pt x="673" y="334" on="0"/>
        <pt x="656" y="250" on="1"/>
        <pt x="730" y="255" on="0"/>
        <pt x="859" y="279" on="0"/>
        <pt x="921" y="297" on="1"/>
        <pt x="1079" y="297" on="1"/>
        <pt x="1079" y="99" on="1"/>
        <pt x="906" y="99" on="1"/>
        <pt x="851" y="117" on="0"/>
        <pt x="730" y="139" on="0"/>
        <pt x="657" y="143" on="1"/>
        <pt x="657" y="79" on="0"/>
        <pt x="689" y="-14" on="0"/>
        <pt x="714" y="-56" on="1"/>
        <pt x="714" y="-280" on="1"/>
        <pt x="439" y="-280" on="1"/>
        <pt x="439" y="-56" on="1"/>
        <pt x="464" y="-14" on="0"/>
        <pt x="496" y="79" on="0"/>
        <pt x="496" y="143" on="1"/>
        <pt x="422" y="139" on="0"/>
        <pt x="302" y="117" on="0"/>
        <pt x="247" y="99" on="1"/>
        <pt x="74" y="99" on="1"/>
        <pt x="74" y="297" on="1"/>
        <pt x="231" y="297" on="1"/>
        <pt x="294" y="279" on="0"/>
        <pt x="424" y="255" on="0"/>
      </contour>
    </TTGlyph>
    <TTGlyph name="degree" xMin="47" yMin="776" xMax="699" yMax="1421">
      <contour>
        <pt x="374" y="1421" on="1"/>
        <pt x="441" y="1421" on="0"/>
        <pt x="560" y="1370" on="0"/>
        <pt x="648" y="1282" on="0"/>
        <pt x="699" y="1165" on="0"/>
        <pt x="699" y="1098" on="1"/>
        <pt x="699" y="1030" on="0"/>
        <pt x="647" y="913" on="0"/>
        <pt x="558" y="826" on="0"/>
        <pt x="439" y="776" on="0"/>
        <pt x="373" y="776" on="1"/>
        <pt x="305" y="776" on="0"/>
        <pt x="186" y="827" on="0"/>
        <pt x="98" y="914" on="0"/>
        <pt x="47" y="1031" on="0"/>
        <pt x="47" y="1098" on="1"/>
        <pt x="47" y="1165" on="0"/>
        <pt x="98" y="1283" on="0"/>
        <pt x="187" y="1370" on="0"/>
        <pt x="306" y="1421" on="0"/>
      </contour>
      <contour>
        <pt x="561" y="1098" on="1"/>
        <pt x="561" y="1134" on="0"/>
        <pt x="533" y="1202" on="0"/>
        <pt x="482" y="1254" on="0"/>
        <pt x="413" y="1285" on="0"/>
        <pt x="373" y="1285" on="1"/>
        <pt x="332" y="1285" on="0"/>
        <pt x="263" y="1255" on="0"/>
        <pt x="212" y="1204" on="0"/>
        <pt x="184" y="1136" on="0"/>
        <pt x="184" y="1098" on="1"/>
        <pt x="184" y="1060" on="0"/>
        <pt x="213" y="993" on="0"/>
        <pt x="263" y="942" on="0"/>
        <pt x="332" y="912" on="0"/>
        <pt x="373" y="912" on="1"/>
        <pt x="412" y="912" on="0"/>
        <pt x="480" y="941" on="0"/>
        <pt x="531" y="992" on="0"/>
        <pt x="561" y="1059" on="0"/>
      </contour>
    </TTGlyph>
    <TTGlyph name="dieresis" xMin="68" yMin="1102" xMax="785" yMax="1359">
      <contour>
        <pt x="656" y="1359" on="1"/>
        <pt x="684" y="1359" on="0"/>
        <pt x="731" y="1340" on="0"/>
        <pt x="765" y="1305" on="0"/>
        <pt x="785" y="1258" on="0"/>
        <pt x="785" y="1231" on="1"/>
        <pt x="785" y="1203" on="0"/>
        <pt x="766" y="1156" on="0"/>
        <pt x="731" y="1121" on="0"/>
        <pt x="684" y="1102" on="0"/>
        <pt x="656" y="1102" on="1"/>
        <pt x="627" y="1102" on="0"/>
        <pt x="579" y="1122" on="0"/>
        <pt x="545" y="1156" on="0"/>
        <pt x="525" y="1204" on="0"/>
        <pt x="525" y="1231" on="1"/>
        <pt x="525" y="1258" on="0"/>
        <pt x="545" y="1305" on="0"/>
        <pt x="580" y="1339" on="0"/>
        <pt x="628" y="1359" on="0"/>
      </contour>
      <contour>
        <pt x="200" y="1359" on="1"/>
        <pt x="227" y="1359" on="0"/>
        <pt x="275" y="1340" on="0"/>
        <pt x="309" y="1306" on="0"/>
        <pt x="329" y="1259" on="0"/>
        <pt x="329" y="1231" on="1"/>
        <pt x="329" y="1174" on="0"/>
        <pt x="256" y="1102" on="0"/>
        <pt x="199" y="1102" on="1"/>
        <pt x="170" y="1102" on="0"/>
        <pt x="122" y="1121" on="0"/>
        <pt x="88" y="1156" on="0"/>
        <pt x="68" y="1203" on="0"/>
        <pt x="68" y="1231" on="1"/>
        <pt x="68" y="1258" on="0"/>
        <pt x="88" y="1305" on="0"/>
        <pt x="124" y="1340" on="0"/>
        <pt x="172" y="1359" on="0"/>
      </contour>
    </TTGlyph>
    <TTGlyph name="divide" xMin="187" yMin="113" xMax="1348" yMax="1164">
      <contour>
        <pt x="769" y="1164" on="1"/>
        <pt x="798" y="1164" on="0"/>
        <pt x="848" y="1142" on="0"/>
        <pt x="884" y="1104" on="0"/>
        <pt x="905" y="1055" on="0"/>
        <pt x="905" y="1027" on="1"/>
        <pt x="905" y="998" on="0"/>
        <pt x="884" y="949" on="0"/>
        <pt x="847" y="913" on="0"/>
        <pt x="797" y="892" on="0"/>
        <pt x="769" y="892" on="1"/>
        <pt x="740" y="892" on="0"/>
        <pt x="689" y="913" on="0"/>
        <pt x="652" y="950" on="0"/>
        <pt x="631" y="999" on="0"/>
        <pt x="631" y="1027" on="1"/>
        <pt x="631" y="1055" on="0"/>
        <pt x="653" y="1105" on="0"/>
        <pt x="690" y="1142" on="0"/>
        <pt x="740" y="1164" on="0"/>
      </contour>
      <contour>
        <pt x="1348" y="541" on="1"/>
        <pt x="187" y="541" on="1"/>
        <pt x="187" y="737" on="1"/>
        <pt x="1348" y="737" on="1"/>
      </contour>
      <contour>
        <pt x="769" y="385" on="1"/>
        <pt x="797" y="385" on="0"/>
        <pt x="847" y="363" on="0"/>
        <pt x="884" y="325" on="0"/>
        <pt x="905" y="275" on="0"/>
        <pt x="905" y="248" on="1"/>
        <pt x="905" y="220" on="0"/>
        <pt x="884" y="171" on="0"/>
        <pt x="847" y="134" on="0"/>
        <pt x="797" y="113" on="0"/>
        <pt x="769" y="113" on="1"/>
        <pt x="740" y="113" on="0"/>
        <pt x="689" y="134" on="0"/>
        <pt x="652" y="171" on="0"/>
        <pt x="631" y="220" on="0"/>
        <pt x="631" y="248" on="1"/>
        <pt x="631" y="277" on="0"/>
        <pt x="653" y="327" on="0"/>
        <pt x="691" y="364" on="0"/>
        <pt x="741" y="385" on="0"/>
      </contour>
    </TTGlyph>
    <TTGlyph name="dollar" xMin="107" yMin="-191" xMax="1109" yMax="1446">
      <contour>
        <pt x="666" y="1446" on="1"/>
        <pt x="666" y="1306" on="1"/>
        <pt x="781" y="1298" on="0"/>
        <pt x="983" y="1243" on="0"/>
        <pt x="1068" y="1193" on="1"/>
        <pt x="1069" y="944" on="1"/>
        <pt x="883" y="944" on="1"/>
        <pt x="883" y="1048" on="0"/>
        <pt x="779" y="1163" on="0"/>
        <pt x="666" y="1174" on="1"/>
        <pt x="666" y="763" on="1"/>
        <pt x="793" y="729" on="0"/>
        <pt x="963" y="646" on="0"/>
        <pt x="1066" y="547" on="0"/>
        <pt x="1109" y="430" on="0"/>
        <pt x="1109" y="362" on="1"/>
        <pt x="1109" y="290" on="0"/>
        <pt x="1052" y="160" on="0"/>
        <pt x="940" y="59" on="0"/>
        <pt x="770" y="-5" on="0"/>
        <pt x="658" y="-10" on="1"/>
        <pt x="658" y="-191" on="1"/>
        <pt x="545" y="-191" on="1"/>
        <pt x="545" y="-8" on="1"/>
        <pt x="405" y="-1" on="0"/>
        <pt x="184" y="62" on="0"/>
        <pt x="107" y="119" on="1"/>
        <pt x="107" y="368" on="1"/>
        <pt x="298" y="368" on="1"/>
        <pt x="299" y="309" on="0"/>
        <pt x="328" y="221" on="0"/>
        <pt x="387" y="160" on="0"/>
        <pt x="480" y="125" on="0"/>
        <pt x="545" y="119" on="1"/>
        <pt x="545" y="565" on="1"/>
        <pt x="330" y="620" on="0"/>
        <pt x="120" y="811" on="0"/>
        <pt x="120" y="950" on="1"/>
        <pt x="120" y="1027" on="0"/>
        <pt x="179" y="1153" on="0"/>
        <pt x="290" y="1245" on="0"/>
        <pt x="452" y="1299" on="0"/>
        <pt x="554" y="1305" on="1"/>
        <pt x="554" y="1446" on="1"/>
      </contour>
      <contour>
        <pt x="554" y="1179" on="1"/>
        <pt x="446" y="1171" on="0"/>
        <pt x="327" y="1077" on="0"/>
        <pt x="327" y="993" on="1"/>
        <pt x="327" y="919" on="0"/>
        <pt x="436" y="826" on="0"/>
        <pt x="554" y="794" on="1"/>
      </contour>
      <contour>
        <pt x="658" y="115" on="1"/>
        <pt x="709" y="119" on="0"/>
        <pt x="793" y="149" on="0"/>
        <pt x="853" y="200" on="0"/>
        <pt x="885" y="273" on="0"/>
        <pt x="885" y="320" on="1"/>
        <pt x="885" y="400" on="0"/>
        <pt x="774" y="506" on="0"/>
        <pt x="658" y="535" on="1"/>
      </contour>
    </TTGlyph>
    <TTGlyph name="dotaccent" xMin="292" yMin="1098" xMax="560" yMax="1364">
      <contour>
        <pt x="427" y="1364" on="1"/>
        <pt x="456" y="1364" on="0"/>
        <pt x="505" y="1344" on="0"/>
        <pt x="540" y="1308" on="0"/>
        <pt x="560" y="1259" on="0"/>
        <pt x="560" y="1231" on="1"/>
        <pt x="560" y="1202" on="0"/>
        <pt x="540" y="1154" on="0"/>
        <pt x="505" y="1118" on="0"/>
        <pt x="456" y="1098" on="0"/>
        <pt x="427" y="1098" on="1"/>
        <pt x="398" y="1098" on="0"/>
        <pt x="348" y="1119" on="0"/>
        <pt x="312" y="1155" on="0"/>
        <pt x="292" y="1204" on="0"/>
        <pt x="292" y="1232" on="1"/>
        <pt x="292" y="1260" on="0"/>
        <pt x="313" y="1308" on="0"/>
        <pt x="349" y="1344" on="0"/>
        <pt x="398" y="1364" on="0"/>
      </contour>
    </TTGlyph>
    <TTGlyph name="dotlessi" xMin="56" yMin="0" xMax="603" yMax="912">
      <contour>
        <pt x="486" y="254" on="1"/>
        <pt x="486" y="223" on="0"/>
        <pt x="495" y="187" on="0"/>
        <pt x="520" y="168" on="0"/>
        <pt x="566" y="162" on="0"/>
        <pt x="603" y="162" on="1"/>
        <pt x="603" y="0" on="1"/>
        <pt x="569" y="0" on="0"/>
        <pt x="486" y="1" on="0"/>
        <pt x="401" y="1" on="0"/>
        <pt x="322" y="2" on="0"/>
        <pt x="292" y="2" on="1"/>
        <pt x="256" y="2" on="0"/>
        <pt x="194" y="1" on="0"/>
        <pt x="138" y="1" on="0"/>
        <pt x="84" y="0" on="0"/>
        <pt x="56" y="0" on="1"/>
        <pt x="56" y="162" on="1"/>
        <pt x="98" y="162" on="0"/>
        <pt x="147" y="167" on="0"/>
        <pt x="173" y="186" on="0"/>
        <pt x="181" y="222" on="0"/>
        <pt x="181" y="254" on="1"/>
        <pt x="181" y="692" on="1"/>
        <pt x="181" y="713" on="0"/>
        <pt x="167" y="735" on="0"/>
        <pt x="137" y="746" on="0"/>
        <pt x="92" y="748" on="0"/>
        <pt x="61" y="748" on="1"/>
        <pt x="61" y="789" on="0"/>
        <pt x="62" y="867" on="0"/>
        <pt x="62" y="908" on="1"/>
        <pt x="104" y="908" on="0"/>
        <pt x="180" y="907" on="0"/>
        <pt x="216" y="907" on="1"/>
        <pt x="281" y="907" on="0"/>
        <pt x="416" y="909" on="0"/>
        <pt x="486" y="912" on="1"/>
      </contour>
    </TTGlyph>
    <TTGlyph name="e" xMin="79" yMin="-23" xMax="1122" yMax="936">
      <contour>
        <pt x="1068" y="415" on="1"/>
        <pt x="388" y="415" on="1"/>
        <pt x="389" y="272" on="0"/>
        <pt x="527" y="137" on="0"/>
        <pt x="647" y="137" on="1"/>
        <pt x="732" y="137" on="0"/>
        <pt x="849" y="215" on="0"/>
        <pt x="874" y="270" on="1"/>
        <pt x="1102" y="252" on="1"/>
        <pt x="1062" y="115" on="0"/>
        <pt x="813" y="-23" on="0"/>
        <pt x="624" y="-23" on="1"/>
        <pt x="486" y="-23" on="0"/>
        <pt x="282" y="49" on="0"/>
        <pt x="146" y="171" on="0"/>
        <pt x="79" y="347" on="0"/>
        <pt x="79" y="451" on="1"/>
        <pt x="79" y="562" on="0"/>
        <pt x="154" y="742" on="0"/>
        <pt x="292" y="868" on="0"/>
        <pt x="486" y="936" on="0"/>
        <pt x="605" y="936" on="1"/>
        <pt x="720" y="936" on="0"/>
        <pt x="910" y="871" on="0"/>
        <pt x="1046" y="742" on="0"/>
        <pt x="1122" y="550" on="0"/>
        <pt x="1122" y="423" on="1"/>
      </contour>
      <contour>
        <pt x="836" y="545" on="1"/>
        <pt x="836" y="552" on="1"/>
        <pt x="836" y="555" on="0"/>
        <pt x="835" y="562" on="0"/>
        <pt x="835" y="566" on="1"/>
        <pt x="826" y="672" on="0"/>
        <pt x="712" y="789" on="0"/>
        <pt x="619" y="789" on="1"/>
        <pt x="516" y="789" on="0"/>
        <pt x="399" y="659" on="0"/>
        <pt x="391" y="546" on="1"/>
        <pt x="836" y="546" on="1"/>
      </contour>
    </TTGlyph>
    <TTGlyph name="eacute" xMin="79" yMin="-23" xMax="1122" yMax="1405">
      <component glyphName="acute" x="102" y="0" flags="0x1004"/>
      <component glyphName="e" x="0" y="0" flags="0x1004"/>
    </TTGlyph>
    <TTGlyph name="ecircumflex" xMin="79" yMin="-23" xMax="1122" yMax="1390">
      <component glyphName="circumflex" x="173" y="0" flags="0x1004"/>
      <component glyphName="e" x="0" y="0" flags="0x1004"/>
    </TTGlyph>
    <TTGlyph name="edieresis" xMin="79" yMin="-23" xMax="1122" yMax="1359">
      <component glyphName="dieresis" x="172" y="0" flags="0x1004"/>
      <component glyphName="e" x="0" y="0" flags="0x1004"/>
    </TTGlyph>
    <TTGlyph name="egrave" xMin="79" yMin="-23" xMax="1122" yMax="1408">
      <component glyphName="e" x="0" y="0" flags="0x1204"/>
      <component glyphName="grave" x="245" y="0" flags="0x1004"/>
    </TTGlyph>
    <TTGlyph name="eight" xMin="97" yMin="-25" xMax="1159" yMax="1335">
      <contour>
        <pt x="865" y="691" on="1"/>
        <pt x="1018" y="649" on="0"/>
        <pt x="1159" y="483" on="0"/>
        <pt x="1159" y="356" on="1"/>
        <pt x="1159" y="275" on="0"/>
        <pt x="1099" y="136" on="0"/>
        <pt x="969" y="33" on="0"/>
        <pt x="766" y="-25" on="0"/>
        <pt x="624" y="-25" on="1"/>
        <pt x="494" y="-25" on="0"/>
        <pt x="297" y="28" on="0"/>
        <pt x="164" y="126" on="0"/>
        <pt x="97" y="266" on="0"/>
        <pt x="97" y="354" on="1"/>
        <pt x="97" y="476" on="0"/>
        <pt x="239" y="640" on="0"/>
        <pt x="389" y="690" on="1"/>
        <pt x="269" y="723" on="0"/>
        <pt x="142" y="875" on="0"/>
        <pt x="142" y="984" on="1"/>
        <pt x="142" y="1066" on="0"/>
        <pt x="208" y="1196" on="0"/>
        <pt x="333" y="1287" on="0"/>
        <pt x="512" y="1335" on="0"/>
        <pt x="625" y="1335" on="1"/>
        <pt x="740" y="1335" on="0"/>
        <pt x="924" y="1288" on="0"/>
        <pt x="1053" y="1199" on="0"/>
        <pt x="1122" y="1072" on="0"/>
        <pt x="1122" y="991" on="1"/>
        <pt x="1122" y="877" on="0"/>
        <pt x="993" y="730" on="0"/>
      </contour>
      <contour>
        <pt x="630" y="168" on="1"/>
        <pt x="685" y="168" on="0"/>
        <pt x="786" y="192" on="0"/>
        <pt x="864" y="240" on="0"/>
        <pt x="910" y="314" on="0"/>
        <pt x="910" y="366" on="1"/>
        <pt x="910" y="455" on="0"/>
        <pt x="770" y="591" on="0"/>
        <pt x="628" y="626" on="1"/>
        <pt x="494" y="595" on="0"/>
        <pt x="358" y="465" on="0"/>
        <pt x="358" y="365" on="1"/>
        <pt x="358" y="316" on="0"/>
        <pt x="398" y="242" on="0"/>
        <pt x="470" y="193" on="0"/>
        <pt x="570" y="168" on="0"/>
      </contour>
      <contour>
        <pt x="634" y="1149" on="1"/>
        <pt x="589" y="1149" on="0"/>
        <pt x="505" y="1132" on="0"/>
        <pt x="442" y="1096" on="0"/>
        <pt x="404" y="1040" on="0"/>
        <pt x="404" y="1001" on="1"/>
        <pt x="404" y="920" on="0"/>
        <pt x="520" y="806" on="0"/>
        <pt x="635" y="771" on="1"/>
        <pt x="852" y="833" on="0"/>
        <pt x="852" y="994" on="1"/>
        <pt x="852" y="1037" on="0"/>
        <pt x="816" y="1097" on="0"/>
        <pt x="756" y="1133" on="0"/>
        <pt x="677" y="1149" on="0"/>
      </contour>
    </TTGlyph>
    <TTGlyph name="ellipsis" xMin="145" yMin="-12" xMax="1782" yMax="231">
      <contour>
        <pt x="318" y="231" on="1"/>
        <pt x="357" y="231" on="0"/>
        <pt x="420" y="213" on="0"/>
        <pt x="465" y="182" on="0"/>
        <pt x="490" y="137" on="0"/>
        <pt x="490" y="110" on="1"/>
        <pt x="490" y="57" on="0"/>
        <pt x="402" y="-12" on="0"/>
        <pt x="318" y="-12" on="1"/>
        <pt x="236" y="-12" on="0"/>
        <pt x="145" y="52" on="0"/>
        <pt x="145" y="110" on="1"/>
        <pt x="145" y="162" on="0"/>
        <pt x="237" y="231" on="0"/>
      </contour>
      <contour>
        <pt x="964" y="231" on="1"/>
        <pt x="1003" y="231" on="0"/>
        <pt x="1066" y="213" on="0"/>
        <pt x="1111" y="182" on="0"/>
        <pt x="1136" y="137" on="0"/>
        <pt x="1136" y="110" on="1"/>
        <pt x="1136" y="57" on="0"/>
        <pt x="1048" y="-12" on="0"/>
        <pt x="964" y="-12" on="1"/>
        <pt x="882" y="-12" on="0"/>
        <pt x="791" y="52" on="0"/>
        <pt x="791" y="110" on="1"/>
        <pt x="791" y="162" on="0"/>
        <pt x="883" y="231" on="0"/>
      </contour>
      <contour>
        <pt x="1610" y="231" on="1"/>
        <pt x="1649" y="231" on="0"/>
        <pt x="1712" y="213" on="0"/>
        <pt x="1757" y="182" on="0"/>
        <pt x="1782" y="137" on="0"/>
        <pt x="1782" y="110" on="1"/>
        <pt x="1782" y="57" on="0"/>
        <pt x="1694" y="-12" on="0"/>
        <pt x="1610" y="-12" on="1"/>
        <pt x="1528" y="-12" on="0"/>
        <pt x="1437" y="52" on="0"/>
        <pt x="1437" y="110" on="1"/>
        <pt x="1437" y="162" on="0"/>
        <pt x="1529" y="231" on="0"/>
      </contour>
    </TTGlyph>
    <TTGlyph name="emdash" xMin="-6" yMin="413" xMax="2054" yMax="640">
      <contour>
        <pt x="2054" y="640" on="1"/>
        <pt x="2054" y="413" on="1"/>
        <pt x="-6" y="413" on="1"/>
        <pt x="-6" y="640" on="1"/>
      </contour>
    </TTGlyph>
    <TTGlyph name="endash" xMin="-6" yMin="413" xMax="1030" yMax="640">
      <contour>
        <pt x="1030" y="640" on="1"/>
        <pt x="1030" y="413" on="1"/>
        <pt x="-6" y="413" on="1"/>
        <pt x="-6" y="640" on="1"/>
      </contour>
    </TTGlyph>
    <TTGlyph name="equal" xMin="187" yMin="322" xMax="1348" yMax="956">
      <contour>
        <pt x="1348" y="759" on="1"/>
        <pt x="187" y="759" on="1"/>
        <pt x="187" y="956" on="1"/>
        <pt x="1348" y="956" on="1"/>
      </contour>
      <contour>
        <pt x="1348" y="322" on="1"/>
        <pt x="187" y="322" on="1"/>
        <pt x="187" y="518" on="1"/>
        <pt x="1348" y="518" on="1"/>
      </contour>
    </TTGlyph>
    <TTGlyph name="eth" xMin="83" yMin="-30" xMax="1179" yMax="1337">
      <contour>
        <pt x="766" y="887" on="1"/>
        <pt x="744" y="942" on="0"/>
        <pt x="675" y="1050" on="0"/>
        <pt x="627" y="1097" on="1"/>
        <pt x="362" y="991" on="1"/>
        <pt x="287" y="1061" on="1"/>
        <pt x="559" y="1166" on="1"/>
        <pt x="487" y="1232" on="0"/>
        <pt x="398" y="1297" on="1"/>
        <pt x="608" y="1336" on="1"/>
        <pt x="656" y="1319" on="0"/>
        <pt x="742" y="1270" on="0"/>
        <pt x="777" y="1244" on="1"/>
        <pt x="1013" y="1337" on="1"/>
        <pt x="1087" y="1267" on="1"/>
        <pt x="853" y="1178" on="1"/>
        <pt x="920" y="1111" on="0"/>
        <pt x="1038" y="961" on="0"/>
        <pt x="1127" y="798" on="0"/>
        <pt x="1179" y="624" on="0"/>
        <pt x="1179" y="534" on="1"/>
        <pt x="1179" y="396" on="0"/>
        <pt x="1107" y="186" on="0"/>
        <pt x="969" y="43" on="0"/>
        <pt x="767" y="-30" on="0"/>
        <pt x="637" y="-30" on="1"/>
        <pt x="512" y="-30" on="0"/>
        <pt x="307" y="37" on="0"/>
        <pt x="162" y="163" on="0"/>
        <pt x="83" y="344" on="0"/>
        <pt x="83" y="458" on="1"/>
        <pt x="83" y="564" on="0"/>
        <pt x="155" y="740" on="0"/>
        <pt x="285" y="866" on="0"/>
        <pt x="465" y="936" on="0"/>
        <pt x="572" y="936" on="1"/>
        <pt x="627" y="936" on="0"/>
        <pt x="726" y="908" on="0"/>
        <pt x="764" y="885" on="1"/>
        <pt x="764" y="885" on="0"/>
      </contour>
      <contour>
        <pt x="396" y="450" on="1"/>
        <pt x="396" y="378" on="0"/>
        <pt x="428" y="262" on="0"/>
        <pt x="488" y="181" on="0"/>
        <pt x="575" y="137" on="0"/>
        <pt x="631" y="137" on="1"/>
        <pt x="744" y="137" on="0"/>
        <pt x="867" y="307" on="0"/>
        <pt x="867" y="462" on="1"/>
        <pt x="867" y="532" on="0"/>
        <pt x="836" y="646" on="0"/>
        <pt x="777" y="727" on="0"/>
        <pt x="690" y="771" on="0"/>
        <pt x="633" y="771" on="1"/>
        <pt x="518" y="771" on="0"/>
        <pt x="396" y="602" on="0"/>
      </contour>
    </TTGlyph>
    <TTGlyph name="exclam" xMin="168" yMin="-12" xMax="515" yMax="1307">
      <contour>
        <pt x="341" y="231" on="1"/>
        <pt x="380" y="231" on="0"/>
        <pt x="443" y="213" on="0"/>
        <pt x="488" y="182" on="0"/>
        <pt x="513" y="137" on="0"/>
        <pt x="513" y="110" on="1"/>
        <pt x="513" y="57" on="0"/>
        <pt x="424" y="-12" on="0"/>
        <pt x="341" y="-12" on="1"/>
        <pt x="258" y="-12" on="0"/>
        <pt x="168" y="52" on="0"/>
        <pt x="168" y="110" on="1"/>
        <pt x="168" y="162" on="0"/>
        <pt x="260" y="231" on="0"/>
      </contour>
      <contour>
        <pt x="512" y="1307" on="1"/>
        <pt x="513" y="1299" on="0"/>
        <pt x="514" y="1265" on="0"/>
        <pt x="515" y="1228" on="0"/>
        <pt x="515" y="1194" on="0"/>
        <pt x="515" y="1186" on="1"/>
        <pt x="515" y="1150" on="0"/>
        <pt x="505" y="1031" on="0"/>
        <pt x="489" y="886" on="0"/>
        <pt x="469" y="730" on="0"/>
        <pt x="449" y="586" on="0"/>
        <pt x="429" y="467" on="0"/>
        <pt x="422" y="432" on="1"/>
        <pt x="274" y="432" on="1"/>
        <pt x="267" y="466" on="0"/>
        <pt x="248" y="585" on="0"/>
        <pt x="228" y="729" on="0"/>
        <pt x="208" y="887" on="0"/>
        <pt x="193" y="1033" on="0"/>
        <pt x="183" y="1154" on="0"/>
        <pt x="183" y="1190" on="1"/>
        <pt x="183" y="1198" on="0"/>
        <pt x="183" y="1230" on="0"/>
        <pt x="184" y="1266" on="0"/>
        <pt x="185" y="1299" on="0"/>
        <pt x="186" y="1307" on="1"/>
      </contour>
    </TTGlyph>
    <TTGlyph name="exclamdown" xMin="168" yMin="-12" xMax="515" yMax="1307">
      <component glyphName="exclam" x="0" y="0" flags="0x1204"/>
    </TTGlyph>
    <TTGlyph name="f" xMin="53" yMin="0" xMax="868" yMax="1337">
      <contour>
        <pt x="850" y="1066" on="1"/>
        <pt x="742" y="1066" on="1"/>
        <pt x="737" y="1114" on="0"/>
        <pt x="680" y="1175" on="0"/>
        <pt x="630" y="1175" on="1"/>
        <pt x="586" y="1175" on="0"/>
        <pt x="535" y="1144" on="0"/>
        <pt x="509" y="1088" on="0"/>
        <pt x="501" y="1009" on="0"/>
        <pt x="501" y="962" on="1"/>
        <pt x="501" y="908" on="1"/>
        <pt x="714" y="908" on="1"/>
        <pt x="714" y="748" on="1"/>
        <pt x="501" y="748" on="1"/>
        <pt x="501" y="239" on="1"/>
        <pt x="501" y="210" on="0"/>
        <pt x="523" y="179" on="0"/>
        <pt x="564" y="164" on="0"/>
        <pt x="624" y="162" on="0"/>
        <pt x="663" y="162" on="1"/>
        <pt x="663" y="0" on="1"/>
        <pt x="604" y="0" on="0"/>
        <pt x="543" y="1" on="1"/>
        <pt x="491" y="1" on="0"/>
        <pt x="369" y="2" on="0"/>
        <pt x="313" y="2" on="1"/>
        <pt x="273" y="2" on="0"/>
        <pt x="185" y="1" on="0"/>
        <pt x="148" y="1" on="1"/>
        <pt x="105" y="0" on="0"/>
        <pt x="63" y="0" on="1"/>
        <pt x="63" y="77" on="1"/>
        <pt x="63" y="92" on="0"/>
        <pt x="63" y="120" on="0"/>
        <pt x="64" y="144" on="0"/>
        <pt x="64" y="160" on="0"/>
        <pt x="64" y="162" on="1"/>
        <pt x="104" y="162" on="0"/>
        <pt x="155" y="166" on="0"/>
        <pt x="184" y="182" on="0"/>
        <pt x="195" y="214" on="0"/>
        <pt x="195" y="242" on="1"/>
        <pt x="195" y="748" on="1"/>
        <pt x="53" y="748" on="1"/>
        <pt x="53" y="908" on="1"/>
        <pt x="195" y="908" on="1"/>
        <pt x="195" y="971" on="1"/>
        <pt x="195" y="1157" on="0"/>
        <pt x="392" y="1337" on="0"/>
        <pt x="583" y="1337" on="1"/>
        <pt x="616" y="1337" on="0"/>
        <pt x="689" y="1333" on="0"/>
        <pt x="763" y="1326" on="0"/>
        <pt x="835" y="1315" on="0"/>
        <pt x="868" y="1309" on="1"/>
      </contour>
    </TTGlyph>
    <TTGlyph name="fi" xMin="53" yMin="0" xMax="1353" yMax="1337">
      <contour>
        <pt x="1236" y="254" on="1"/>
        <pt x="1236" y="223" on="0"/>
        <pt x="1245" y="187" on="0"/>
        <pt x="1270" y="168" on="0"/>
        <pt x="1316" y="162" on="0"/>
        <pt x="1353" y="162" on="1"/>
        <pt x="1353" y="0" on="1"/>
        <pt x="1319" y="0" on="0"/>
        <pt x="1236" y="1" on="0"/>
        <pt x="1151" y="1" on="0"/>
        <pt x="1072" y="2" on="0"/>
        <pt x="1042" y="2" on="1"/>
        <pt x="1006" y="2" on="0"/>
        <pt x="944" y="1" on="0"/>
        <pt x="888" y="1" on="0"/>
        <pt x="834" y="0" on="0"/>
        <pt x="806" y="0" on="1"/>
        <pt x="806" y="162" on="1"/>
        <pt x="848" y="162" on="0"/>
        <pt x="897" y="167" on="0"/>
        <pt x="923" y="186" on="0"/>
        <pt x="931" y="222" on="0"/>
        <pt x="931" y="254" on="1"/>
        <pt x="931" y="692" on="1"/>
        <pt x="931" y="712" on="0"/>
        <pt x="918" y="735" on="0"/>
        <pt x="890" y="745" on="0"/>
        <pt x="847" y="748" on="0"/>
        <pt x="818" y="748" on="1"/>
        <pt x="501" y="748" on="1"/>
        <pt x="501" y="239" on="1"/>
        <pt x="501" y="210" on="0"/>
        <pt x="523" y="179" on="0"/>
        <pt x="564" y="164" on="0"/>
        <pt x="624" y="162" on="0"/>
        <pt x="663" y="162" on="1"/>
        <pt x="663" y="0" on="1"/>
        <pt x="604" y="0" on="0"/>
        <pt x="543" y="1" on="1"/>
        <pt x="491" y="1" on="0"/>
        <pt x="369" y="2" on="0"/>
        <pt x="313" y="2" on="1"/>
        <pt x="273" y="2" on="0"/>
        <pt x="185" y="1" on="0"/>
        <pt x="148" y="1" on="1"/>
        <pt x="105" y="0" on="0"/>
        <pt x="63" y="0" on="1"/>
        <pt x="63" y="77" on="1"/>
        <pt x="63" y="92" on="0"/>
        <pt x="63" y="120" on="0"/>
        <pt x="64" y="144" on="0"/>
        <pt x="64" y="160" on="0"/>
        <pt x="64" y="162" on="1"/>
        <pt x="104" y="162" on="0"/>
        <pt x="155" y="166" on="0"/>
        <pt x="184" y="182" on="0"/>
        <pt x="195" y="214" on="0"/>
        <pt x="195" y="242" on="1"/>
        <pt x="195" y="748" on="1"/>
        <pt x="53" y="748" on="1"/>
        <pt x="53" y="908" on="1"/>
        <pt x="195" y="908" on="1"/>
        <pt x="195" y="1045" on="1"/>
        <pt x="195" y="1100" on="0"/>
        <pt x="240" y="1185" on="0"/>
        <pt x="319" y="1250" on="0"/>
        <pt x="426" y="1295" on="0"/>
        <pt x="551" y="1324" on="0"/>
        <pt x="687" y="1337" on="0"/>
        <pt x="755" y="1337" on="1"/>
        <pt x="848" y="1337" on="0"/>
        <pt x="1022" y="1308" on="0"/>
        <pt x="1157" y="1257" on="0"/>
        <pt x="1238" y="1188" on="0"/>
        <pt x="1238" y="1149" on="1"/>
        <pt x="1238" y="1093" on="0"/>
        <pt x="1145" y="1041" on="0"/>
        <pt x="1065" y="1041" on="1"/>
        <pt x="1033" y="1041" on="0"/>
        <pt x="980" y="1046" on="0"/>
        <pt x="937" y="1060" on="0"/>
        <pt x="907" y="1086" on="0"/>
        <pt x="900" y="1106" on="1"/>
        <pt x="891" y="1127" on="0"/>
        <pt x="850" y="1159" on="0"/>
        <pt x="799" y="1182" on="0"/>
        <pt x="743" y="1193" on="0"/>
        <pt x="718" y="1193" on="1"/>
        <pt x="608" y="1193" on="0"/>
        <pt x="501" y="1123" on="0"/>
        <pt x="501" y="1036" on="1"/>
        <pt x="501" y="908" on="1"/>
        <pt x="818" y="908" on="1"/>
        <pt x="857" y="908" on="0"/>
        <pt x="931" y="907" on="0"/>
        <pt x="966" y="907" on="1"/>
        <pt x="1031" y="907" on="0"/>
        <pt x="1166" y="909" on="0"/>
        <pt x="1236" y="912" on="1"/>
      </contour>
    </TTGlyph>
    <TTGlyph name="five" xMin="142" yMin="-26" xMax="1128" yMax="1308">
      <contour>
        <pt x="1067" y="1308" on="1"/>
        <pt x="1067" y="1069" on="1"/>
        <pt x="893" y="1069" on="1"/>
        <pt x="893" y="1101" on="0"/>
        <pt x="888" y="1130" on="0"/>
        <pt x="871" y="1130" on="1"/>
        <pt x="401" y="1130" on="1"/>
        <pt x="397" y="1032" on="0"/>
        <pt x="394" y="955" on="1"/>
        <pt x="392" y="922" on="0"/>
        <pt x="391" y="860" on="0"/>
        <pt x="390" y="835" on="1"/>
        <pt x="389" y="806" on="0"/>
        <pt x="388" y="780" on="1"/>
        <pt x="449" y="822" on="0"/>
        <pt x="588" y="863" on="0"/>
        <pt x="671" y="863" on="1"/>
        <pt x="774" y="863" on="0"/>
        <pt x="942" y="802" on="0"/>
        <pt x="1062" y="690" on="0"/>
        <pt x="1128" y="531" on="0"/>
        <pt x="1128" y="433" on="1"/>
        <pt x="1128" y="322" on="0"/>
        <pt x="1055" y="151" on="0"/>
        <pt x="920" y="34" on="0"/>
        <pt x="728" y="-26" on="0"/>
        <pt x="609" y="-26" on="1"/>
        <pt x="478" y="-26" on="0"/>
        <pt x="243" y="37" on="0"/>
        <pt x="143" y="97" on="1"/>
        <pt x="142" y="342" on="1"/>
        <pt x="350" y="347" on="1"/>
        <pt x="364" y="256" on="0"/>
        <pt x="479" y="168" on="0"/>
        <pt x="589" y="168" on="1"/>
        <pt x="646" y="168" on="0"/>
        <pt x="739" y="201" on="0"/>
        <pt x="805" y="267" on="0"/>
        <pt x="841" y="363" on="0"/>
        <pt x="841" y="426" on="1"/>
        <pt x="841" y="482" on="0"/>
        <pt x="806" y="571" on="0"/>
        <pt x="742" y="633" on="0"/>
        <pt x="649" y="666" on="0"/>
        <pt x="592" y="666" on="1"/>
        <pt x="516" y="666" on="0"/>
        <pt x="401" y="615" on="0"/>
        <pt x="361" y="567" on="1"/>
        <pt x="197" y="607" on="1"/>
        <pt x="197" y="1308" on="1"/>
      </contour>
    </TTGlyph>
    <TTGlyph name="fl" xMin="53" yMin="0" xMax="1361" yMax="1337">
      <contour>
        <pt x="1240" y="265" on="1"/>
        <pt x="1240" y="233" on="0"/>
        <pt x="1250" y="193" on="0"/>
        <pt x="1277" y="171" on="0"/>
        <pt x="1324" y="162" on="0"/>
        <pt x="1361" y="162" on="1"/>
        <pt x="1361" y="0" on="1"/>
        <pt x="1327" y="0" on="0"/>
        <pt x="1261" y="0" on="0"/>
        <pt x="1192" y="1" on="0"/>
        <pt x="1116" y="2" on="0"/>
        <pt x="1073" y="2" on="1"/>
        <pt x="993" y="2" on="0"/>
        <pt x="871" y="0" on="0"/>
        <pt x="809" y="0" on="1"/>
        <pt x="809" y="162" on="1"/>
        <pt x="856" y="162" on="0"/>
        <pt x="907" y="174" on="0"/>
        <pt x="931" y="203" on="0"/>
        <pt x="935" y="251" on="0"/>
        <pt x="935" y="287" on="1"/>
        <pt x="935" y="1035" on="1"/>
        <pt x="935" y="1083" on="0"/>
        <pt x="932" y="1138" on="0"/>
        <pt x="927" y="1167" on="0"/>
        <pt x="919" y="1175" on="0"/>
        <pt x="914" y="1175" on="1"/>
        <pt x="670" y="1175" on="1"/>
        <pt x="613" y="1175" on="0"/>
        <pt x="546" y="1144" on="0"/>
        <pt x="511" y="1088" on="0"/>
        <pt x="501" y="1009" on="0"/>
        <pt x="501" y="962" on="1"/>
        <pt x="501" y="908" on="1"/>
        <pt x="714" y="908" on="1"/>
        <pt x="714" y="748" on="1"/>
        <pt x="501" y="748" on="1"/>
        <pt x="501" y="239" on="1"/>
        <pt x="501" y="210" on="0"/>
        <pt x="523" y="179" on="0"/>
        <pt x="564" y="164" on="0"/>
        <pt x="624" y="162" on="0"/>
        <pt x="663" y="162" on="1"/>
        <pt x="663" y="0" on="1"/>
        <pt x="604" y="0" on="0"/>
        <pt x="543" y="1" on="1"/>
        <pt x="491" y="1" on="0"/>
        <pt x="369" y="2" on="0"/>
        <pt x="313" y="2" on="1"/>
        <pt x="273" y="2" on="0"/>
        <pt x="185" y="1" on="0"/>
        <pt x="148" y="1" on="1"/>
        <pt x="105" y="0" on="0"/>
        <pt x="63" y="0" on="1"/>
        <pt x="63" y="77" on="1"/>
        <pt x="63" y="92" on="0"/>
        <pt x="63" y="120" on="0"/>
        <pt x="64" y="144" on="0"/>
        <pt x="64" y="160" on="0"/>
        <pt x="64" y="162" on="1"/>
        <pt x="104" y="162" on="0"/>
        <pt x="155" y="166" on="0"/>
        <pt x="184" y="182" on="0"/>
        <pt x="195" y="214" on="0"/>
        <pt x="195" y="242" on="1"/>
        <pt x="195" y="748" on="1"/>
        <pt x="53" y="748" on="1"/>
        <pt x="53" y="908" on="1"/>
        <pt x="195" y="908" on="1"/>
        <pt x="195" y="971" on="1"/>
        <pt x="195" y="1157" on="0"/>
        <pt x="416" y="1337" on="0"/>
        <pt x="633" y="1337" on="1"/>
        <pt x="708" y="1337" on="0"/>
        <pt x="861" y="1329" on="0"/>
        <pt x="1014" y="1320" on="0"/>
        <pt x="1165" y="1313" on="0"/>
        <pt x="1240" y="1313" on="1"/>
      </contour>
    </TTGlyph>
    <TTGlyph name="florin" xMin="-9" yMin="-403" xMax="1092" yMax="1341">
      <contour>
        <pt x="1047" y="1094" on="1"/>
        <pt x="975" y="1094" on="1"/>
        <pt x="975" y="1136" on="0"/>
        <pt x="936" y="1177" on="0"/>
        <pt x="904" y="1177" on="1"/>
        <pt x="874" y="1177" on="0"/>
        <pt x="832" y="1157" on="0"/>
        <pt x="801" y="1115" on="0"/>
        <pt x="780" y="1048" on="0"/>
        <pt x="772" y="1002" on="1"/>
        <pt x="750" y="874" on="1"/>
        <pt x="928" y="874" on="1"/>
        <pt x="899" y="689" on="1"/>
        <pt x="712" y="689" on="1"/>
        <pt x="683" y="541" on="0"/>
        <pt x="625" y="250" on="0"/>
        <pt x="596" y="102" on="1"/>
        <pt x="572" y="-22" on="0"/>
        <pt x="514" y="-211" on="0"/>
        <pt x="427" y="-338" on="0"/>
        <pt x="303" y="-403" on="0"/>
        <pt x="214" y="-403" on="1"/>
        <pt x="160" y="-403" on="0"/>
        <pt x="56" y="-395" on="0"/>
        <pt x="-9" y="-386" on="1"/>
        <pt x="34" y="-139" on="1"/>
        <pt x="109" y="-139" on="1"/>
        <pt x="109" y="-156" on="0"/>
        <pt x="113" y="-187" on="0"/>
        <pt x="126" y="-211" on="0"/>
        <pt x="150" y="-225" on="0"/>
        <pt x="169" y="-225" on="1"/>
        <pt x="199" y="-225" on="0"/>
        <pt x="242" y="-199" on="0"/>
        <pt x="278" y="-132" on="0"/>
        <pt x="309" y="-17" on="0"/>
        <pt x="326" y="72" on="1"/>
        <pt x="444" y="689" on="1"/>
        <pt x="280" y="689" on="1"/>
        <pt x="309" y="874" on="1"/>
        <pt x="484" y="874" on="1"/>
        <pt x="506" y="989" on="1"/>
        <pt x="523" y="1089" on="0"/>
        <pt x="595" y="1224" on="0"/>
        <pt x="701" y="1306" on="0"/>
        <pt x="837" y="1341" on="0"/>
        <pt x="917" y="1341" on="1"/>
        <pt x="957" y="1341" on="0"/>
        <pt x="1043" y="1331" on="0"/>
        <pt x="1092" y="1322" on="1"/>
      </contour>
    </TTGlyph>
    <TTGlyph name="four" xMin="89" yMin="0" xMax="1158" yMax="1308">
      <contour>
        <pt x="968" y="1308" on="1"/>
        <pt x="968" y="566" on="1"/>
        <pt x="1158" y="566" on="1"/>
        <pt x="1158" y="402" on="1"/>
        <pt x="968" y="402" on="1"/>
        <pt x="968" y="239" on="1"/>
        <pt x="968" y="213" on="0"/>
        <pt x="975" y="181" on="0"/>
        <pt x="997" y="164" on="0"/>
        <pt x="1038" y="158" on="0"/>
        <pt x="1073" y="158" on="1"/>
        <pt x="1130" y="158" on="1"/>
        <pt x="1130" y="0" on="1"/>
        <pt x="1112" y="0" on="0"/>
        <pt x="1029" y="1" on="0"/>
        <pt x="929" y="1" on="0"/>
        <pt x="827" y="2" on="0"/>
        <pt x="790" y="2" on="1"/>
        <pt x="742" y="2" on="0"/>
        <pt x="667" y="1" on="0"/>
        <pt x="602" y="1" on="0"/>
        <pt x="541" y="0" on="0"/>
        <pt x="507" y="0" on="1"/>
        <pt x="507" y="158" on="1"/>
        <pt x="583" y="158" on="1"/>
        <pt x="618" y="158" on="0"/>
        <pt x="666" y="164" on="0"/>
        <pt x="695" y="181" on="0"/>
        <pt x="707" y="209" on="0"/>
        <pt x="707" y="232" on="1"/>
        <pt x="707" y="402" on="1"/>
        <pt x="123" y="402" on="1"/>
        <pt x="115" y="454" on="0"/>
        <pt x="99" y="556" on="0"/>
        <pt x="89" y="607" on="1"/>
        <pt x="666" y="1308" on="1"/>
      </contour>
      <contour>
        <pt x="262" y="563" on="1"/>
        <pt x="710" y="563" on="1"/>
        <pt x="710" y="1130" on="1"/>
      </contour>
    </TTGlyph>
    <TTGlyph name="foursuperior" xMin="73" yMin="0" xMax="793" yMax="866">
      <contour>
        <pt x="680" y="866" on="1"/>
        <pt x="680" y="413" on="1"/>
        <pt x="793" y="413" on="1"/>
        <pt x="793" y="242" on="1"/>
        <pt x="680" y="242" on="1"/>
        <pt x="680" y="180" on="1"/>
        <pt x="680" y="173" on="0"/>
        <pt x="689" y="170" on="0"/>
        <pt x="704" y="170" on="1"/>
        <pt x="777" y="170" on="1"/>
        <pt x="777" y="0" on="1"/>
        <pt x="715" y="0" on="0"/>
        <pt x="638" y="0" on="0"/>
        <pt x="616" y="1" on="1"/>
        <pt x="608" y="1" on="0"/>
        <pt x="584" y="2" on="0"/>
        <pt x="576" y="2" on="1"/>
        <pt x="558" y="2" on="0"/>
        <pt x="523" y="4" on="0"/>
        <pt x="470" y="4" on="0"/>
        <pt x="390" y="3" on="0"/>
        <pt x="328" y="0" on="1"/>
        <pt x="328" y="170" on="1"/>
        <pt x="412" y="170" on="1"/>
        <pt x="432" y="170" on="0"/>
        <pt x="449" y="172" on="0"/>
        <pt x="449" y="176" on="1"/>
        <pt x="449" y="242" on="1"/>
        <pt x="102" y="242" on="1"/>
        <pt x="73" y="413" on="1"/>
        <pt x="443" y="866" on="1"/>
      </contour>
      <contour>
        <pt x="294" y="411" on="1"/>
        <pt x="451" y="411" on="1"/>
        <pt x="451" y="612" on="1"/>
      </contour>
    </TTGlyph>
    <TTGlyph name="fraction" xMin="-286" yMin="-15" xMax="778" yMax="1322">
      <contour>
        <pt x="778" y="1322" on="1"/>
        <pt x="-126" y="-15" on="1"/>
        <pt x="-286" y="-15" on="1"/>
        <pt x="619" y="1322" on="1"/>
      </contour>
    </TTGlyph>
    <TTGlyph name="g" xMin="79" yMin="-429" xMax="1299" yMax="930">
      <contour>
        <pt x="630" y="756" on="1"/>
        <pt x="575" y="756" on="0"/>
        <pt x="486" y="713" on="0"/>
        <pt x="424" y="634" on="0"/>
        <pt x="391" y="522" on="0"/>
        <pt x="391" y="453" on="1"/>
        <pt x="391" y="386" on="0"/>
        <pt x="424" y="278" on="0"/>
        <pt x="487" y="202" on="0"/>
        <pt x="577" y="161" on="0"/>
        <pt x="633" y="161" on="1"/>
        <pt x="689" y="161" on="0"/>
        <pt x="778" y="202" on="0"/>
        <pt x="840" y="280" on="0"/>
        <pt x="873" y="391" on="0"/>
        <pt x="873" y="462" on="1"/>
        <pt x="873" y="528" on="0"/>
        <pt x="840" y="636" on="0"/>
        <pt x="778" y="714" on="0"/>
        <pt x="687" y="756" on="0"/>
      </contour>
      <contour>
        <pt x="883" y="911" on="1"/>
        <pt x="944" y="909" on="0"/>
        <pt x="1066" y="906" on="0"/>
        <pt x="1130" y="906" on="1"/>
        <pt x="1183" y="906" on="0"/>
        <pt x="1260" y="907" on="0"/>
        <pt x="1299" y="908" on="1"/>
        <pt x="1299" y="747" on="1"/>
        <pt x="1283" y="747" on="0"/>
        <pt x="1265" y="748" on="0"/>
        <pt x="1255" y="747" on="1"/>
        <pt x="1228" y="747" on="0"/>
        <pt x="1194" y="737" on="0"/>
        <pt x="1175" y="713" on="0"/>
        <pt x="1168" y="672" on="0"/>
        <pt x="1168" y="641" on="1"/>
        <pt x="1168" y="69" on="1"/>
        <pt x="1168" y="-74" on="0"/>
        <pt x="1096" y="-266" on="0"/>
        <pt x="954" y="-381" on="0"/>
        <pt x="744" y="-429" on="0"/>
        <pt x="606" y="-429" on="1"/>
        <pt x="547" y="-429" on="0"/>
        <pt x="427" y="-418" on="0"/>
        <pt x="312" y="-397" on="0"/>
        <pt x="203" y="-365" on="0"/>
        <pt x="156" y="-345" on="1"/>
        <pt x="195" y="-99" on="1"/>
        <pt x="210" y="-104" on="0"/>
        <pt x="271" y="-108" on="0"/>
        <pt x="302" y="-110" on="1"/>
        <pt x="338" y="-112" on="0"/>
        <pt x="379" y="-113" on="1"/>
        <pt x="385" y="-158" on="0"/>
        <pt x="420" y="-218" on="0"/>
        <pt x="476" y="-253" on="0"/>
        <pt x="553" y="-267" on="0"/>
        <pt x="603" y="-267" on="1"/>
        <pt x="660" y="-267" on="0"/>
        <pt x="756" y="-236" on="0"/>
        <pt x="825" y="-165" on="0"/>
        <pt x="864" y="-53" on="0"/>
        <pt x="865" y="28" on="1"/>
        <pt x="865" y="128" on="1"/>
        <pt x="803" y="68" on="0"/>
        <pt x="638" y="11" on="0"/>
        <pt x="539" y="11" on="1"/>
        <pt x="434" y="11" on="0"/>
        <pt x="264" y="73" on="0"/>
        <pt x="144" y="188" on="0"/>
        <pt x="79" y="354" on="0"/>
        <pt x="79" y="458" on="1"/>
        <pt x="79" y="566" on="0"/>
        <pt x="146" y="740" on="0"/>
        <pt x="269" y="863" on="0"/>
        <pt x="440" y="930" on="0"/>
        <pt x="544" y="930" on="1"/>
        <pt x="662" y="930" on="0"/>
        <pt x="829" y="847" on="0"/>
        <pt x="883" y="778" on="1"/>
      </contour>
    </TTGlyph>
    <TTGlyph name="germandbls" xMin="42" yMin="-23" xMax="1265" yMax="1335">
      <contour>
        <pt x="960" y="742" on="1"/>
        <pt x="961" y="741" on="0"/>
        <pt x="962" y="741" on="0"/>
        <pt x="963" y="740" on="1"/>
        <pt x="1109" y="716" on="0"/>
        <pt x="1265" y="535" on="0"/>
        <pt x="1265" y="383" on="1"/>
        <pt x="1265" y="294" on="0"/>
        <pt x="1214" y="145" on="0"/>
        <pt x="1112" y="37" on="0"/>
        <pt x="957" y="-23" on="0"/>
        <pt x="853" y="-23" on="1"/>
        <pt x="824" y="-23" on="0"/>
        <pt x="760" y="-14" on="0"/>
        <pt x="728" y="-4" on="1"/>
        <pt x="728" y="133" on="1"/>
        <pt x="739" y="132" on="0"/>
        <pt x="764" y="133" on="0"/>
        <pt x="776" y="135" on="1"/>
        <pt x="813" y="140" on="0"/>
        <pt x="877" y="171" on="0"/>
        <pt x="924" y="229" on="0"/>
        <pt x="950" y="318" on="0"/>
        <pt x="950" y="383" on="1"/>
        <pt x="950" y="457" on="0"/>
        <pt x="923" y="559" on="0"/>
        <pt x="860" y="625" on="0"/>
        <pt x="757" y="660" on="0"/>
        <pt x="681" y="666" on="1"/>
        <pt x="681" y="801" on="1"/>
        <pt x="780" y="805" on="0"/>
        <pt x="868" y="903" on="0"/>
        <pt x="868" y="999" on="1"/>
        <pt x="868" y="1088" on="0"/>
        <pt x="764" y="1186" on="0"/>
        <pt x="679" y="1186" on="1"/>
        <pt x="576" y="1186" on="0"/>
        <pt x="479" y="1057" on="0"/>
        <pt x="479" y="920" on="1"/>
        <pt x="479" y="254" on="1"/>
        <pt x="479" y="227" on="0"/>
        <pt x="486" y="192" on="0"/>
        <pt x="511" y="172" on="0"/>
        <pt x="558" y="164" on="0"/>
        <pt x="598" y="164" on="1"/>
        <pt x="598" y="0" on="1"/>
        <pt x="565" y="0" on="0"/>
        <pt x="502" y="1" on="0"/>
        <pt x="436" y="1" on="0"/>
        <pt x="363" y="2" on="0"/>
        <pt x="320" y="2" on="1"/>
        <pt x="237" y="2" on="0"/>
        <pt x="108" y="0" on="0"/>
        <pt x="42" y="0" on="1"/>
        <pt x="42" y="164" on="1"/>
        <pt x="90" y="164" on="0"/>
        <pt x="144" y="167" on="0"/>
        <pt x="169" y="186" on="0"/>
        <pt x="174" y="226" on="0"/>
        <pt x="174" y="263" on="1"/>
        <pt x="174" y="876" on="1"/>
        <pt x="174" y="992" on="0"/>
        <pt x="230" y="1165" on="0"/>
        <pt x="353" y="1279" on="0"/>
        <pt x="549" y="1335" on="0"/>
        <pt x="689" y="1335" on="1"/>
        <pt x="801" y="1335" on="0"/>
        <pt x="979" y="1294" on="0"/>
        <pt x="1104" y="1213" on="0"/>
        <pt x="1171" y="1091" on="0"/>
        <pt x="1171" y="1009" on="1"/>
        <pt x="1171" y="906" on="0"/>
        <pt x="1063" y="772" on="0"/>
      </contour>
    </TTGlyph>
    <TTGlyph name="grave" xMin="97" yMin="1048" xMax="611" yMax="1408">
      <contour>
        <pt x="611" y="1048" on="1"/>
        <pt x="472" y="1048" on="1"/>
        <pt x="462" y="1057" on="0"/>
        <pt x="399" y="1105" on="0"/>
        <pt x="316" y="1166" on="0"/>
        <pt x="225" y="1235" on="0"/>
        <pt x="148" y="1297" on="0"/>
        <pt x="98" y="1343" on="0"/>
        <pt x="97" y="1352" on="1"/>
        <pt x="97" y="1356" on="0"/>
        <pt x="127" y="1374" on="0"/>
        <pt x="174" y="1393" on="0"/>
        <pt x="233" y="1408" on="0"/>
        <pt x="263" y="1408" on="1"/>
        <pt x="297" y="1408" on="0"/>
        <pt x="358" y="1388" on="0"/>
        <pt x="375" y="1365" on="1"/>
      </contour>
    </TTGlyph>
    <TTGlyph name="greater" xMin="192" yMin="77" xMax="1343" yMax="1200">
      <contour>
        <pt x="1343" y="548" on="1"/>
        <pt x="192" y="77" on="1"/>
        <pt x="192" y="290" on="1"/>
        <pt x="1064" y="638" on="1"/>
        <pt x="192" y="986" on="1"/>
        <pt x="192" y="1200" on="1"/>
        <pt x="1343" y="728" on="1"/>
      </contour>
    </TTGlyph>
    <TTGlyph name="greaterequal" xMin="185" yMin="15" xMax="1302" yMax="1251">
      <contour>
        <pt x="1302" y="686" on="1"/>
        <pt x="187" y="267" on="1"/>
        <pt x="187" y="429" on="1"/>
        <pt x="1084" y="758" on="1"/>
        <pt x="1084" y="760" on="1"/>
        <pt x="186" y="1089" on="1"/>
        <pt x="186" y="1251" on="1"/>
        <pt x="1302" y="832" on="1"/>
      </contour>
      <contour>
        <pt x="1298" y="15" on="1"/>
        <pt x="185" y="15" on="1"/>
        <pt x="185" y="166" on="1"/>
        <pt x="1298" y="166" on="1"/>
      </contour>
    </TTGlyph>
    <TTGlyph name="guillemotleft" xMin="98" yMin="59" xMax="1157" yMax="851">
      <contour>
        <pt x="623" y="851" on="1"/>
        <pt x="380" y="454" on="1"/>
        <pt x="623" y="59" on="1"/>
        <pt x="338" y="59" on="1"/>
        <pt x="98" y="454" on="1"/>
        <pt x="338" y="851" on="1"/>
      </contour>
      <contour>
        <pt x="1157" y="851" on="1"/>
        <pt x="913" y="454" on="1"/>
        <pt x="1157" y="59" on="1"/>
        <pt x="872" y="59" on="1"/>
        <pt x="638" y="454" on="1"/>
        <pt x="872" y="851" on="1"/>
      </contour>
    </TTGlyph>
    <TTGlyph name="guillemotright" xMin="148" yMin="59" xMax="1061" yMax="851">
      <contour>
        <pt x="433" y="851" on="1"/>
        <pt x="673" y="456" on="1"/>
        <pt x="433" y="59" on="1"/>
        <pt x="148" y="59" on="1"/>
        <pt x="392" y="456" on="1"/>
        <pt x="148" y="851" on="1"/>
      </contour>
      <contour>
        <pt x="822" y="851" on="1"/>
        <pt x="1061" y="456" on="1"/>
        <pt x="822" y="59" on="1"/>
        <pt x="520" y="59" on="1"/>
        <pt x="779" y="456" on="1"/>
        <pt x="536" y="851" on="1"/>
      </contour>
    </TTGlyph>
    <TTGlyph name="guilsinglleft" xMin="83" yMin="59" xMax="620" yMax="851">
      <contour>
        <pt x="620" y="851" on="1"/>
        <pt x="364" y="456" on="1"/>
        <pt x="620" y="59" on="1"/>
        <pt x="335" y="59" on="1"/>
        <pt x="83" y="456" on="1"/>
        <pt x="335" y="851" on="1"/>
      </contour>
    </TTGlyph>
    <TTGlyph name="guilsinglright" xMin="77" yMin="59" xMax="602" yMax="851">
      <contour>
        <pt x="363" y="851" on="1"/>
        <pt x="602" y="456" on="1"/>
        <pt x="363" y="59" on="1"/>
        <pt x="77" y="59" on="1"/>
        <pt x="320" y="456" on="1"/>
        <pt x="77" y="851" on="1"/>
      </contour>
    </TTGlyph>
    <TTGlyph name="h" xMin="37" yMin="0" xMax="1295" yMax="1314">
      <contour>
        <pt x="865" y="515" on="1"/>
        <pt x="865" y="566" on="0"/>
        <pt x="853" y="655" on="0"/>
        <pt x="819" y="720" on="0"/>
        <pt x="757" y="757" on="0"/>
        <pt x="708" y="757" on="1"/>
        <pt x="653" y="757" on="0"/>
        <pt x="573" y="725" on="0"/>
        <pt x="518" y="670" on="0"/>
        <pt x="486" y="597" on="0"/>
        <pt x="479" y="556" on="1"/>
        <pt x="479" y="222" on="1"/>
        <pt x="479" y="199" on="0"/>
        <pt x="495" y="175" on="0"/>
        <pt x="528" y="164" on="0"/>
        <pt x="580" y="162" on="0"/>
        <pt x="617" y="162" on="1"/>
        <pt x="617" y="0" on="1"/>
        <pt x="577" y="0" on="0"/>
        <pt x="504" y="0" on="0"/>
        <pt x="427" y="1" on="0"/>
        <pt x="343" y="2" on="0"/>
        <pt x="292" y="2" on="1"/>
        <pt x="253" y="2" on="0"/>
        <pt x="186" y="1" on="0"/>
        <pt x="125" y="1" on="0"/>
        <pt x="67" y="0" on="0"/>
        <pt x="37" y="0" on="1"/>
        <pt x="37" y="162" on="1"/>
        <pt x="83" y="162" on="0"/>
        <pt x="137" y="166" on="0"/>
        <pt x="165" y="181" on="0"/>
        <pt x="173" y="212" on="0"/>
        <pt x="173" y="239" on="1"/>
        <pt x="173" y="1092" on="1"/>
        <pt x="173" y="1111" on="0"/>
        <pt x="159" y="1134" on="0"/>
        <pt x="134" y="1146" on="0"/>
        <pt x="100" y="1150" on="0"/>
        <pt x="79" y="1150" on="1"/>
        <pt x="43" y="1150" on="1"/>
        <pt x="43" y="1308" on="1"/>
        <pt x="96" y="1307" on="0"/>
        <pt x="209" y="1309" on="0"/>
        <pt x="263" y="1309" on="1"/>
        <pt x="315" y="1309" on="0"/>
        <pt x="421" y="1311" on="0"/>
        <pt x="478" y="1314" on="1"/>
        <pt x="478" y="780" on="1"/>
        <pt x="548" y="857" on="0"/>
        <pt x="728" y="929" on="0"/>
        <pt x="838" y="929" on="1"/>
        <pt x="929" y="929" on="0"/>
        <pt x="1056" y="876" on="0"/>
        <pt x="1135" y="766" on="0"/>
        <pt x="1171" y="595" on="0"/>
        <pt x="1171" y="477" on="1"/>
        <pt x="1171" y="250" on="1"/>
        <pt x="1171" y="220" on="0"/>
        <pt x="1179" y="185" on="0"/>
        <pt x="1200" y="167" on="0"/>
        <pt x="1234" y="162" on="0"/>
        <pt x="1260" y="162" on="1"/>
        <pt x="1295" y="162" on="1"/>
        <pt x="1295" y="0" on="1"/>
        <pt x="1263" y="0" on="0"/>
        <pt x="1203" y="0" on="0"/>
        <pt x="1139" y="1" on="0"/>
        <pt x="1069" y="2" on="0"/>
        <pt x="1027" y="2" on="1"/>
        <pt x="984" y="2" on="0"/>
        <pt x="910" y="1" on="0"/>
        <pt x="842" y="1" on="0"/>
        <pt x="778" y="0" on="0"/>
        <pt x="745" y="0" on="1"/>
        <pt x="745" y="162" on="1"/>
        <pt x="784" y="162" on="0"/>
        <pt x="831" y="175" on="0"/>
        <pt x="857" y="199" on="0"/>
        <pt x="865" y="234" on="0"/>
        <pt x="865" y="255" on="1"/>
      </contour>
    </TTGlyph>
    <TTGlyph name="hungarumlaut" xMin="135" yMin="1048" xMax="923" yMax="1416">
      <contour>
        <pt x="651" y="1333" on="1"/>
        <pt x="665" y="1357" on="0"/>
        <pt x="709" y="1388" on="0"/>
        <pt x="760" y="1408" on="0"/>
        <pt x="814" y="1416" on="0"/>
        <pt x="839" y="1416" on="1"/>
        <pt x="850" y="1416" on="0"/>
        <pt x="879" y="1413" on="0"/>
        <pt x="905" y="1406" on="0"/>
        <pt x="923" y="1395" on="0"/>
        <pt x="923" y="1386" on="1"/>
        <pt x="923" y="1371" on="0"/>
        <pt x="900" y="1334" on="0"/>
        <pt x="867" y="1297" on="0"/>
        <pt x="829" y="1261" on="0"/>
        <pt x="814" y="1247" on="1"/>
        <pt x="627" y="1048" on="1"/>
        <pt x="495" y="1048" on="1"/>
      </contour>
      <contour>
        <pt x="324" y="1367" on="1"/>
        <pt x="369" y="1396" on="0"/>
        <pt x="454" y="1416" on="0"/>
        <pt x="498" y="1416" on="1"/>
        <pt x="508" y="1416" on="0"/>
        <pt x="537" y="1413" on="0"/>
        <pt x="563" y="1405" on="0"/>
        <pt x="581" y="1394" on="0"/>
        <pt x="581" y="1385" on="1"/>
        <pt x="581" y="1369" on="0"/>
        <pt x="560" y="1335" on="0"/>
        <pt x="528" y="1300" on="0"/>
        <pt x="490" y="1265" on="0"/>
        <pt x="474" y="1250" on="1"/>
        <pt x="267" y="1048" on="1"/>
        <pt x="135" y="1048" on="1"/>
      </contour>
    </TTGlyph>
    <TTGlyph name="hyphen" xMin="82" yMin="327" xMax="743" yMax="592">
      <contour>
        <pt x="743" y="592" on="1"/>
        <pt x="743" y="327" on="1"/>
        <pt x="82" y="327" on="1"/>
        <pt x="82" y="592" on="1"/>
      </contour>
    </TTGlyph>
</ttFont>
